G04 #@! TF.GenerationSoftware,KiCad,Pcbnew,5.1.0-unknown-03bce55~94~ubuntu16.04.1*
G04 #@! TF.CreationDate,2019-06-06T22:48:09-05:00*
G04 #@! TF.ProjectId,Embebidos_2019,456d6265-6269-4646-9f73-5f323031392e,rev?*
G04 #@! TF.SameCoordinates,Original*
G04 #@! TF.FileFunction,Soldermask,Bot*
G04 #@! TF.FilePolarity,Negative*
%FSLAX46Y46*%
G04 Gerber Fmt 4.6, Leading zero omitted, Abs format (unit mm)*
G04 Created by KiCad (PCBNEW 5.1.0-unknown-03bce55~94~ubuntu16.04.1) date 2019-06-06 22:48:09*
%MOMM*%
%LPD*%
G04 APERTURE LIST*
%ADD10C,0.100000*%
G04 APERTURE END LIST*
D10*
G36*
X109120585Y-119995802D02*
G01*
X109270410Y-120025604D01*
X109552674Y-120142521D01*
X109806705Y-120312259D01*
X110022741Y-120528295D01*
X110192479Y-120782326D01*
X110309396Y-121064590D01*
X110369000Y-121364240D01*
X110369000Y-121669760D01*
X110309396Y-121969410D01*
X110192479Y-122251674D01*
X110022741Y-122505705D01*
X109806705Y-122721741D01*
X109552674Y-122891479D01*
X109270410Y-123008396D01*
X109120585Y-123038198D01*
X108970761Y-123068000D01*
X108665239Y-123068000D01*
X108515415Y-123038198D01*
X108365590Y-123008396D01*
X108083326Y-122891479D01*
X107829295Y-122721741D01*
X107613259Y-122505705D01*
X107443521Y-122251674D01*
X107326604Y-121969410D01*
X107267000Y-121669760D01*
X107267000Y-121364240D01*
X107326604Y-121064590D01*
X107443521Y-120782326D01*
X107613259Y-120528295D01*
X107829295Y-120312259D01*
X108083326Y-120142521D01*
X108365590Y-120025604D01*
X108515415Y-119995802D01*
X108665239Y-119966000D01*
X108970761Y-119966000D01*
X109120585Y-119995802D01*
X109120585Y-119995802D01*
G37*
G36*
X31126000Y-122391000D02*
G01*
X29324000Y-122391000D01*
X29324000Y-120589000D01*
X31126000Y-120589000D01*
X31126000Y-122391000D01*
X31126000Y-122391000D01*
G37*
G36*
X82835562Y-118750181D02*
G01*
X82870481Y-118760774D01*
X82902663Y-118777976D01*
X82930873Y-118801127D01*
X82954024Y-118829337D01*
X82971226Y-118861519D01*
X82981819Y-118896438D01*
X82986000Y-118938895D01*
X82986000Y-120405105D01*
X82981819Y-120447562D01*
X82971226Y-120482481D01*
X82954024Y-120514663D01*
X82930873Y-120542873D01*
X82902663Y-120566024D01*
X82870481Y-120583226D01*
X82835562Y-120593819D01*
X82793105Y-120598000D01*
X81651895Y-120598000D01*
X81609438Y-120593819D01*
X81574519Y-120583226D01*
X81542337Y-120566024D01*
X81514127Y-120542873D01*
X81490976Y-120514663D01*
X81473774Y-120482481D01*
X81463181Y-120447562D01*
X81459000Y-120405105D01*
X81459000Y-118938895D01*
X81463181Y-118896438D01*
X81473774Y-118861519D01*
X81490976Y-118829337D01*
X81514127Y-118801127D01*
X81542337Y-118777976D01*
X81574519Y-118760774D01*
X81609438Y-118750181D01*
X81651895Y-118746000D01*
X82793105Y-118746000D01*
X82835562Y-118750181D01*
X82835562Y-118750181D01*
G37*
G36*
X79860562Y-118750181D02*
G01*
X79895481Y-118760774D01*
X79927663Y-118777976D01*
X79955873Y-118801127D01*
X79979024Y-118829337D01*
X79996226Y-118861519D01*
X80006819Y-118896438D01*
X80011000Y-118938895D01*
X80011000Y-120405105D01*
X80006819Y-120447562D01*
X79996226Y-120482481D01*
X79979024Y-120514663D01*
X79955873Y-120542873D01*
X79927663Y-120566024D01*
X79895481Y-120583226D01*
X79860562Y-120593819D01*
X79818105Y-120598000D01*
X78676895Y-120598000D01*
X78634438Y-120593819D01*
X78599519Y-120583226D01*
X78567337Y-120566024D01*
X78539127Y-120542873D01*
X78515976Y-120514663D01*
X78498774Y-120482481D01*
X78488181Y-120447562D01*
X78484000Y-120405105D01*
X78484000Y-118938895D01*
X78488181Y-118896438D01*
X78498774Y-118861519D01*
X78515976Y-118829337D01*
X78539127Y-118801127D01*
X78567337Y-118777976D01*
X78599519Y-118760774D01*
X78634438Y-118750181D01*
X78676895Y-118746000D01*
X79818105Y-118746000D01*
X79860562Y-118750181D01*
X79860562Y-118750181D01*
G37*
G36*
X30335443Y-118055519D02*
G01*
X30401627Y-118062037D01*
X30571466Y-118113557D01*
X30727991Y-118197222D01*
X30763729Y-118226552D01*
X30865186Y-118309814D01*
X30948448Y-118411271D01*
X30977778Y-118447009D01*
X31061443Y-118603534D01*
X31112963Y-118773373D01*
X31130359Y-118950000D01*
X31112963Y-119126627D01*
X31061443Y-119296466D01*
X30977778Y-119452991D01*
X30948448Y-119488729D01*
X30865186Y-119590186D01*
X30763729Y-119673448D01*
X30727991Y-119702778D01*
X30571466Y-119786443D01*
X30401627Y-119837963D01*
X30335442Y-119844482D01*
X30269260Y-119851000D01*
X30180740Y-119851000D01*
X30114558Y-119844482D01*
X30048373Y-119837963D01*
X29878534Y-119786443D01*
X29722009Y-119702778D01*
X29686271Y-119673448D01*
X29584814Y-119590186D01*
X29501552Y-119488729D01*
X29472222Y-119452991D01*
X29388557Y-119296466D01*
X29337037Y-119126627D01*
X29319641Y-118950000D01*
X29337037Y-118773373D01*
X29388557Y-118603534D01*
X29472222Y-118447009D01*
X29501552Y-118411271D01*
X29584814Y-118309814D01*
X29686271Y-118226552D01*
X29722009Y-118197222D01*
X29878534Y-118113557D01*
X30048373Y-118062037D01*
X30114557Y-118055519D01*
X30180740Y-118049000D01*
X30269260Y-118049000D01*
X30335443Y-118055519D01*
X30335443Y-118055519D01*
G37*
G36*
X106381642Y-117186781D02*
G01*
X106525678Y-117246443D01*
X106527416Y-117247163D01*
X106658608Y-117334822D01*
X106770178Y-117446392D01*
X106857837Y-117577584D01*
X106857838Y-117577586D01*
X106918219Y-117723358D01*
X106949000Y-117878107D01*
X106949000Y-118035893D01*
X106918219Y-118190642D01*
X106857838Y-118336414D01*
X106857837Y-118336416D01*
X106770178Y-118467608D01*
X106658608Y-118579178D01*
X106527416Y-118666837D01*
X106527415Y-118666838D01*
X106527414Y-118666838D01*
X106381642Y-118727219D01*
X106226893Y-118758000D01*
X106069107Y-118758000D01*
X105914358Y-118727219D01*
X105768586Y-118666838D01*
X105768585Y-118666838D01*
X105768584Y-118666837D01*
X105637392Y-118579178D01*
X105525822Y-118467608D01*
X105438163Y-118336416D01*
X105438162Y-118336414D01*
X105377781Y-118190642D01*
X105347000Y-118035893D01*
X105347000Y-117878107D01*
X105377781Y-117723358D01*
X105438162Y-117577586D01*
X105438163Y-117577584D01*
X105525822Y-117446392D01*
X105637392Y-117334822D01*
X105768584Y-117247163D01*
X105770322Y-117246443D01*
X105914358Y-117186781D01*
X106069107Y-117156000D01*
X106226893Y-117156000D01*
X106381642Y-117186781D01*
X106381642Y-117186781D01*
G37*
G36*
X30335442Y-115515518D02*
G01*
X30401627Y-115522037D01*
X30571466Y-115573557D01*
X30727991Y-115657222D01*
X30763729Y-115686552D01*
X30865186Y-115769814D01*
X30948448Y-115871271D01*
X30977778Y-115907009D01*
X31061443Y-116063534D01*
X31112963Y-116233373D01*
X31130359Y-116410000D01*
X31112963Y-116586627D01*
X31061443Y-116756466D01*
X30977778Y-116912991D01*
X30948448Y-116948729D01*
X30865186Y-117050186D01*
X30763729Y-117133448D01*
X30727991Y-117162778D01*
X30571466Y-117246443D01*
X30401627Y-117297963D01*
X30335443Y-117304481D01*
X30269260Y-117311000D01*
X30180740Y-117311000D01*
X30114557Y-117304481D01*
X30048373Y-117297963D01*
X29878534Y-117246443D01*
X29722009Y-117162778D01*
X29686271Y-117133448D01*
X29584814Y-117050186D01*
X29501552Y-116948729D01*
X29472222Y-116912991D01*
X29388557Y-116756466D01*
X29337037Y-116586627D01*
X29319641Y-116410000D01*
X29337037Y-116233373D01*
X29388557Y-116063534D01*
X29472222Y-115907009D01*
X29501552Y-115871271D01*
X29584814Y-115769814D01*
X29686271Y-115686552D01*
X29722009Y-115657222D01*
X29878534Y-115573557D01*
X30048373Y-115522037D01*
X30114558Y-115515518D01*
X30180740Y-115509000D01*
X30269260Y-115509000D01*
X30335442Y-115515518D01*
X30335442Y-115515518D01*
G37*
G36*
X106381642Y-114646781D02*
G01*
X106527414Y-114707162D01*
X106527416Y-114707163D01*
X106658608Y-114794822D01*
X106770178Y-114906392D01*
X106857837Y-115037584D01*
X106857838Y-115037586D01*
X106918219Y-115183358D01*
X106949000Y-115338107D01*
X106949000Y-115495893D01*
X106918219Y-115650642D01*
X106857838Y-115796414D01*
X106857837Y-115796416D01*
X106770178Y-115927608D01*
X106658608Y-116039178D01*
X106527416Y-116126837D01*
X106527415Y-116126838D01*
X106527414Y-116126838D01*
X106381642Y-116187219D01*
X106226893Y-116218000D01*
X106069107Y-116218000D01*
X105914358Y-116187219D01*
X105768586Y-116126838D01*
X105768585Y-116126838D01*
X105768584Y-116126837D01*
X105637392Y-116039178D01*
X105525822Y-115927608D01*
X105438163Y-115796416D01*
X105438162Y-115796414D01*
X105377781Y-115650642D01*
X105347000Y-115495893D01*
X105347000Y-115338107D01*
X105377781Y-115183358D01*
X105438162Y-115037586D01*
X105438163Y-115037584D01*
X105525822Y-114906392D01*
X105637392Y-114794822D01*
X105768584Y-114707163D01*
X105768586Y-114707162D01*
X105914358Y-114646781D01*
X106069107Y-114616000D01*
X106226893Y-114616000D01*
X106381642Y-114646781D01*
X106381642Y-114646781D01*
G37*
G36*
X106381642Y-112616781D02*
G01*
X106527414Y-112677162D01*
X106527416Y-112677163D01*
X106658608Y-112764822D01*
X106770178Y-112876392D01*
X106857837Y-113007584D01*
X106857838Y-113007586D01*
X106918219Y-113153358D01*
X106949000Y-113308107D01*
X106949000Y-113465893D01*
X106918219Y-113620642D01*
X106867536Y-113743000D01*
X106857837Y-113766416D01*
X106770178Y-113897608D01*
X106658608Y-114009178D01*
X106527416Y-114096837D01*
X106527415Y-114096838D01*
X106527414Y-114096838D01*
X106381642Y-114157219D01*
X106226893Y-114188000D01*
X106069107Y-114188000D01*
X105914358Y-114157219D01*
X105768586Y-114096838D01*
X105768585Y-114096838D01*
X105768584Y-114096837D01*
X105637392Y-114009178D01*
X105525822Y-113897608D01*
X105438163Y-113766416D01*
X105428464Y-113743000D01*
X105377781Y-113620642D01*
X105347000Y-113465893D01*
X105347000Y-113308107D01*
X105377781Y-113153358D01*
X105438162Y-113007586D01*
X105438163Y-113007584D01*
X105525822Y-112876392D01*
X105637392Y-112764822D01*
X105768584Y-112677163D01*
X105768586Y-112677162D01*
X105914358Y-112616781D01*
X106069107Y-112586000D01*
X106226893Y-112586000D01*
X106381642Y-112616781D01*
X106381642Y-112616781D01*
G37*
G36*
X79156000Y-113743000D02*
G01*
X77554000Y-113743000D01*
X77554000Y-111641000D01*
X79156000Y-111641000D01*
X79156000Y-113743000D01*
X79156000Y-113743000D01*
G37*
G36*
X81456000Y-113743000D02*
G01*
X79854000Y-113743000D01*
X79854000Y-111641000D01*
X81456000Y-111641000D01*
X81456000Y-113743000D01*
X81456000Y-113743000D01*
G37*
G36*
X83756000Y-113743000D02*
G01*
X82154000Y-113743000D01*
X82154000Y-111641000D01*
X83756000Y-111641000D01*
X83756000Y-113743000D01*
X83756000Y-113743000D01*
G37*
G36*
X54124265Y-111451006D02*
G01*
X54188305Y-111477532D01*
X54252346Y-111504059D01*
X54367611Y-111581076D01*
X54465644Y-111679109D01*
X54542661Y-111794374D01*
X54595714Y-111922456D01*
X54622760Y-112058423D01*
X54622760Y-112197057D01*
X54595714Y-112333024D01*
X54542661Y-112461106D01*
X54465644Y-112576371D01*
X54367611Y-112674404D01*
X54252346Y-112751421D01*
X54188305Y-112777948D01*
X54124265Y-112804474D01*
X54056280Y-112817997D01*
X53988297Y-112831520D01*
X53849663Y-112831520D01*
X53781680Y-112817997D01*
X53713695Y-112804474D01*
X53649655Y-112777948D01*
X53585614Y-112751421D01*
X53470349Y-112674404D01*
X53372316Y-112576371D01*
X53295299Y-112461106D01*
X53242246Y-112333024D01*
X53215200Y-112197057D01*
X53215200Y-112058423D01*
X53242246Y-111922456D01*
X53295299Y-111794374D01*
X53372316Y-111679109D01*
X53470349Y-111581076D01*
X53585614Y-111504059D01*
X53649655Y-111477532D01*
X53713695Y-111451006D01*
X53849663Y-111423960D01*
X53988297Y-111423960D01*
X54124265Y-111451006D01*
X54124265Y-111451006D01*
G37*
G36*
X64124245Y-111451006D02*
G01*
X64188285Y-111477532D01*
X64252326Y-111504059D01*
X64367591Y-111581076D01*
X64465624Y-111679109D01*
X64542641Y-111794374D01*
X64595694Y-111922456D01*
X64622740Y-112058423D01*
X64622740Y-112197057D01*
X64595694Y-112333024D01*
X64542641Y-112461106D01*
X64465624Y-112576371D01*
X64367591Y-112674404D01*
X64252326Y-112751421D01*
X64188285Y-112777948D01*
X64124245Y-112804474D01*
X64056260Y-112817997D01*
X63988277Y-112831520D01*
X63849643Y-112831520D01*
X63781660Y-112817997D01*
X63713675Y-112804474D01*
X63649635Y-112777948D01*
X63585594Y-112751421D01*
X63470329Y-112674404D01*
X63372296Y-112576371D01*
X63295279Y-112461106D01*
X63242226Y-112333024D01*
X63215180Y-112197057D01*
X63215180Y-112058423D01*
X63242226Y-111922456D01*
X63295279Y-111794374D01*
X63372296Y-111679109D01*
X63470329Y-111581076D01*
X63585594Y-111504059D01*
X63649635Y-111477532D01*
X63713675Y-111451006D01*
X63849643Y-111423960D01*
X63988277Y-111423960D01*
X64124245Y-111451006D01*
X64124245Y-111451006D01*
G37*
G36*
X60123745Y-111451006D02*
G01*
X60187785Y-111477532D01*
X60251826Y-111504059D01*
X60367091Y-111581076D01*
X60465124Y-111679109D01*
X60542141Y-111794374D01*
X60595194Y-111922456D01*
X60622240Y-112058423D01*
X60622240Y-112197057D01*
X60595194Y-112333024D01*
X60542141Y-112461106D01*
X60465124Y-112576371D01*
X60367091Y-112674404D01*
X60251826Y-112751421D01*
X60187785Y-112777948D01*
X60123745Y-112804474D01*
X60055760Y-112817997D01*
X59987777Y-112831520D01*
X59849143Y-112831520D01*
X59781160Y-112817997D01*
X59713175Y-112804474D01*
X59649135Y-112777948D01*
X59585094Y-112751421D01*
X59469829Y-112674404D01*
X59371796Y-112576371D01*
X59294779Y-112461106D01*
X59241726Y-112333024D01*
X59214680Y-112197057D01*
X59214680Y-112058423D01*
X59241726Y-111922456D01*
X59294779Y-111794374D01*
X59371796Y-111679109D01*
X59469829Y-111581076D01*
X59585094Y-111504059D01*
X59649135Y-111477532D01*
X59713175Y-111451006D01*
X59849143Y-111423960D01*
X59987777Y-111423960D01*
X60123745Y-111451006D01*
X60123745Y-111451006D01*
G37*
G36*
X58124765Y-111451006D02*
G01*
X58188805Y-111477532D01*
X58252846Y-111504059D01*
X58368111Y-111581076D01*
X58466144Y-111679109D01*
X58543161Y-111794374D01*
X58596214Y-111922456D01*
X58623260Y-112058423D01*
X58623260Y-112197057D01*
X58596214Y-112333024D01*
X58543161Y-112461106D01*
X58466144Y-112576371D01*
X58368111Y-112674404D01*
X58252846Y-112751421D01*
X58188805Y-112777948D01*
X58124765Y-112804474D01*
X58056780Y-112817997D01*
X57988797Y-112831520D01*
X57850163Y-112831520D01*
X57782180Y-112817997D01*
X57714195Y-112804474D01*
X57650155Y-112777948D01*
X57586114Y-112751421D01*
X57470849Y-112674404D01*
X57372816Y-112576371D01*
X57295799Y-112461106D01*
X57242746Y-112333024D01*
X57215700Y-112197057D01*
X57215700Y-112058423D01*
X57242746Y-111922456D01*
X57295799Y-111794374D01*
X57372816Y-111679109D01*
X57470849Y-111581076D01*
X57586114Y-111504059D01*
X57650155Y-111477532D01*
X57714195Y-111451006D01*
X57850163Y-111423960D01*
X57988797Y-111423960D01*
X58124765Y-111451006D01*
X58124765Y-111451006D01*
G37*
G36*
X56123245Y-111451006D02*
G01*
X56187285Y-111477532D01*
X56251326Y-111504059D01*
X56366591Y-111581076D01*
X56464624Y-111679109D01*
X56541641Y-111794374D01*
X56594694Y-111922456D01*
X56621740Y-112058423D01*
X56621740Y-112197057D01*
X56594694Y-112333024D01*
X56541641Y-112461106D01*
X56464624Y-112576371D01*
X56366591Y-112674404D01*
X56251326Y-112751421D01*
X56187285Y-112777948D01*
X56123245Y-112804474D01*
X56055260Y-112817997D01*
X55987277Y-112831520D01*
X55848643Y-112831520D01*
X55780660Y-112817997D01*
X55712675Y-112804474D01*
X55648635Y-112777948D01*
X55584594Y-112751421D01*
X55469329Y-112674404D01*
X55371296Y-112576371D01*
X55294279Y-112461106D01*
X55241226Y-112333024D01*
X55214180Y-112197057D01*
X55214180Y-112058423D01*
X55241226Y-111922456D01*
X55294279Y-111794374D01*
X55371296Y-111679109D01*
X55469329Y-111581076D01*
X55584594Y-111504059D01*
X55648635Y-111477532D01*
X55712675Y-111451006D01*
X55848643Y-111423960D01*
X55987277Y-111423960D01*
X56123245Y-111451006D01*
X56123245Y-111451006D01*
G37*
G36*
X52125285Y-111451006D02*
G01*
X52189325Y-111477532D01*
X52253366Y-111504059D01*
X52368631Y-111581076D01*
X52466664Y-111679109D01*
X52543681Y-111794374D01*
X52596734Y-111922456D01*
X52623780Y-112058423D01*
X52623780Y-112197057D01*
X52596734Y-112333024D01*
X52543681Y-112461106D01*
X52466664Y-112576371D01*
X52368631Y-112674404D01*
X52253366Y-112751421D01*
X52189325Y-112777948D01*
X52125285Y-112804474D01*
X52057300Y-112817997D01*
X51989317Y-112831520D01*
X51850683Y-112831520D01*
X51782700Y-112817997D01*
X51714715Y-112804474D01*
X51650675Y-112777948D01*
X51586634Y-112751421D01*
X51471369Y-112674404D01*
X51373336Y-112576371D01*
X51296319Y-112461106D01*
X51243266Y-112333024D01*
X51216220Y-112197057D01*
X51216220Y-112058423D01*
X51243266Y-111922456D01*
X51296319Y-111794374D01*
X51373336Y-111679109D01*
X51471369Y-111581076D01*
X51586634Y-111504059D01*
X51650675Y-111477532D01*
X51714715Y-111451006D01*
X51850683Y-111423960D01*
X51989317Y-111423960D01*
X52125285Y-111451006D01*
X52125285Y-111451006D01*
G37*
G36*
X50126305Y-111451006D02*
G01*
X50190345Y-111477532D01*
X50254386Y-111504059D01*
X50369651Y-111581076D01*
X50467684Y-111679109D01*
X50544701Y-111794374D01*
X50597754Y-111922456D01*
X50624800Y-112058423D01*
X50624800Y-112197057D01*
X50597754Y-112333024D01*
X50544701Y-112461106D01*
X50467684Y-112576371D01*
X50369651Y-112674404D01*
X50254386Y-112751421D01*
X50190345Y-112777948D01*
X50126305Y-112804474D01*
X50058320Y-112817997D01*
X49990337Y-112831520D01*
X49851703Y-112831520D01*
X49783720Y-112817997D01*
X49715735Y-112804474D01*
X49651695Y-112777948D01*
X49587654Y-112751421D01*
X49472389Y-112674404D01*
X49374356Y-112576371D01*
X49297339Y-112461106D01*
X49244286Y-112333024D01*
X49217240Y-112197057D01*
X49217240Y-112058423D01*
X49244286Y-111922456D01*
X49297339Y-111794374D01*
X49374356Y-111679109D01*
X49472389Y-111581076D01*
X49587654Y-111504059D01*
X49651695Y-111477532D01*
X49715735Y-111451006D01*
X49851703Y-111423960D01*
X49990337Y-111423960D01*
X50126305Y-111451006D01*
X50126305Y-111451006D01*
G37*
G36*
X48127325Y-111451006D02*
G01*
X48191365Y-111477532D01*
X48255406Y-111504059D01*
X48370671Y-111581076D01*
X48468704Y-111679109D01*
X48545721Y-111794374D01*
X48598774Y-111922456D01*
X48625820Y-112058423D01*
X48625820Y-112197057D01*
X48598774Y-112333024D01*
X48545721Y-112461106D01*
X48468704Y-112576371D01*
X48370671Y-112674404D01*
X48255406Y-112751421D01*
X48191365Y-112777948D01*
X48127325Y-112804474D01*
X48059340Y-112817997D01*
X47991357Y-112831520D01*
X47852723Y-112831520D01*
X47784740Y-112817997D01*
X47716755Y-112804474D01*
X47652715Y-112777948D01*
X47588674Y-112751421D01*
X47473409Y-112674404D01*
X47375376Y-112576371D01*
X47298359Y-112461106D01*
X47245306Y-112333024D01*
X47218260Y-112197057D01*
X47218260Y-112058423D01*
X47245306Y-111922456D01*
X47298359Y-111794374D01*
X47375376Y-111679109D01*
X47473409Y-111581076D01*
X47588674Y-111504059D01*
X47652715Y-111477532D01*
X47716755Y-111451006D01*
X47852723Y-111423960D01*
X47991357Y-111423960D01*
X48127325Y-111451006D01*
X48127325Y-111451006D01*
G37*
G36*
X44126825Y-111451006D02*
G01*
X44190865Y-111477532D01*
X44254906Y-111504059D01*
X44370171Y-111581076D01*
X44468204Y-111679109D01*
X44545221Y-111794374D01*
X44598274Y-111922456D01*
X44625320Y-112058423D01*
X44625320Y-112197057D01*
X44598274Y-112333024D01*
X44545221Y-112461106D01*
X44468204Y-112576371D01*
X44370171Y-112674404D01*
X44254906Y-112751421D01*
X44190865Y-112777948D01*
X44126825Y-112804474D01*
X44058840Y-112817997D01*
X43990857Y-112831520D01*
X43852223Y-112831520D01*
X43784240Y-112817997D01*
X43716255Y-112804474D01*
X43652215Y-112777948D01*
X43588174Y-112751421D01*
X43472909Y-112674404D01*
X43374876Y-112576371D01*
X43297859Y-112461106D01*
X43244806Y-112333024D01*
X43217760Y-112197057D01*
X43217760Y-112058423D01*
X43244806Y-111922456D01*
X43297859Y-111794374D01*
X43374876Y-111679109D01*
X43472909Y-111581076D01*
X43588174Y-111504059D01*
X43652215Y-111477532D01*
X43716255Y-111451006D01*
X43852223Y-111423960D01*
X43990857Y-111423960D01*
X44126825Y-111451006D01*
X44126825Y-111451006D01*
G37*
G36*
X42125305Y-111451006D02*
G01*
X42189345Y-111477532D01*
X42253386Y-111504059D01*
X42368651Y-111581076D01*
X42466684Y-111679109D01*
X42543701Y-111794374D01*
X42596754Y-111922456D01*
X42623800Y-112058423D01*
X42623800Y-112197057D01*
X42596754Y-112333024D01*
X42543701Y-112461106D01*
X42466684Y-112576371D01*
X42368651Y-112674404D01*
X42253386Y-112751421D01*
X42189345Y-112777948D01*
X42125305Y-112804474D01*
X42057320Y-112817997D01*
X41989337Y-112831520D01*
X41850703Y-112831520D01*
X41782720Y-112817997D01*
X41714735Y-112804474D01*
X41650695Y-112777948D01*
X41586654Y-112751421D01*
X41471389Y-112674404D01*
X41373356Y-112576371D01*
X41296339Y-112461106D01*
X41243286Y-112333024D01*
X41216240Y-112197057D01*
X41216240Y-112058423D01*
X41243286Y-111922456D01*
X41296339Y-111794374D01*
X41373356Y-111679109D01*
X41471389Y-111581076D01*
X41586654Y-111504059D01*
X41650695Y-111477532D01*
X41714735Y-111451006D01*
X41850703Y-111423960D01*
X41989337Y-111423960D01*
X42125305Y-111451006D01*
X42125305Y-111451006D01*
G37*
G36*
X66621720Y-112831520D02*
G01*
X65214160Y-112831520D01*
X65214160Y-111423960D01*
X66621720Y-111423960D01*
X66621720Y-112831520D01*
X66621720Y-112831520D01*
G37*
G36*
X40126325Y-111451006D02*
G01*
X40190365Y-111477532D01*
X40254406Y-111504059D01*
X40369671Y-111581076D01*
X40467704Y-111679109D01*
X40544721Y-111794374D01*
X40597774Y-111922456D01*
X40624820Y-112058423D01*
X40624820Y-112197057D01*
X40597774Y-112333024D01*
X40544721Y-112461106D01*
X40467704Y-112576371D01*
X40369671Y-112674404D01*
X40254406Y-112751421D01*
X40190365Y-112777948D01*
X40126325Y-112804474D01*
X40058340Y-112817997D01*
X39990357Y-112831520D01*
X39851723Y-112831520D01*
X39783740Y-112817997D01*
X39715755Y-112804474D01*
X39651715Y-112777948D01*
X39587674Y-112751421D01*
X39472409Y-112674404D01*
X39374376Y-112576371D01*
X39297359Y-112461106D01*
X39244306Y-112333024D01*
X39217260Y-112197057D01*
X39217260Y-112058423D01*
X39244306Y-111922456D01*
X39297359Y-111794374D01*
X39374376Y-111679109D01*
X39472409Y-111581076D01*
X39587674Y-111504059D01*
X39651715Y-111477532D01*
X39715755Y-111451006D01*
X39851723Y-111423960D01*
X39990357Y-111423960D01*
X40126325Y-111451006D01*
X40126325Y-111451006D01*
G37*
G36*
X38127345Y-111451006D02*
G01*
X38191385Y-111477532D01*
X38255426Y-111504059D01*
X38370691Y-111581076D01*
X38468724Y-111679109D01*
X38545741Y-111794374D01*
X38598794Y-111922456D01*
X38625840Y-112058423D01*
X38625840Y-112197057D01*
X38598794Y-112333024D01*
X38545741Y-112461106D01*
X38468724Y-112576371D01*
X38370691Y-112674404D01*
X38255426Y-112751421D01*
X38191385Y-112777948D01*
X38127345Y-112804474D01*
X38059360Y-112817997D01*
X37991377Y-112831520D01*
X37852743Y-112831520D01*
X37784760Y-112817997D01*
X37716775Y-112804474D01*
X37652735Y-112777948D01*
X37588694Y-112751421D01*
X37473429Y-112674404D01*
X37375396Y-112576371D01*
X37298379Y-112461106D01*
X37245326Y-112333024D01*
X37218280Y-112197057D01*
X37218280Y-112058423D01*
X37245326Y-111922456D01*
X37298379Y-111794374D01*
X37375396Y-111679109D01*
X37473429Y-111581076D01*
X37588694Y-111504059D01*
X37652735Y-111477532D01*
X37716775Y-111451006D01*
X37852743Y-111423960D01*
X37991377Y-111423960D01*
X38127345Y-111451006D01*
X38127345Y-111451006D01*
G37*
G36*
X36125825Y-111451006D02*
G01*
X36189865Y-111477532D01*
X36253906Y-111504059D01*
X36369171Y-111581076D01*
X36467204Y-111679109D01*
X36544221Y-111794374D01*
X36597274Y-111922456D01*
X36624320Y-112058423D01*
X36624320Y-112197057D01*
X36597274Y-112333024D01*
X36544221Y-112461106D01*
X36467204Y-112576371D01*
X36369171Y-112674404D01*
X36253906Y-112751421D01*
X36189865Y-112777948D01*
X36125825Y-112804474D01*
X36057840Y-112817997D01*
X35989857Y-112831520D01*
X35851223Y-112831520D01*
X35783240Y-112817997D01*
X35715255Y-112804474D01*
X35651215Y-112777948D01*
X35587174Y-112751421D01*
X35471909Y-112674404D01*
X35373876Y-112576371D01*
X35296859Y-112461106D01*
X35243806Y-112333024D01*
X35216760Y-112197057D01*
X35216760Y-112058423D01*
X35243806Y-111922456D01*
X35296859Y-111794374D01*
X35373876Y-111679109D01*
X35471909Y-111581076D01*
X35587174Y-111504059D01*
X35651215Y-111477532D01*
X35715255Y-111451006D01*
X35851223Y-111423960D01*
X35989857Y-111423960D01*
X36125825Y-111451006D01*
X36125825Y-111451006D01*
G37*
G36*
X62125265Y-111451006D02*
G01*
X62189305Y-111477532D01*
X62253346Y-111504059D01*
X62368611Y-111581076D01*
X62466644Y-111679109D01*
X62543661Y-111794374D01*
X62596714Y-111922456D01*
X62623760Y-112058423D01*
X62623760Y-112197057D01*
X62596714Y-112333024D01*
X62543661Y-112461106D01*
X62466644Y-112576371D01*
X62368611Y-112674404D01*
X62253346Y-112751421D01*
X62189305Y-112777948D01*
X62125265Y-112804474D01*
X62057280Y-112817997D01*
X61989297Y-112831520D01*
X61850663Y-112831520D01*
X61782680Y-112817997D01*
X61714695Y-112804474D01*
X61650655Y-112777948D01*
X61586614Y-112751421D01*
X61471349Y-112674404D01*
X61373316Y-112576371D01*
X61296299Y-112461106D01*
X61243246Y-112333024D01*
X61216200Y-112197057D01*
X61216200Y-112058423D01*
X61243246Y-111922456D01*
X61296299Y-111794374D01*
X61373316Y-111679109D01*
X61471349Y-111581076D01*
X61586614Y-111504059D01*
X61650655Y-111477532D01*
X61714695Y-111451006D01*
X61850663Y-111423960D01*
X61989297Y-111423960D01*
X62125265Y-111451006D01*
X62125265Y-111451006D01*
G37*
G36*
X46125805Y-111451006D02*
G01*
X46189845Y-111477532D01*
X46253886Y-111504059D01*
X46369151Y-111581076D01*
X46467184Y-111679109D01*
X46544201Y-111794374D01*
X46597254Y-111922456D01*
X46624300Y-112058423D01*
X46624300Y-112197057D01*
X46597254Y-112333024D01*
X46544201Y-112461106D01*
X46467184Y-112576371D01*
X46369151Y-112674404D01*
X46253886Y-112751421D01*
X46189845Y-112777948D01*
X46125805Y-112804474D01*
X46057820Y-112817997D01*
X45989837Y-112831520D01*
X45851203Y-112831520D01*
X45783220Y-112817997D01*
X45715235Y-112804474D01*
X45651195Y-112777948D01*
X45587154Y-112751421D01*
X45471889Y-112674404D01*
X45373856Y-112576371D01*
X45296839Y-112461106D01*
X45243786Y-112333024D01*
X45216740Y-112197057D01*
X45216740Y-112058423D01*
X45243786Y-111922456D01*
X45296839Y-111794374D01*
X45373856Y-111679109D01*
X45471889Y-111581076D01*
X45587154Y-111504059D01*
X45651195Y-111477532D01*
X45715235Y-111451006D01*
X45851203Y-111423960D01*
X45989837Y-111423960D01*
X46125805Y-111451006D01*
X46125805Y-111451006D01*
G37*
G36*
X106381642Y-110076781D02*
G01*
X106527414Y-110137162D01*
X106527416Y-110137163D01*
X106658608Y-110224822D01*
X106770178Y-110336392D01*
X106857837Y-110467584D01*
X106857838Y-110467586D01*
X106918219Y-110613358D01*
X106949000Y-110768107D01*
X106949000Y-110925893D01*
X106918219Y-111080642D01*
X106857838Y-111226414D01*
X106857837Y-111226416D01*
X106770178Y-111357608D01*
X106658608Y-111469178D01*
X106527416Y-111556837D01*
X106527415Y-111556838D01*
X106527414Y-111556838D01*
X106381642Y-111617219D01*
X106226893Y-111648000D01*
X106069107Y-111648000D01*
X105914358Y-111617219D01*
X105768586Y-111556838D01*
X105768585Y-111556838D01*
X105768584Y-111556837D01*
X105637392Y-111469178D01*
X105525822Y-111357608D01*
X105438163Y-111226416D01*
X105438162Y-111226414D01*
X105377781Y-111080642D01*
X105347000Y-110925893D01*
X105347000Y-110768107D01*
X105377781Y-110613358D01*
X105438162Y-110467586D01*
X105438163Y-110467584D01*
X105525822Y-110336392D01*
X105637392Y-110224822D01*
X105768584Y-110137163D01*
X105768586Y-110137162D01*
X105914358Y-110076781D01*
X106069107Y-110046000D01*
X106226893Y-110046000D01*
X106381642Y-110076781D01*
X106381642Y-110076781D01*
G37*
G36*
X101199000Y-111076000D02*
G01*
X100297000Y-111076000D01*
X100297000Y-110074000D01*
X101199000Y-110074000D01*
X101199000Y-111076000D01*
X101199000Y-111076000D01*
G37*
G36*
X99299000Y-111076000D02*
G01*
X98397000Y-111076000D01*
X98397000Y-110074000D01*
X99299000Y-110074000D01*
X99299000Y-111076000D01*
X99299000Y-111076000D01*
G37*
G36*
X91000562Y-108370181D02*
G01*
X91035481Y-108380774D01*
X91067663Y-108397976D01*
X91095873Y-108421127D01*
X91119024Y-108449337D01*
X91136226Y-108481519D01*
X91146819Y-108516438D01*
X91151000Y-108558895D01*
X91151000Y-109700105D01*
X91146819Y-109742562D01*
X91136226Y-109777481D01*
X91119024Y-109809663D01*
X91095873Y-109837873D01*
X91067663Y-109861024D01*
X91035481Y-109878226D01*
X91000562Y-109888819D01*
X90958105Y-109893000D01*
X89491895Y-109893000D01*
X89449438Y-109888819D01*
X89414519Y-109878226D01*
X89382337Y-109861024D01*
X89354127Y-109837873D01*
X89330976Y-109809663D01*
X89313774Y-109777481D01*
X89303181Y-109742562D01*
X89299000Y-109700105D01*
X89299000Y-108558895D01*
X89303181Y-108516438D01*
X89313774Y-108481519D01*
X89330976Y-108449337D01*
X89354127Y-108421127D01*
X89382337Y-108397976D01*
X89414519Y-108380774D01*
X89449438Y-108370181D01*
X89491895Y-108366000D01*
X90958105Y-108366000D01*
X91000562Y-108370181D01*
X91000562Y-108370181D01*
G37*
G36*
X109120585Y-106275802D02*
G01*
X109270410Y-106305604D01*
X109552674Y-106422521D01*
X109806705Y-106592259D01*
X110022741Y-106808295D01*
X110192479Y-107062326D01*
X110309396Y-107344590D01*
X110369000Y-107644240D01*
X110369000Y-107949760D01*
X110309396Y-108249410D01*
X110192479Y-108531674D01*
X110022741Y-108785705D01*
X109806705Y-109001741D01*
X109552674Y-109171479D01*
X109270410Y-109288396D01*
X109120585Y-109318198D01*
X108970761Y-109348000D01*
X108665239Y-109348000D01*
X108515415Y-109318198D01*
X108365590Y-109288396D01*
X108083326Y-109171479D01*
X107829295Y-109001741D01*
X107613259Y-108785705D01*
X107443521Y-108531674D01*
X107326604Y-108249410D01*
X107267000Y-107949760D01*
X107267000Y-107644240D01*
X107326604Y-107344590D01*
X107443521Y-107062326D01*
X107613259Y-106808295D01*
X107829295Y-106592259D01*
X108083326Y-106422521D01*
X108365590Y-106305604D01*
X108515415Y-106275802D01*
X108665239Y-106246000D01*
X108970761Y-106246000D01*
X109120585Y-106275802D01*
X109120585Y-106275802D01*
G37*
G36*
X100249000Y-109076000D02*
G01*
X99347000Y-109076000D01*
X99347000Y-108074000D01*
X100249000Y-108074000D01*
X100249000Y-109076000D01*
X100249000Y-109076000D01*
G37*
G36*
X87009499Y-107175445D02*
G01*
X87046995Y-107186820D01*
X87081554Y-107205292D01*
X87111847Y-107230153D01*
X87136708Y-107260446D01*
X87155180Y-107295005D01*
X87166555Y-107332501D01*
X87171000Y-107377638D01*
X87171000Y-108116362D01*
X87166555Y-108161499D01*
X87155180Y-108198995D01*
X87136708Y-108233554D01*
X87111847Y-108263847D01*
X87081554Y-108288708D01*
X87046995Y-108307180D01*
X87009499Y-108318555D01*
X86964362Y-108323000D01*
X86325638Y-108323000D01*
X86280501Y-108318555D01*
X86243005Y-108307180D01*
X86208446Y-108288708D01*
X86178153Y-108263847D01*
X86153292Y-108233554D01*
X86134820Y-108198995D01*
X86123445Y-108161499D01*
X86119000Y-108116362D01*
X86119000Y-107377638D01*
X86123445Y-107332501D01*
X86134820Y-107295005D01*
X86153292Y-107260446D01*
X86178153Y-107230153D01*
X86208446Y-107205292D01*
X86243005Y-107186820D01*
X86280501Y-107175445D01*
X86325638Y-107171000D01*
X86964362Y-107171000D01*
X87009499Y-107175445D01*
X87009499Y-107175445D01*
G37*
G36*
X82606000Y-107443000D02*
G01*
X78704000Y-107443000D01*
X78704000Y-105341000D01*
X82606000Y-105341000D01*
X82606000Y-107443000D01*
X82606000Y-107443000D01*
G37*
G36*
X91000562Y-105395181D02*
G01*
X91035481Y-105405774D01*
X91067663Y-105422976D01*
X91095873Y-105446127D01*
X91119024Y-105474337D01*
X91136226Y-105506519D01*
X91146819Y-105541438D01*
X91151000Y-105583895D01*
X91151000Y-106725105D01*
X91146819Y-106767562D01*
X91136226Y-106802481D01*
X91119024Y-106834663D01*
X91095873Y-106862873D01*
X91067663Y-106886024D01*
X91035481Y-106903226D01*
X91000562Y-106913819D01*
X90958105Y-106918000D01*
X89491895Y-106918000D01*
X89449438Y-106913819D01*
X89414519Y-106903226D01*
X89382337Y-106886024D01*
X89354127Y-106862873D01*
X89330976Y-106834663D01*
X89313774Y-106802481D01*
X89303181Y-106767562D01*
X89299000Y-106725105D01*
X89299000Y-105583895D01*
X89303181Y-105541438D01*
X89313774Y-105506519D01*
X89330976Y-105474337D01*
X89354127Y-105446127D01*
X89382337Y-105422976D01*
X89414519Y-105405774D01*
X89449438Y-105395181D01*
X89491895Y-105391000D01*
X90958105Y-105391000D01*
X91000562Y-105395181D01*
X91000562Y-105395181D01*
G37*
G36*
X87009499Y-105425445D02*
G01*
X87046995Y-105436820D01*
X87081554Y-105455292D01*
X87111847Y-105480153D01*
X87136708Y-105510446D01*
X87155180Y-105545005D01*
X87166555Y-105582501D01*
X87171000Y-105627638D01*
X87171000Y-106366362D01*
X87166555Y-106411499D01*
X87155180Y-106448995D01*
X87136708Y-106483554D01*
X87111847Y-106513847D01*
X87081554Y-106538708D01*
X87046995Y-106557180D01*
X87009499Y-106568555D01*
X86964362Y-106573000D01*
X86325638Y-106573000D01*
X86280501Y-106568555D01*
X86243005Y-106557180D01*
X86208446Y-106538708D01*
X86178153Y-106513847D01*
X86153292Y-106483554D01*
X86134820Y-106448995D01*
X86123445Y-106411499D01*
X86119000Y-106366362D01*
X86119000Y-105627638D01*
X86123445Y-105582501D01*
X86134820Y-105545005D01*
X86153292Y-105510446D01*
X86178153Y-105480153D01*
X86208446Y-105455292D01*
X86243005Y-105436820D01*
X86280501Y-105425445D01*
X86325638Y-105421000D01*
X86964362Y-105421000D01*
X87009499Y-105425445D01*
X87009499Y-105425445D01*
G37*
G36*
X62125265Y-87054306D02*
G01*
X62189305Y-87080833D01*
X62253346Y-87107359D01*
X62368611Y-87184376D01*
X62466644Y-87282409D01*
X62543661Y-87397674D01*
X62596714Y-87525756D01*
X62623760Y-87661723D01*
X62623760Y-87800357D01*
X62596714Y-87936324D01*
X62543661Y-88064406D01*
X62466644Y-88179671D01*
X62368611Y-88277704D01*
X62253346Y-88354721D01*
X62189305Y-88381248D01*
X62125265Y-88407774D01*
X62057280Y-88421297D01*
X61989297Y-88434820D01*
X61850663Y-88434820D01*
X61782680Y-88421297D01*
X61714695Y-88407774D01*
X61650655Y-88381248D01*
X61586614Y-88354721D01*
X61471349Y-88277704D01*
X61373316Y-88179671D01*
X61296299Y-88064406D01*
X61243246Y-87936324D01*
X61216200Y-87800357D01*
X61216200Y-87661723D01*
X61243246Y-87525756D01*
X61296299Y-87397674D01*
X61373316Y-87282409D01*
X61471349Y-87184376D01*
X61586614Y-87107359D01*
X61650655Y-87080833D01*
X61714695Y-87054306D01*
X61850663Y-87027260D01*
X61989297Y-87027260D01*
X62125265Y-87054306D01*
X62125265Y-87054306D01*
G37*
G36*
X66621720Y-88434820D02*
G01*
X65214160Y-88434820D01*
X65214160Y-87027260D01*
X66621720Y-87027260D01*
X66621720Y-88434820D01*
X66621720Y-88434820D01*
G37*
G36*
X64124245Y-87054306D02*
G01*
X64188285Y-87080833D01*
X64252326Y-87107359D01*
X64367591Y-87184376D01*
X64465624Y-87282409D01*
X64542641Y-87397674D01*
X64595694Y-87525756D01*
X64622740Y-87661723D01*
X64622740Y-87800357D01*
X64595694Y-87936324D01*
X64542641Y-88064406D01*
X64465624Y-88179671D01*
X64367591Y-88277704D01*
X64252326Y-88354721D01*
X64188285Y-88381248D01*
X64124245Y-88407774D01*
X64056260Y-88421297D01*
X63988277Y-88434820D01*
X63849643Y-88434820D01*
X63781660Y-88421297D01*
X63713675Y-88407774D01*
X63649635Y-88381248D01*
X63585594Y-88354721D01*
X63470329Y-88277704D01*
X63372296Y-88179671D01*
X63295279Y-88064406D01*
X63242226Y-87936324D01*
X63215180Y-87800357D01*
X63215180Y-87661723D01*
X63242226Y-87525756D01*
X63295279Y-87397674D01*
X63372296Y-87282409D01*
X63470329Y-87184376D01*
X63585594Y-87107359D01*
X63649635Y-87080833D01*
X63713675Y-87054306D01*
X63849643Y-87027260D01*
X63988277Y-87027260D01*
X64124245Y-87054306D01*
X64124245Y-87054306D01*
G37*
G36*
X60123745Y-87054306D02*
G01*
X60187785Y-87080833D01*
X60251826Y-87107359D01*
X60367091Y-87184376D01*
X60465124Y-87282409D01*
X60542141Y-87397674D01*
X60595194Y-87525756D01*
X60622240Y-87661723D01*
X60622240Y-87800357D01*
X60595194Y-87936324D01*
X60542141Y-88064406D01*
X60465124Y-88179671D01*
X60367091Y-88277704D01*
X60251826Y-88354721D01*
X60187785Y-88381248D01*
X60123745Y-88407774D01*
X60055760Y-88421297D01*
X59987777Y-88434820D01*
X59849143Y-88434820D01*
X59781160Y-88421297D01*
X59713175Y-88407774D01*
X59649135Y-88381248D01*
X59585094Y-88354721D01*
X59469829Y-88277704D01*
X59371796Y-88179671D01*
X59294779Y-88064406D01*
X59241726Y-87936324D01*
X59214680Y-87800357D01*
X59214680Y-87661723D01*
X59241726Y-87525756D01*
X59294779Y-87397674D01*
X59371796Y-87282409D01*
X59469829Y-87184376D01*
X59585094Y-87107359D01*
X59649135Y-87080833D01*
X59713175Y-87054306D01*
X59849143Y-87027260D01*
X59987777Y-87027260D01*
X60123745Y-87054306D01*
X60123745Y-87054306D01*
G37*
G36*
X58124765Y-87054306D02*
G01*
X58188805Y-87080833D01*
X58252846Y-87107359D01*
X58368111Y-87184376D01*
X58466144Y-87282409D01*
X58543161Y-87397674D01*
X58596214Y-87525756D01*
X58623260Y-87661723D01*
X58623260Y-87800357D01*
X58596214Y-87936324D01*
X58543161Y-88064406D01*
X58466144Y-88179671D01*
X58368111Y-88277704D01*
X58252846Y-88354721D01*
X58188805Y-88381248D01*
X58124765Y-88407774D01*
X58056780Y-88421297D01*
X57988797Y-88434820D01*
X57850163Y-88434820D01*
X57782180Y-88421297D01*
X57714195Y-88407774D01*
X57650155Y-88381248D01*
X57586114Y-88354721D01*
X57470849Y-88277704D01*
X57372816Y-88179671D01*
X57295799Y-88064406D01*
X57242746Y-87936324D01*
X57215700Y-87800357D01*
X57215700Y-87661723D01*
X57242746Y-87525756D01*
X57295799Y-87397674D01*
X57372816Y-87282409D01*
X57470849Y-87184376D01*
X57586114Y-87107359D01*
X57650155Y-87080833D01*
X57714195Y-87054306D01*
X57850163Y-87027260D01*
X57988797Y-87027260D01*
X58124765Y-87054306D01*
X58124765Y-87054306D01*
G37*
G36*
X56123245Y-87054306D02*
G01*
X56187285Y-87080833D01*
X56251326Y-87107359D01*
X56366591Y-87184376D01*
X56464624Y-87282409D01*
X56541641Y-87397674D01*
X56594694Y-87525756D01*
X56621740Y-87661723D01*
X56621740Y-87800357D01*
X56594694Y-87936324D01*
X56541641Y-88064406D01*
X56464624Y-88179671D01*
X56366591Y-88277704D01*
X56251326Y-88354721D01*
X56187285Y-88381248D01*
X56123245Y-88407774D01*
X56055260Y-88421297D01*
X55987277Y-88434820D01*
X55848643Y-88434820D01*
X55780660Y-88421297D01*
X55712675Y-88407774D01*
X55648635Y-88381248D01*
X55584594Y-88354721D01*
X55469329Y-88277704D01*
X55371296Y-88179671D01*
X55294279Y-88064406D01*
X55241226Y-87936324D01*
X55214180Y-87800357D01*
X55214180Y-87661723D01*
X55241226Y-87525756D01*
X55294279Y-87397674D01*
X55371296Y-87282409D01*
X55469329Y-87184376D01*
X55584594Y-87107359D01*
X55648635Y-87080833D01*
X55712675Y-87054306D01*
X55848643Y-87027260D01*
X55987277Y-87027260D01*
X56123245Y-87054306D01*
X56123245Y-87054306D01*
G37*
G36*
X54124265Y-87054306D02*
G01*
X54188305Y-87080833D01*
X54252346Y-87107359D01*
X54367611Y-87184376D01*
X54465644Y-87282409D01*
X54542661Y-87397674D01*
X54595714Y-87525756D01*
X54622760Y-87661723D01*
X54622760Y-87800357D01*
X54595714Y-87936324D01*
X54542661Y-88064406D01*
X54465644Y-88179671D01*
X54367611Y-88277704D01*
X54252346Y-88354721D01*
X54188305Y-88381248D01*
X54124265Y-88407774D01*
X54056280Y-88421297D01*
X53988297Y-88434820D01*
X53849663Y-88434820D01*
X53781680Y-88421297D01*
X53713695Y-88407774D01*
X53649655Y-88381248D01*
X53585614Y-88354721D01*
X53470349Y-88277704D01*
X53372316Y-88179671D01*
X53295299Y-88064406D01*
X53242246Y-87936324D01*
X53215200Y-87800357D01*
X53215200Y-87661723D01*
X53242246Y-87525756D01*
X53295299Y-87397674D01*
X53372316Y-87282409D01*
X53470349Y-87184376D01*
X53585614Y-87107359D01*
X53649655Y-87080833D01*
X53713695Y-87054306D01*
X53849663Y-87027260D01*
X53988297Y-87027260D01*
X54124265Y-87054306D01*
X54124265Y-87054306D01*
G37*
G36*
X52125285Y-87054306D02*
G01*
X52189325Y-87080833D01*
X52253366Y-87107359D01*
X52368631Y-87184376D01*
X52466664Y-87282409D01*
X52543681Y-87397674D01*
X52596734Y-87525756D01*
X52623780Y-87661723D01*
X52623780Y-87800357D01*
X52596734Y-87936324D01*
X52543681Y-88064406D01*
X52466664Y-88179671D01*
X52368631Y-88277704D01*
X52253366Y-88354721D01*
X52189325Y-88381248D01*
X52125285Y-88407774D01*
X52057300Y-88421297D01*
X51989317Y-88434820D01*
X51850683Y-88434820D01*
X51782700Y-88421297D01*
X51714715Y-88407774D01*
X51650675Y-88381248D01*
X51586634Y-88354721D01*
X51471369Y-88277704D01*
X51373336Y-88179671D01*
X51296319Y-88064406D01*
X51243266Y-87936324D01*
X51216220Y-87800357D01*
X51216220Y-87661723D01*
X51243266Y-87525756D01*
X51296319Y-87397674D01*
X51373336Y-87282409D01*
X51471369Y-87184376D01*
X51586634Y-87107359D01*
X51650675Y-87080833D01*
X51714715Y-87054306D01*
X51850683Y-87027260D01*
X51989317Y-87027260D01*
X52125285Y-87054306D01*
X52125285Y-87054306D01*
G37*
G36*
X48127325Y-87054306D02*
G01*
X48191365Y-87080833D01*
X48255406Y-87107359D01*
X48370671Y-87184376D01*
X48468704Y-87282409D01*
X48545721Y-87397674D01*
X48598774Y-87525756D01*
X48625820Y-87661723D01*
X48625820Y-87800357D01*
X48598774Y-87936324D01*
X48545721Y-88064406D01*
X48468704Y-88179671D01*
X48370671Y-88277704D01*
X48255406Y-88354721D01*
X48191365Y-88381248D01*
X48127325Y-88407774D01*
X48059340Y-88421297D01*
X47991357Y-88434820D01*
X47852723Y-88434820D01*
X47784740Y-88421297D01*
X47716755Y-88407774D01*
X47652715Y-88381248D01*
X47588674Y-88354721D01*
X47473409Y-88277704D01*
X47375376Y-88179671D01*
X47298359Y-88064406D01*
X47245306Y-87936324D01*
X47218260Y-87800357D01*
X47218260Y-87661723D01*
X47245306Y-87525756D01*
X47298359Y-87397674D01*
X47375376Y-87282409D01*
X47473409Y-87184376D01*
X47588674Y-87107359D01*
X47652715Y-87080833D01*
X47716755Y-87054306D01*
X47852723Y-87027260D01*
X47991357Y-87027260D01*
X48127325Y-87054306D01*
X48127325Y-87054306D01*
G37*
G36*
X46125805Y-87054306D02*
G01*
X46189845Y-87080833D01*
X46253886Y-87107359D01*
X46369151Y-87184376D01*
X46467184Y-87282409D01*
X46544201Y-87397674D01*
X46597254Y-87525756D01*
X46624300Y-87661723D01*
X46624300Y-87800357D01*
X46597254Y-87936324D01*
X46544201Y-88064406D01*
X46467184Y-88179671D01*
X46369151Y-88277704D01*
X46253886Y-88354721D01*
X46189845Y-88381248D01*
X46125805Y-88407774D01*
X46057820Y-88421297D01*
X45989837Y-88434820D01*
X45851203Y-88434820D01*
X45783220Y-88421297D01*
X45715235Y-88407774D01*
X45651195Y-88381248D01*
X45587154Y-88354721D01*
X45471889Y-88277704D01*
X45373856Y-88179671D01*
X45296839Y-88064406D01*
X45243786Y-87936324D01*
X45216740Y-87800357D01*
X45216740Y-87661723D01*
X45243786Y-87525756D01*
X45296839Y-87397674D01*
X45373856Y-87282409D01*
X45471889Y-87184376D01*
X45587154Y-87107359D01*
X45651195Y-87080833D01*
X45715235Y-87054306D01*
X45851203Y-87027260D01*
X45989837Y-87027260D01*
X46125805Y-87054306D01*
X46125805Y-87054306D01*
G37*
G36*
X44126825Y-87054306D02*
G01*
X44190865Y-87080833D01*
X44254906Y-87107359D01*
X44370171Y-87184376D01*
X44468204Y-87282409D01*
X44545221Y-87397674D01*
X44598274Y-87525756D01*
X44625320Y-87661723D01*
X44625320Y-87800357D01*
X44598274Y-87936324D01*
X44545221Y-88064406D01*
X44468204Y-88179671D01*
X44370171Y-88277704D01*
X44254906Y-88354721D01*
X44190865Y-88381248D01*
X44126825Y-88407774D01*
X44058840Y-88421297D01*
X43990857Y-88434820D01*
X43852223Y-88434820D01*
X43784240Y-88421297D01*
X43716255Y-88407774D01*
X43652215Y-88381248D01*
X43588174Y-88354721D01*
X43472909Y-88277704D01*
X43374876Y-88179671D01*
X43297859Y-88064406D01*
X43244806Y-87936324D01*
X43217760Y-87800357D01*
X43217760Y-87661723D01*
X43244806Y-87525756D01*
X43297859Y-87397674D01*
X43374876Y-87282409D01*
X43472909Y-87184376D01*
X43588174Y-87107359D01*
X43652215Y-87080833D01*
X43716255Y-87054306D01*
X43852223Y-87027260D01*
X43990857Y-87027260D01*
X44126825Y-87054306D01*
X44126825Y-87054306D01*
G37*
G36*
X42125305Y-87054306D02*
G01*
X42189345Y-87080833D01*
X42253386Y-87107359D01*
X42368651Y-87184376D01*
X42466684Y-87282409D01*
X42543701Y-87397674D01*
X42596754Y-87525756D01*
X42623800Y-87661723D01*
X42623800Y-87800357D01*
X42596754Y-87936324D01*
X42543701Y-88064406D01*
X42466684Y-88179671D01*
X42368651Y-88277704D01*
X42253386Y-88354721D01*
X42189345Y-88381248D01*
X42125305Y-88407774D01*
X42057320Y-88421297D01*
X41989337Y-88434820D01*
X41850703Y-88434820D01*
X41782720Y-88421297D01*
X41714735Y-88407774D01*
X41650695Y-88381248D01*
X41586654Y-88354721D01*
X41471389Y-88277704D01*
X41373356Y-88179671D01*
X41296339Y-88064406D01*
X41243286Y-87936324D01*
X41216240Y-87800357D01*
X41216240Y-87661723D01*
X41243286Y-87525756D01*
X41296339Y-87397674D01*
X41373356Y-87282409D01*
X41471389Y-87184376D01*
X41586654Y-87107359D01*
X41650695Y-87080833D01*
X41714735Y-87054306D01*
X41850703Y-87027260D01*
X41989337Y-87027260D01*
X42125305Y-87054306D01*
X42125305Y-87054306D01*
G37*
G36*
X40126325Y-87054306D02*
G01*
X40190365Y-87080833D01*
X40254406Y-87107359D01*
X40369671Y-87184376D01*
X40467704Y-87282409D01*
X40544721Y-87397674D01*
X40597774Y-87525756D01*
X40624820Y-87661723D01*
X40624820Y-87800357D01*
X40597774Y-87936324D01*
X40544721Y-88064406D01*
X40467704Y-88179671D01*
X40369671Y-88277704D01*
X40254406Y-88354721D01*
X40190365Y-88381248D01*
X40126325Y-88407774D01*
X40058340Y-88421297D01*
X39990357Y-88434820D01*
X39851723Y-88434820D01*
X39783740Y-88421297D01*
X39715755Y-88407774D01*
X39651715Y-88381248D01*
X39587674Y-88354721D01*
X39472409Y-88277704D01*
X39374376Y-88179671D01*
X39297359Y-88064406D01*
X39244306Y-87936324D01*
X39217260Y-87800357D01*
X39217260Y-87661723D01*
X39244306Y-87525756D01*
X39297359Y-87397674D01*
X39374376Y-87282409D01*
X39472409Y-87184376D01*
X39587674Y-87107359D01*
X39651715Y-87080833D01*
X39715755Y-87054306D01*
X39851723Y-87027260D01*
X39990357Y-87027260D01*
X40126325Y-87054306D01*
X40126325Y-87054306D01*
G37*
G36*
X38127345Y-87054306D02*
G01*
X38191385Y-87080833D01*
X38255426Y-87107359D01*
X38370691Y-87184376D01*
X38468724Y-87282409D01*
X38545741Y-87397674D01*
X38598794Y-87525756D01*
X38625840Y-87661723D01*
X38625840Y-87800357D01*
X38598794Y-87936324D01*
X38545741Y-88064406D01*
X38468724Y-88179671D01*
X38370691Y-88277704D01*
X38255426Y-88354721D01*
X38191385Y-88381248D01*
X38127345Y-88407774D01*
X38059360Y-88421297D01*
X37991377Y-88434820D01*
X37852743Y-88434820D01*
X37784760Y-88421297D01*
X37716775Y-88407774D01*
X37652735Y-88381248D01*
X37588694Y-88354721D01*
X37473429Y-88277704D01*
X37375396Y-88179671D01*
X37298379Y-88064406D01*
X37245326Y-87936324D01*
X37218280Y-87800357D01*
X37218280Y-87661723D01*
X37245326Y-87525756D01*
X37298379Y-87397674D01*
X37375396Y-87282409D01*
X37473429Y-87184376D01*
X37588694Y-87107359D01*
X37652735Y-87080833D01*
X37716775Y-87054306D01*
X37852743Y-87027260D01*
X37991377Y-87027260D01*
X38127345Y-87054306D01*
X38127345Y-87054306D01*
G37*
G36*
X36125825Y-87054306D02*
G01*
X36189865Y-87080833D01*
X36253906Y-87107359D01*
X36369171Y-87184376D01*
X36467204Y-87282409D01*
X36544221Y-87397674D01*
X36597274Y-87525756D01*
X36624320Y-87661723D01*
X36624320Y-87800357D01*
X36597274Y-87936324D01*
X36544221Y-88064406D01*
X36467204Y-88179671D01*
X36369171Y-88277704D01*
X36253906Y-88354721D01*
X36189865Y-88381248D01*
X36125825Y-88407774D01*
X36057840Y-88421297D01*
X35989857Y-88434820D01*
X35851223Y-88434820D01*
X35783240Y-88421297D01*
X35715255Y-88407774D01*
X35651215Y-88381248D01*
X35587174Y-88354721D01*
X35471909Y-88277704D01*
X35373876Y-88179671D01*
X35296859Y-88064406D01*
X35243806Y-87936324D01*
X35216760Y-87800357D01*
X35216760Y-87661723D01*
X35243806Y-87525756D01*
X35296859Y-87397674D01*
X35373876Y-87282409D01*
X35471909Y-87184376D01*
X35587174Y-87107359D01*
X35651215Y-87080833D01*
X35715255Y-87054306D01*
X35851223Y-87027260D01*
X35989857Y-87027260D01*
X36125825Y-87054306D01*
X36125825Y-87054306D01*
G37*
G36*
X50126305Y-87054306D02*
G01*
X50190345Y-87080833D01*
X50254386Y-87107359D01*
X50369651Y-87184376D01*
X50467684Y-87282409D01*
X50544701Y-87397674D01*
X50597754Y-87525756D01*
X50624800Y-87661723D01*
X50624800Y-87800357D01*
X50597754Y-87936324D01*
X50544701Y-88064406D01*
X50467684Y-88179671D01*
X50369651Y-88277704D01*
X50254386Y-88354721D01*
X50190345Y-88381248D01*
X50126305Y-88407774D01*
X50058320Y-88421297D01*
X49990337Y-88434820D01*
X49851703Y-88434820D01*
X49783720Y-88421297D01*
X49715735Y-88407774D01*
X49651695Y-88381248D01*
X49587654Y-88354721D01*
X49472389Y-88277704D01*
X49374356Y-88179671D01*
X49297339Y-88064406D01*
X49244286Y-87936324D01*
X49217240Y-87800357D01*
X49217240Y-87661723D01*
X49244286Y-87525756D01*
X49297339Y-87397674D01*
X49374356Y-87282409D01*
X49472389Y-87184376D01*
X49587654Y-87107359D01*
X49651695Y-87080833D01*
X49715735Y-87054306D01*
X49851703Y-87027260D01*
X49990337Y-87027260D01*
X50126305Y-87054306D01*
X50126305Y-87054306D01*
G37*
G36*
X114563512Y-80903927D02*
G01*
X114712812Y-80933624D01*
X114876784Y-81001544D01*
X115024354Y-81100147D01*
X115149853Y-81225646D01*
X115248456Y-81373216D01*
X115316376Y-81537188D01*
X115351000Y-81711259D01*
X115351000Y-81888741D01*
X115316376Y-82062812D01*
X115248456Y-82226784D01*
X115149853Y-82374354D01*
X115024354Y-82499853D01*
X114876784Y-82598456D01*
X114712812Y-82666376D01*
X114563512Y-82696073D01*
X114538742Y-82701000D01*
X114361258Y-82701000D01*
X114336488Y-82696073D01*
X114187188Y-82666376D01*
X114023216Y-82598456D01*
X113875646Y-82499853D01*
X113750147Y-82374354D01*
X113651544Y-82226784D01*
X113583624Y-82062812D01*
X113549000Y-81888741D01*
X113549000Y-81711259D01*
X113583624Y-81537188D01*
X113651544Y-81373216D01*
X113750147Y-81225646D01*
X113875646Y-81100147D01*
X114023216Y-81001544D01*
X114187188Y-80933624D01*
X114336488Y-80903927D01*
X114361258Y-80899000D01*
X114538742Y-80899000D01*
X114563512Y-80903927D01*
X114563512Y-80903927D01*
G37*
G36*
X107563512Y-80903927D02*
G01*
X107712812Y-80933624D01*
X107876784Y-81001544D01*
X108024354Y-81100147D01*
X108149853Y-81225646D01*
X108248456Y-81373216D01*
X108316376Y-81537188D01*
X108351000Y-81711259D01*
X108351000Y-81888741D01*
X108316376Y-82062812D01*
X108248456Y-82226784D01*
X108149853Y-82374354D01*
X108024354Y-82499853D01*
X107876784Y-82598456D01*
X107712812Y-82666376D01*
X107563512Y-82696073D01*
X107538742Y-82701000D01*
X107361258Y-82701000D01*
X107336488Y-82696073D01*
X107187188Y-82666376D01*
X107023216Y-82598456D01*
X106875646Y-82499853D01*
X106750147Y-82374354D01*
X106651544Y-82226784D01*
X106583624Y-82062812D01*
X106549000Y-81888741D01*
X106549000Y-81711259D01*
X106583624Y-81537188D01*
X106651544Y-81373216D01*
X106750147Y-81225646D01*
X106875646Y-81100147D01*
X107023216Y-81001544D01*
X107187188Y-80933624D01*
X107336488Y-80903927D01*
X107361258Y-80899000D01*
X107538742Y-80899000D01*
X107563512Y-80903927D01*
X107563512Y-80903927D01*
G37*
G36*
X113693000Y-63751000D02*
G01*
X108511000Y-63751000D01*
X108511000Y-61109000D01*
X113693000Y-61109000D01*
X113693000Y-63751000D01*
X113693000Y-63751000D01*
G37*
G36*
X112070800Y-42101803D02*
G01*
X113582994Y-42402597D01*
X115210152Y-43076588D01*
X116674555Y-44055072D01*
X117919928Y-45300445D01*
X118898412Y-46764848D01*
X119572403Y-48392006D01*
X119916000Y-50119388D01*
X119916000Y-51880612D01*
X119572403Y-53607994D01*
X118898412Y-55235152D01*
X117919928Y-56699555D01*
X116674555Y-57944928D01*
X115210152Y-58923412D01*
X113582994Y-59597403D01*
X112070800Y-59898197D01*
X111855613Y-59941000D01*
X110094387Y-59941000D01*
X109879200Y-59898197D01*
X108367006Y-59597403D01*
X106739848Y-58923412D01*
X105275445Y-57944928D01*
X104030072Y-56699555D01*
X103051588Y-55235152D01*
X102377597Y-53607994D01*
X102034000Y-51880612D01*
X102034000Y-50119388D01*
X102377597Y-48392006D01*
X103051588Y-46764848D01*
X104030072Y-45300445D01*
X105275445Y-44055072D01*
X106739848Y-43076588D01*
X108367006Y-42402597D01*
X109879200Y-42101803D01*
X110094387Y-42059000D01*
X111855613Y-42059000D01*
X112070800Y-42101803D01*
X112070800Y-42101803D01*
G37*
G36*
X113693000Y-40891000D02*
G01*
X108511000Y-40891000D01*
X108511000Y-38249000D01*
X113693000Y-38249000D01*
X113693000Y-40891000D01*
X113693000Y-40891000D01*
G37*
G36*
X34001000Y-35476000D02*
G01*
X32199000Y-35476000D01*
X32199000Y-33674000D01*
X34001000Y-33674000D01*
X34001000Y-35476000D01*
X34001000Y-35476000D01*
G37*
G36*
X48450443Y-33680519D02*
G01*
X48516627Y-33687037D01*
X48686466Y-33738557D01*
X48842991Y-33822222D01*
X48878729Y-33851552D01*
X48980186Y-33934814D01*
X49063448Y-34036271D01*
X49092778Y-34072009D01*
X49176443Y-34228534D01*
X49227963Y-34398373D01*
X49245359Y-34575000D01*
X49227963Y-34751627D01*
X49176443Y-34921466D01*
X49092778Y-35077991D01*
X49063448Y-35113729D01*
X48980186Y-35215186D01*
X48878729Y-35298448D01*
X48842991Y-35327778D01*
X48686466Y-35411443D01*
X48516627Y-35462963D01*
X48450443Y-35469481D01*
X48384260Y-35476000D01*
X48295740Y-35476000D01*
X48229557Y-35469481D01*
X48163373Y-35462963D01*
X47993534Y-35411443D01*
X47837009Y-35327778D01*
X47801271Y-35298448D01*
X47699814Y-35215186D01*
X47616552Y-35113729D01*
X47587222Y-35077991D01*
X47503557Y-34921466D01*
X47452037Y-34751627D01*
X47434641Y-34575000D01*
X47452037Y-34398373D01*
X47503557Y-34228534D01*
X47587222Y-34072009D01*
X47616552Y-34036271D01*
X47699814Y-33934814D01*
X47801271Y-33851552D01*
X47837009Y-33822222D01*
X47993534Y-33738557D01*
X48163373Y-33687037D01*
X48229557Y-33680519D01*
X48295740Y-33674000D01*
X48384260Y-33674000D01*
X48450443Y-33680519D01*
X48450443Y-33680519D01*
G37*
G36*
X40830443Y-33680519D02*
G01*
X40896627Y-33687037D01*
X41066466Y-33738557D01*
X41222991Y-33822222D01*
X41258729Y-33851552D01*
X41360186Y-33934814D01*
X41443448Y-34036271D01*
X41472778Y-34072009D01*
X41556443Y-34228534D01*
X41607963Y-34398373D01*
X41625359Y-34575000D01*
X41607963Y-34751627D01*
X41556443Y-34921466D01*
X41472778Y-35077991D01*
X41443448Y-35113729D01*
X41360186Y-35215186D01*
X41258729Y-35298448D01*
X41222991Y-35327778D01*
X41066466Y-35411443D01*
X40896627Y-35462963D01*
X40830443Y-35469481D01*
X40764260Y-35476000D01*
X40675740Y-35476000D01*
X40609557Y-35469481D01*
X40543373Y-35462963D01*
X40373534Y-35411443D01*
X40217009Y-35327778D01*
X40181271Y-35298448D01*
X40079814Y-35215186D01*
X39996552Y-35113729D01*
X39967222Y-35077991D01*
X39883557Y-34921466D01*
X39832037Y-34751627D01*
X39814641Y-34575000D01*
X39832037Y-34398373D01*
X39883557Y-34228534D01*
X39967222Y-34072009D01*
X39996552Y-34036271D01*
X40079814Y-33934814D01*
X40181271Y-33851552D01*
X40217009Y-33822222D01*
X40373534Y-33738557D01*
X40543373Y-33687037D01*
X40609557Y-33680519D01*
X40675740Y-33674000D01*
X40764260Y-33674000D01*
X40830443Y-33680519D01*
X40830443Y-33680519D01*
G37*
G36*
X35750443Y-33680519D02*
G01*
X35816627Y-33687037D01*
X35986466Y-33738557D01*
X36142991Y-33822222D01*
X36178729Y-33851552D01*
X36280186Y-33934814D01*
X36363448Y-34036271D01*
X36392778Y-34072009D01*
X36476443Y-34228534D01*
X36527963Y-34398373D01*
X36545359Y-34575000D01*
X36527963Y-34751627D01*
X36476443Y-34921466D01*
X36392778Y-35077991D01*
X36363448Y-35113729D01*
X36280186Y-35215186D01*
X36178729Y-35298448D01*
X36142991Y-35327778D01*
X35986466Y-35411443D01*
X35816627Y-35462963D01*
X35750443Y-35469481D01*
X35684260Y-35476000D01*
X35595740Y-35476000D01*
X35529557Y-35469481D01*
X35463373Y-35462963D01*
X35293534Y-35411443D01*
X35137009Y-35327778D01*
X35101271Y-35298448D01*
X34999814Y-35215186D01*
X34916552Y-35113729D01*
X34887222Y-35077991D01*
X34803557Y-34921466D01*
X34752037Y-34751627D01*
X34734641Y-34575000D01*
X34752037Y-34398373D01*
X34803557Y-34228534D01*
X34887222Y-34072009D01*
X34916552Y-34036271D01*
X34999814Y-33934814D01*
X35101271Y-33851552D01*
X35137009Y-33822222D01*
X35293534Y-33738557D01*
X35463373Y-33687037D01*
X35529557Y-33680519D01*
X35595740Y-33674000D01*
X35684260Y-33674000D01*
X35750443Y-33680519D01*
X35750443Y-33680519D01*
G37*
G36*
X38290443Y-33680519D02*
G01*
X38356627Y-33687037D01*
X38526466Y-33738557D01*
X38682991Y-33822222D01*
X38718729Y-33851552D01*
X38820186Y-33934814D01*
X38903448Y-34036271D01*
X38932778Y-34072009D01*
X39016443Y-34228534D01*
X39067963Y-34398373D01*
X39085359Y-34575000D01*
X39067963Y-34751627D01*
X39016443Y-34921466D01*
X38932778Y-35077991D01*
X38903448Y-35113729D01*
X38820186Y-35215186D01*
X38718729Y-35298448D01*
X38682991Y-35327778D01*
X38526466Y-35411443D01*
X38356627Y-35462963D01*
X38290443Y-35469481D01*
X38224260Y-35476000D01*
X38135740Y-35476000D01*
X38069557Y-35469481D01*
X38003373Y-35462963D01*
X37833534Y-35411443D01*
X37677009Y-35327778D01*
X37641271Y-35298448D01*
X37539814Y-35215186D01*
X37456552Y-35113729D01*
X37427222Y-35077991D01*
X37343557Y-34921466D01*
X37292037Y-34751627D01*
X37274641Y-34575000D01*
X37292037Y-34398373D01*
X37343557Y-34228534D01*
X37427222Y-34072009D01*
X37456552Y-34036271D01*
X37539814Y-33934814D01*
X37641271Y-33851552D01*
X37677009Y-33822222D01*
X37833534Y-33738557D01*
X38003373Y-33687037D01*
X38069557Y-33680519D01*
X38135740Y-33674000D01*
X38224260Y-33674000D01*
X38290443Y-33680519D01*
X38290443Y-33680519D01*
G37*
G36*
X43370443Y-33680519D02*
G01*
X43436627Y-33687037D01*
X43606466Y-33738557D01*
X43762991Y-33822222D01*
X43798729Y-33851552D01*
X43900186Y-33934814D01*
X43983448Y-34036271D01*
X44012778Y-34072009D01*
X44096443Y-34228534D01*
X44147963Y-34398373D01*
X44165359Y-34575000D01*
X44147963Y-34751627D01*
X44096443Y-34921466D01*
X44012778Y-35077991D01*
X43983448Y-35113729D01*
X43900186Y-35215186D01*
X43798729Y-35298448D01*
X43762991Y-35327778D01*
X43606466Y-35411443D01*
X43436627Y-35462963D01*
X43370443Y-35469481D01*
X43304260Y-35476000D01*
X43215740Y-35476000D01*
X43149557Y-35469481D01*
X43083373Y-35462963D01*
X42913534Y-35411443D01*
X42757009Y-35327778D01*
X42721271Y-35298448D01*
X42619814Y-35215186D01*
X42536552Y-35113729D01*
X42507222Y-35077991D01*
X42423557Y-34921466D01*
X42372037Y-34751627D01*
X42354641Y-34575000D01*
X42372037Y-34398373D01*
X42423557Y-34228534D01*
X42507222Y-34072009D01*
X42536552Y-34036271D01*
X42619814Y-33934814D01*
X42721271Y-33851552D01*
X42757009Y-33822222D01*
X42913534Y-33738557D01*
X43083373Y-33687037D01*
X43149557Y-33680519D01*
X43215740Y-33674000D01*
X43304260Y-33674000D01*
X43370443Y-33680519D01*
X43370443Y-33680519D01*
G37*
G36*
X45910443Y-33680519D02*
G01*
X45976627Y-33687037D01*
X46146466Y-33738557D01*
X46302991Y-33822222D01*
X46338729Y-33851552D01*
X46440186Y-33934814D01*
X46523448Y-34036271D01*
X46552778Y-34072009D01*
X46636443Y-34228534D01*
X46687963Y-34398373D01*
X46705359Y-34575000D01*
X46687963Y-34751627D01*
X46636443Y-34921466D01*
X46552778Y-35077991D01*
X46523448Y-35113729D01*
X46440186Y-35215186D01*
X46338729Y-35298448D01*
X46302991Y-35327778D01*
X46146466Y-35411443D01*
X45976627Y-35462963D01*
X45910443Y-35469481D01*
X45844260Y-35476000D01*
X45755740Y-35476000D01*
X45689557Y-35469481D01*
X45623373Y-35462963D01*
X45453534Y-35411443D01*
X45297009Y-35327778D01*
X45261271Y-35298448D01*
X45159814Y-35215186D01*
X45076552Y-35113729D01*
X45047222Y-35077991D01*
X44963557Y-34921466D01*
X44912037Y-34751627D01*
X44894641Y-34575000D01*
X44912037Y-34398373D01*
X44963557Y-34228534D01*
X45047222Y-34072009D01*
X45076552Y-34036271D01*
X45159814Y-33934814D01*
X45261271Y-33851552D01*
X45297009Y-33822222D01*
X45453534Y-33738557D01*
X45623373Y-33687037D01*
X45689557Y-33680519D01*
X45755740Y-33674000D01*
X45844260Y-33674000D01*
X45910443Y-33680519D01*
X45910443Y-33680519D01*
G37*
G36*
X113904000Y-33902000D02*
G01*
X110302000Y-33902000D01*
X110302000Y-30300000D01*
X113904000Y-30300000D01*
X113904000Y-33902000D01*
X113904000Y-33902000D01*
G37*
G36*
X107904000Y-33902000D02*
G01*
X104302000Y-33902000D01*
X104302000Y-30300000D01*
X107904000Y-30300000D01*
X107904000Y-33902000D01*
X107904000Y-33902000D01*
G37*
G36*
X40830443Y-31140519D02*
G01*
X40896627Y-31147037D01*
X41066466Y-31198557D01*
X41222991Y-31282222D01*
X41258729Y-31311552D01*
X41360186Y-31394814D01*
X41443448Y-31496271D01*
X41472778Y-31532009D01*
X41556443Y-31688534D01*
X41607963Y-31858373D01*
X41625359Y-32035000D01*
X41607963Y-32211627D01*
X41556443Y-32381466D01*
X41472778Y-32537991D01*
X41443448Y-32573729D01*
X41360186Y-32675186D01*
X41258729Y-32758448D01*
X41222991Y-32787778D01*
X41066466Y-32871443D01*
X40896627Y-32922963D01*
X40830442Y-32929482D01*
X40764260Y-32936000D01*
X40675740Y-32936000D01*
X40609558Y-32929482D01*
X40543373Y-32922963D01*
X40373534Y-32871443D01*
X40217009Y-32787778D01*
X40181271Y-32758448D01*
X40079814Y-32675186D01*
X39996552Y-32573729D01*
X39967222Y-32537991D01*
X39883557Y-32381466D01*
X39832037Y-32211627D01*
X39814641Y-32035000D01*
X39832037Y-31858373D01*
X39883557Y-31688534D01*
X39967222Y-31532009D01*
X39996552Y-31496271D01*
X40079814Y-31394814D01*
X40181271Y-31311552D01*
X40217009Y-31282222D01*
X40373534Y-31198557D01*
X40543373Y-31147037D01*
X40609557Y-31140519D01*
X40675740Y-31134000D01*
X40764260Y-31134000D01*
X40830443Y-31140519D01*
X40830443Y-31140519D01*
G37*
G36*
X48450443Y-31140519D02*
G01*
X48516627Y-31147037D01*
X48686466Y-31198557D01*
X48842991Y-31282222D01*
X48878729Y-31311552D01*
X48980186Y-31394814D01*
X49063448Y-31496271D01*
X49092778Y-31532009D01*
X49176443Y-31688534D01*
X49227963Y-31858373D01*
X49245359Y-32035000D01*
X49227963Y-32211627D01*
X49176443Y-32381466D01*
X49092778Y-32537991D01*
X49063448Y-32573729D01*
X48980186Y-32675186D01*
X48878729Y-32758448D01*
X48842991Y-32787778D01*
X48686466Y-32871443D01*
X48516627Y-32922963D01*
X48450442Y-32929482D01*
X48384260Y-32936000D01*
X48295740Y-32936000D01*
X48229558Y-32929482D01*
X48163373Y-32922963D01*
X47993534Y-32871443D01*
X47837009Y-32787778D01*
X47801271Y-32758448D01*
X47699814Y-32675186D01*
X47616552Y-32573729D01*
X47587222Y-32537991D01*
X47503557Y-32381466D01*
X47452037Y-32211627D01*
X47434641Y-32035000D01*
X47452037Y-31858373D01*
X47503557Y-31688534D01*
X47587222Y-31532009D01*
X47616552Y-31496271D01*
X47699814Y-31394814D01*
X47801271Y-31311552D01*
X47837009Y-31282222D01*
X47993534Y-31198557D01*
X48163373Y-31147037D01*
X48229557Y-31140519D01*
X48295740Y-31134000D01*
X48384260Y-31134000D01*
X48450443Y-31140519D01*
X48450443Y-31140519D01*
G37*
G36*
X33210443Y-31140519D02*
G01*
X33276627Y-31147037D01*
X33446466Y-31198557D01*
X33602991Y-31282222D01*
X33638729Y-31311552D01*
X33740186Y-31394814D01*
X33823448Y-31496271D01*
X33852778Y-31532009D01*
X33936443Y-31688534D01*
X33987963Y-31858373D01*
X34005359Y-32035000D01*
X33987963Y-32211627D01*
X33936443Y-32381466D01*
X33852778Y-32537991D01*
X33823448Y-32573729D01*
X33740186Y-32675186D01*
X33638729Y-32758448D01*
X33602991Y-32787778D01*
X33446466Y-32871443D01*
X33276627Y-32922963D01*
X33210442Y-32929482D01*
X33144260Y-32936000D01*
X33055740Y-32936000D01*
X32989558Y-32929482D01*
X32923373Y-32922963D01*
X32753534Y-32871443D01*
X32597009Y-32787778D01*
X32561271Y-32758448D01*
X32459814Y-32675186D01*
X32376552Y-32573729D01*
X32347222Y-32537991D01*
X32263557Y-32381466D01*
X32212037Y-32211627D01*
X32194641Y-32035000D01*
X32212037Y-31858373D01*
X32263557Y-31688534D01*
X32347222Y-31532009D01*
X32376552Y-31496271D01*
X32459814Y-31394814D01*
X32561271Y-31311552D01*
X32597009Y-31282222D01*
X32753534Y-31198557D01*
X32923373Y-31147037D01*
X32989557Y-31140519D01*
X33055740Y-31134000D01*
X33144260Y-31134000D01*
X33210443Y-31140519D01*
X33210443Y-31140519D01*
G37*
G36*
X43370443Y-31140519D02*
G01*
X43436627Y-31147037D01*
X43606466Y-31198557D01*
X43762991Y-31282222D01*
X43798729Y-31311552D01*
X43900186Y-31394814D01*
X43983448Y-31496271D01*
X44012778Y-31532009D01*
X44096443Y-31688534D01*
X44147963Y-31858373D01*
X44165359Y-32035000D01*
X44147963Y-32211627D01*
X44096443Y-32381466D01*
X44012778Y-32537991D01*
X43983448Y-32573729D01*
X43900186Y-32675186D01*
X43798729Y-32758448D01*
X43762991Y-32787778D01*
X43606466Y-32871443D01*
X43436627Y-32922963D01*
X43370442Y-32929482D01*
X43304260Y-32936000D01*
X43215740Y-32936000D01*
X43149558Y-32929482D01*
X43083373Y-32922963D01*
X42913534Y-32871443D01*
X42757009Y-32787778D01*
X42721271Y-32758448D01*
X42619814Y-32675186D01*
X42536552Y-32573729D01*
X42507222Y-32537991D01*
X42423557Y-32381466D01*
X42372037Y-32211627D01*
X42354641Y-32035000D01*
X42372037Y-31858373D01*
X42423557Y-31688534D01*
X42507222Y-31532009D01*
X42536552Y-31496271D01*
X42619814Y-31394814D01*
X42721271Y-31311552D01*
X42757009Y-31282222D01*
X42913534Y-31198557D01*
X43083373Y-31147037D01*
X43149557Y-31140519D01*
X43215740Y-31134000D01*
X43304260Y-31134000D01*
X43370443Y-31140519D01*
X43370443Y-31140519D01*
G37*
G36*
X45910443Y-31140519D02*
G01*
X45976627Y-31147037D01*
X46146466Y-31198557D01*
X46302991Y-31282222D01*
X46338729Y-31311552D01*
X46440186Y-31394814D01*
X46523448Y-31496271D01*
X46552778Y-31532009D01*
X46636443Y-31688534D01*
X46687963Y-31858373D01*
X46705359Y-32035000D01*
X46687963Y-32211627D01*
X46636443Y-32381466D01*
X46552778Y-32537991D01*
X46523448Y-32573729D01*
X46440186Y-32675186D01*
X46338729Y-32758448D01*
X46302991Y-32787778D01*
X46146466Y-32871443D01*
X45976627Y-32922963D01*
X45910442Y-32929482D01*
X45844260Y-32936000D01*
X45755740Y-32936000D01*
X45689558Y-32929482D01*
X45623373Y-32922963D01*
X45453534Y-32871443D01*
X45297009Y-32787778D01*
X45261271Y-32758448D01*
X45159814Y-32675186D01*
X45076552Y-32573729D01*
X45047222Y-32537991D01*
X44963557Y-32381466D01*
X44912037Y-32211627D01*
X44894641Y-32035000D01*
X44912037Y-31858373D01*
X44963557Y-31688534D01*
X45047222Y-31532009D01*
X45076552Y-31496271D01*
X45159814Y-31394814D01*
X45261271Y-31311552D01*
X45297009Y-31282222D01*
X45453534Y-31198557D01*
X45623373Y-31147037D01*
X45689557Y-31140519D01*
X45755740Y-31134000D01*
X45844260Y-31134000D01*
X45910443Y-31140519D01*
X45910443Y-31140519D01*
G37*
G36*
X38290443Y-31140519D02*
G01*
X38356627Y-31147037D01*
X38526466Y-31198557D01*
X38682991Y-31282222D01*
X38718729Y-31311552D01*
X38820186Y-31394814D01*
X38903448Y-31496271D01*
X38932778Y-31532009D01*
X39016443Y-31688534D01*
X39067963Y-31858373D01*
X39085359Y-32035000D01*
X39067963Y-32211627D01*
X39016443Y-32381466D01*
X38932778Y-32537991D01*
X38903448Y-32573729D01*
X38820186Y-32675186D01*
X38718729Y-32758448D01*
X38682991Y-32787778D01*
X38526466Y-32871443D01*
X38356627Y-32922963D01*
X38290442Y-32929482D01*
X38224260Y-32936000D01*
X38135740Y-32936000D01*
X38069558Y-32929482D01*
X38003373Y-32922963D01*
X37833534Y-32871443D01*
X37677009Y-32787778D01*
X37641271Y-32758448D01*
X37539814Y-32675186D01*
X37456552Y-32573729D01*
X37427222Y-32537991D01*
X37343557Y-32381466D01*
X37292037Y-32211627D01*
X37274641Y-32035000D01*
X37292037Y-31858373D01*
X37343557Y-31688534D01*
X37427222Y-31532009D01*
X37456552Y-31496271D01*
X37539814Y-31394814D01*
X37641271Y-31311552D01*
X37677009Y-31282222D01*
X37833534Y-31198557D01*
X38003373Y-31147037D01*
X38069557Y-31140519D01*
X38135740Y-31134000D01*
X38224260Y-31134000D01*
X38290443Y-31140519D01*
X38290443Y-31140519D01*
G37*
G36*
X35750443Y-31140519D02*
G01*
X35816627Y-31147037D01*
X35986466Y-31198557D01*
X36142991Y-31282222D01*
X36178729Y-31311552D01*
X36280186Y-31394814D01*
X36363448Y-31496271D01*
X36392778Y-31532009D01*
X36476443Y-31688534D01*
X36527963Y-31858373D01*
X36545359Y-32035000D01*
X36527963Y-32211627D01*
X36476443Y-32381466D01*
X36392778Y-32537991D01*
X36363448Y-32573729D01*
X36280186Y-32675186D01*
X36178729Y-32758448D01*
X36142991Y-32787778D01*
X35986466Y-32871443D01*
X35816627Y-32922963D01*
X35750442Y-32929482D01*
X35684260Y-32936000D01*
X35595740Y-32936000D01*
X35529558Y-32929482D01*
X35463373Y-32922963D01*
X35293534Y-32871443D01*
X35137009Y-32787778D01*
X35101271Y-32758448D01*
X34999814Y-32675186D01*
X34916552Y-32573729D01*
X34887222Y-32537991D01*
X34803557Y-32381466D01*
X34752037Y-32211627D01*
X34734641Y-32035000D01*
X34752037Y-31858373D01*
X34803557Y-31688534D01*
X34887222Y-31532009D01*
X34916552Y-31496271D01*
X34999814Y-31394814D01*
X35101271Y-31311552D01*
X35137009Y-31282222D01*
X35293534Y-31198557D01*
X35463373Y-31147037D01*
X35529557Y-31140519D01*
X35595740Y-31134000D01*
X35684260Y-31134000D01*
X35750443Y-31140519D01*
X35750443Y-31140519D01*
G37*
G36*
X110904000Y-29202000D02*
G01*
X107302000Y-29202000D01*
X107302000Y-25600000D01*
X110904000Y-25600000D01*
X110904000Y-29202000D01*
X110904000Y-29202000D01*
G37*
M02*
