G04 #@! TF.GenerationSoftware,KiCad,Pcbnew,5.1.0-unknown-03bce55~94~ubuntu16.04.1*
G04 #@! TF.CreationDate,2019-06-06T22:48:09-05:00*
G04 #@! TF.ProjectId,Embebidos_2019,456d6265-6269-4646-9f73-5f323031392e,rev?*
G04 #@! TF.SameCoordinates,Original*
G04 #@! TF.FileFunction,Legend,Top*
G04 #@! TF.FilePolarity,Positive*
%FSLAX46Y46*%
G04 Gerber Fmt 4.6, Leading zero omitted, Abs format (unit mm)*
G04 Created by KiCad (PCBNEW 5.1.0-unknown-03bce55~94~ubuntu16.04.1) date 2019-06-06 22:48:09*
%MOMM*%
%LPD*%
G04 APERTURE LIST*
%ADD10C,0.150000*%
%ADD11C,0.120000*%
%ADD12C,0.100000*%
%ADD13C,0.152400*%
%ADD14C,0.127000*%
G04 APERTURE END LIST*
D10*
X66168380Y-26997380D02*
X66358857Y-26997380D01*
X66454095Y-26949761D01*
X66501714Y-26902142D01*
X66596952Y-26759285D01*
X66644571Y-26568809D01*
X66644571Y-26187857D01*
X66596952Y-26092619D01*
X66549333Y-26045000D01*
X66454095Y-25997380D01*
X66263619Y-25997380D01*
X66168380Y-26045000D01*
X66120761Y-26092619D01*
X66073142Y-26187857D01*
X66073142Y-26425952D01*
X66120761Y-26521190D01*
X66168380Y-26568809D01*
X66263619Y-26616428D01*
X66454095Y-26616428D01*
X66549333Y-26568809D01*
X66596952Y-26521190D01*
X66644571Y-26425952D01*
X67120761Y-26997380D02*
X67311238Y-26997380D01*
X67406476Y-26949761D01*
X67454095Y-26902142D01*
X67549333Y-26759285D01*
X67596952Y-26568809D01*
X67596952Y-26187857D01*
X67549333Y-26092619D01*
X67501714Y-26045000D01*
X67406476Y-25997380D01*
X67216000Y-25997380D01*
X67120761Y-26045000D01*
X67073142Y-26092619D01*
X67025523Y-26187857D01*
X67025523Y-26425952D01*
X67073142Y-26521190D01*
X67120761Y-26568809D01*
X67216000Y-26616428D01*
X67406476Y-26616428D01*
X67501714Y-26568809D01*
X67549333Y-26521190D01*
X67596952Y-26425952D01*
X68073142Y-26949761D02*
X68073142Y-26997380D01*
X68025523Y-27092619D01*
X67977904Y-27140238D01*
X68977904Y-25997380D02*
X68501714Y-25997380D01*
X68454095Y-26473571D01*
X68501714Y-26425952D01*
X68596952Y-26378333D01*
X68835047Y-26378333D01*
X68930285Y-26425952D01*
X68977904Y-26473571D01*
X69025523Y-26568809D01*
X69025523Y-26806904D01*
X68977904Y-26902142D01*
X68930285Y-26949761D01*
X68835047Y-26997380D01*
X68596952Y-26997380D01*
X68501714Y-26949761D01*
X68454095Y-26902142D01*
X69882666Y-25997380D02*
X69692190Y-25997380D01*
X69596952Y-26045000D01*
X69549333Y-26092619D01*
X69454095Y-26235476D01*
X69406476Y-26425952D01*
X69406476Y-26806904D01*
X69454095Y-26902142D01*
X69501714Y-26949761D01*
X69596952Y-26997380D01*
X69787428Y-26997380D01*
X69882666Y-26949761D01*
X69930285Y-26902142D01*
X69977904Y-26806904D01*
X69977904Y-26568809D01*
X69930285Y-26473571D01*
X69882666Y-26425952D01*
X69787428Y-26378333D01*
X69596952Y-26378333D01*
X69501714Y-26425952D01*
X69454095Y-26473571D01*
X69406476Y-26568809D01*
X70549333Y-26425952D02*
X70454095Y-26378333D01*
X70406476Y-26330714D01*
X70358857Y-26235476D01*
X70358857Y-26187857D01*
X70406476Y-26092619D01*
X70454095Y-26045000D01*
X70549333Y-25997380D01*
X70739809Y-25997380D01*
X70835047Y-26045000D01*
X70882666Y-26092619D01*
X70930285Y-26187857D01*
X70930285Y-26235476D01*
X70882666Y-26330714D01*
X70835047Y-26378333D01*
X70739809Y-26425952D01*
X70549333Y-26425952D01*
X70454095Y-26473571D01*
X70406476Y-26521190D01*
X70358857Y-26616428D01*
X70358857Y-26806904D01*
X70406476Y-26902142D01*
X70454095Y-26949761D01*
X70549333Y-26997380D01*
X70739809Y-26997380D01*
X70835047Y-26949761D01*
X70882666Y-26902142D01*
X70930285Y-26806904D01*
X70930285Y-26616428D01*
X70882666Y-26521190D01*
X70835047Y-26473571D01*
X70739809Y-26425952D01*
X72120761Y-26997380D02*
X72120761Y-26330714D01*
X72120761Y-26425952D02*
X72168380Y-26378333D01*
X72263619Y-26330714D01*
X72406476Y-26330714D01*
X72501714Y-26378333D01*
X72549333Y-26473571D01*
X72549333Y-26997380D01*
X72549333Y-26473571D02*
X72596952Y-26378333D01*
X72692190Y-26330714D01*
X72835047Y-26330714D01*
X72930285Y-26378333D01*
X72977904Y-26473571D01*
X72977904Y-26997380D01*
X73454095Y-26997380D02*
X73454095Y-26330714D01*
X73454095Y-26425952D02*
X73501714Y-26378333D01*
X73596952Y-26330714D01*
X73739809Y-26330714D01*
X73835047Y-26378333D01*
X73882666Y-26473571D01*
X73882666Y-26997380D01*
X73882666Y-26473571D02*
X73930285Y-26378333D01*
X74025523Y-26330714D01*
X74168380Y-26330714D01*
X74263619Y-26378333D01*
X74311238Y-26473571D01*
X74311238Y-26997380D01*
D11*
X20432000Y-25275000D02*
X120000000Y-25275000D01*
X20432000Y-25275000D02*
X20432000Y-25861421D01*
X120000000Y-25275000D02*
X120000000Y-25861421D01*
X120000000Y-25275000D02*
X118873496Y-25861421D01*
X120000000Y-25275000D02*
X118873496Y-24688579D01*
X20432000Y-25275000D02*
X21558504Y-25861421D01*
X20432000Y-25275000D02*
X21558504Y-24688579D01*
D10*
X102580000Y-121579000D02*
X102580000Y-122087000D01*
X102199000Y-121579000D02*
X102580000Y-121579000D01*
X102580000Y-121071000D02*
X102199000Y-121579000D01*
X102072000Y-121071000D02*
X102580000Y-121071000D01*
X103088000Y-121071000D02*
X102072000Y-121071000D01*
X102580000Y-121071000D02*
X103088000Y-121071000D01*
X102199000Y-121579000D02*
X102580000Y-121071000D01*
X102961000Y-121579000D02*
X102199000Y-121579000D01*
X102580000Y-121071000D02*
X102961000Y-121579000D01*
X102580000Y-120563000D02*
X102580000Y-121071000D01*
D11*
X103580000Y-119075000D02*
X101580000Y-119075000D01*
X101580000Y-119075000D02*
X101580000Y-122975000D01*
X103580000Y-119075000D02*
X103580000Y-122975000D01*
X96014000Y-43097267D02*
X96014000Y-42754733D01*
X94994000Y-43097267D02*
X94994000Y-42754733D01*
X93765000Y-30971267D02*
X93765000Y-30628733D01*
X92745000Y-30971267D02*
X92745000Y-30628733D01*
X95000000Y-121048733D02*
X95000000Y-121391267D01*
X96020000Y-121048733D02*
X96020000Y-121391267D01*
X31555000Y-122820000D02*
X30225000Y-122820000D01*
X31555000Y-121490000D02*
X31555000Y-122820000D01*
X31555000Y-120220000D02*
X28895000Y-120220000D01*
X28895000Y-120220000D02*
X28895000Y-115080000D01*
X31555000Y-120220000D02*
X31555000Y-115080000D01*
X31555000Y-115080000D02*
X28895000Y-115080000D01*
X31770000Y-35905000D02*
X31770000Y-34575000D01*
X33100000Y-35905000D02*
X31770000Y-35905000D01*
X31770000Y-33305000D02*
X31770000Y-30705000D01*
X34370000Y-33305000D02*
X31770000Y-33305000D01*
X34370000Y-35905000D02*
X34370000Y-33305000D01*
X31770000Y-30705000D02*
X49670000Y-30705000D01*
X34370000Y-35905000D02*
X49670000Y-35905000D01*
X49670000Y-35905000D02*
X49670000Y-30705000D01*
X41808000Y-83505267D02*
X41808000Y-83162733D01*
X42828000Y-83505267D02*
X42828000Y-83162733D01*
X82911000Y-41593267D02*
X82911000Y-41250733D01*
X81891000Y-41593267D02*
X81891000Y-41250733D01*
X67459733Y-49242000D02*
X67802267Y-49242000D01*
X67459733Y-48222000D02*
X67802267Y-48222000D01*
X88617267Y-43174000D02*
X88274733Y-43174000D01*
X88617267Y-44194000D02*
X88274733Y-44194000D01*
X90126000Y-38615267D02*
X90126000Y-38272733D01*
X89106000Y-38615267D02*
X89106000Y-38272733D01*
X93056000Y-38605267D02*
X93056000Y-38262733D01*
X92036000Y-38605267D02*
X92036000Y-38262733D01*
X96174733Y-36974000D02*
X96517267Y-36974000D01*
X96174733Y-35954000D02*
X96517267Y-35954000D01*
X109456000Y-42786064D02*
X109456000Y-41581936D01*
X107636000Y-42786064D02*
X107636000Y-41581936D01*
X70586000Y-65798733D02*
X70586000Y-66141267D01*
X69566000Y-65798733D02*
X69566000Y-66141267D01*
X72360000Y-65911733D02*
X72360000Y-66254267D01*
X73380000Y-65911733D02*
X73380000Y-66254267D01*
X90559267Y-52950000D02*
X90216733Y-52950000D01*
X90559267Y-51930000D02*
X90216733Y-51930000D01*
X83955267Y-52950000D02*
X83612733Y-52950000D01*
X83955267Y-51930000D02*
X83612733Y-51930000D01*
X76174000Y-65798733D02*
X76174000Y-66141267D01*
X75154000Y-65798733D02*
X75154000Y-66141267D01*
X86982000Y-54967267D02*
X86982000Y-54624733D01*
X88002000Y-54967267D02*
X88002000Y-54624733D01*
X83955267Y-54978000D02*
X83612733Y-54978000D01*
X83955267Y-55998000D02*
X83612733Y-55998000D01*
X77948000Y-65798733D02*
X77948000Y-66141267D01*
X78968000Y-65798733D02*
X78968000Y-66141267D01*
X90559267Y-55998000D02*
X90216733Y-55998000D01*
X90559267Y-54978000D02*
X90216733Y-54978000D01*
X83701267Y-70730000D02*
X83358733Y-70730000D01*
X83701267Y-69710000D02*
X83358733Y-69710000D01*
X95472000Y-67832267D02*
X95472000Y-67489733D01*
X94452000Y-67832267D02*
X94452000Y-67489733D01*
X93932000Y-60362267D02*
X93932000Y-60019733D01*
X94952000Y-60362267D02*
X94952000Y-60019733D01*
X100682000Y-67049733D02*
X100682000Y-67392267D01*
X101702000Y-67049733D02*
X101702000Y-67392267D01*
X79972000Y-77160733D02*
X79972000Y-77503267D01*
X80992000Y-77160733D02*
X80992000Y-77503267D01*
X98682000Y-69084733D02*
X98682000Y-69427267D01*
X97662000Y-69084733D02*
X97662000Y-69427267D01*
X94962000Y-76257733D02*
X94962000Y-76600267D01*
X93942000Y-76257733D02*
X93942000Y-76600267D01*
X91660000Y-76398733D02*
X91660000Y-76741267D01*
X90640000Y-76398733D02*
X90640000Y-76741267D01*
X106183267Y-71716000D02*
X105840733Y-71716000D01*
X106183267Y-70696000D02*
X105840733Y-70696000D01*
X105068267Y-66816000D02*
X104725733Y-66816000D01*
X105068267Y-67836000D02*
X104725733Y-67836000D01*
X101802000Y-56044733D02*
X101802000Y-56387267D01*
X102822000Y-56044733D02*
X102822000Y-56387267D01*
X106182000Y-56174733D02*
X106182000Y-56517267D01*
X105162000Y-56174733D02*
X105162000Y-56517267D01*
X64766733Y-119554000D02*
X65109267Y-119554000D01*
X64766733Y-118534000D02*
X65109267Y-118534000D01*
X64766733Y-115444000D02*
X65109267Y-115444000D01*
X64766733Y-116464000D02*
X65109267Y-116464000D01*
X97800000Y-120715000D02*
X97800000Y-121715000D01*
X99500000Y-121715000D02*
X99500000Y-120715000D01*
X55853000Y-120112733D02*
X55853000Y-120455267D01*
X54833000Y-120112733D02*
X54833000Y-120455267D01*
X86604564Y-96415000D02*
X85400436Y-96415000D01*
X86604564Y-98235000D02*
X85400436Y-98235000D01*
X104716000Y-42975267D02*
X104716000Y-42632733D01*
X105736000Y-42975267D02*
X105736000Y-42632733D01*
X99059000Y-30739564D02*
X99059000Y-29535436D01*
X100879000Y-30739564D02*
X100879000Y-29535436D01*
X79680000Y-84893733D02*
X79680000Y-85236267D01*
X80700000Y-84893733D02*
X80700000Y-85236267D01*
X96915000Y-31116267D02*
X96915000Y-30773733D01*
X95895000Y-31116267D02*
X95895000Y-30773733D01*
X77470000Y-85082936D02*
X77470000Y-86287064D01*
X75650000Y-85082936D02*
X75650000Y-86287064D01*
X88836000Y-47382733D02*
X88836000Y-47725267D01*
X89856000Y-47382733D02*
X89856000Y-47725267D01*
X37290733Y-46392000D02*
X37633267Y-46392000D01*
X37290733Y-47412000D02*
X37633267Y-47412000D01*
X37633267Y-49440000D02*
X37290733Y-49440000D01*
X37633267Y-50460000D02*
X37290733Y-50460000D01*
X37608000Y-56199267D02*
X37608000Y-55856733D01*
X38628000Y-56199267D02*
X38628000Y-55856733D01*
X46438000Y-56699267D02*
X46438000Y-56356733D01*
X45418000Y-56699267D02*
X45418000Y-56356733D01*
X61208000Y-68724267D02*
X61208000Y-68381733D01*
X60188000Y-68724267D02*
X60188000Y-68381733D01*
X48826733Y-54688000D02*
X49169267Y-54688000D01*
X48826733Y-53668000D02*
X49169267Y-53668000D01*
X40518000Y-64899267D02*
X40518000Y-64556733D01*
X39498000Y-64899267D02*
X39498000Y-64556733D01*
X63414267Y-67098000D02*
X63071733Y-67098000D01*
X63414267Y-66078000D02*
X63071733Y-66078000D01*
X47338000Y-62554267D02*
X47338000Y-62211733D01*
X46318000Y-62554267D02*
X46318000Y-62211733D01*
X53389267Y-67988000D02*
X53046733Y-67988000D01*
X53389267Y-69008000D02*
X53046733Y-69008000D01*
X43088000Y-62634267D02*
X43088000Y-62291733D01*
X44108000Y-62634267D02*
X44108000Y-62291733D01*
X67868000Y-53421733D02*
X67868000Y-53764267D01*
X66848000Y-53421733D02*
X66848000Y-53764267D01*
X53687733Y-50714000D02*
X54030267Y-50714000D01*
X53687733Y-49694000D02*
X54030267Y-49694000D01*
X63469267Y-69958000D02*
X63126733Y-69958000D01*
X63469267Y-68938000D02*
X63126733Y-68938000D01*
D12*
X119675000Y-79275000D02*
X119675000Y-78675000D01*
X119675000Y-78675000D02*
X118950000Y-78675000D01*
X118900000Y-84925000D02*
X119675000Y-84925000D01*
X119675000Y-84925000D02*
X119675000Y-84350000D01*
X102425000Y-79275000D02*
X102425000Y-78675000D01*
X102425000Y-78675000D02*
X103100000Y-78675000D01*
X102975000Y-84925000D02*
X102425000Y-84925000D01*
X102425000Y-84925000D02*
X102425000Y-84450000D01*
D11*
X86155000Y-32225000D02*
X86155000Y-29025000D01*
X87655000Y-29025000D02*
X87655000Y-32225000D01*
X87655000Y-29025000D02*
X86155000Y-29025000D01*
X49338000Y-67413000D02*
X49338000Y-70273000D01*
X49338000Y-70273000D02*
X51258000Y-70273000D01*
X51258000Y-70273000D02*
X51258000Y-67413000D01*
X47868000Y-68498000D02*
X47868000Y-65638000D01*
X45948000Y-68498000D02*
X47868000Y-68498000D01*
X45948000Y-65638000D02*
X45948000Y-68498000D01*
X72560000Y-76666000D02*
X72560000Y-76066000D01*
X71960000Y-76666000D02*
X71960000Y-76066000D01*
X105008000Y-106907000D02*
X107338000Y-106907000D01*
X105008000Y-121897000D02*
X107128000Y-121897000D01*
X105008000Y-106907000D02*
X105008000Y-121897000D01*
X119098000Y-106907000D02*
X119098000Y-121897000D01*
X110298000Y-106907000D02*
X119098000Y-106907000D01*
X110498000Y-121897000D02*
X119098000Y-121897000D01*
X111103000Y-27501000D02*
X119903000Y-27501000D01*
X119903000Y-27501000D02*
X119903000Y-36701000D01*
X105203000Y-30201000D02*
X105203000Y-27501000D01*
X105203000Y-27501000D02*
X107103000Y-27501000D01*
X119903000Y-36701000D02*
X105203000Y-36701000D01*
X105203000Y-36701000D02*
X105203000Y-34101000D01*
D13*
X95038240Y-115370500D02*
X95261760Y-115370500D01*
X95261760Y-113719500D02*
X95038240Y-113719500D01*
X96597800Y-113021000D02*
G75*
G03X96597800Y-113021000I-76200J0D01*
G01*
D11*
X92078733Y-119935000D02*
X92421267Y-119935000D01*
X92078733Y-120955000D02*
X92421267Y-120955000D01*
X92076000Y-42662733D02*
X92076000Y-43005267D01*
X93096000Y-42662733D02*
X93096000Y-43005267D01*
X43238000Y-67154267D02*
X43238000Y-66811733D01*
X44258000Y-67154267D02*
X44258000Y-66811733D01*
D12*
X77271000Y-25392000D02*
X76771000Y-25392000D01*
X77271000Y-25392000D02*
X77271000Y-25892000D01*
X62671000Y-44992000D02*
X62671000Y-44492000D01*
X62671000Y-44992000D02*
X63171000Y-44992000D01*
X77271000Y-44992000D02*
X76771000Y-44992000D01*
X77271000Y-44992000D02*
X77271000Y-44492000D01*
X63171000Y-25442000D02*
X62671000Y-25942000D01*
X63371000Y-25442000D02*
X63171000Y-25442000D01*
X62671000Y-25942000D02*
X62671000Y-26092000D01*
D11*
X80791000Y-34310733D02*
X80791000Y-34653267D01*
X81811000Y-34310733D02*
X81811000Y-34653267D01*
X88612000Y-72169267D02*
X88612000Y-71826733D01*
X87592000Y-72169267D02*
X87592000Y-71826733D01*
X97002000Y-57892267D02*
X97002000Y-57549733D01*
X95982000Y-57892267D02*
X95982000Y-57549733D01*
X94232000Y-53919733D02*
X94232000Y-54262267D01*
X93212000Y-53919733D02*
X93212000Y-54262267D01*
X86068000Y-77390267D02*
X86068000Y-77047733D01*
X87088000Y-77390267D02*
X87088000Y-77047733D01*
X84040000Y-77503267D02*
X84040000Y-77160733D01*
X83020000Y-77503267D02*
X83020000Y-77160733D01*
X99692000Y-57092267D02*
X99692000Y-56749733D01*
X98672000Y-57092267D02*
X98672000Y-56749733D01*
X97562000Y-51859733D02*
X97562000Y-52202267D01*
X96542000Y-51859733D02*
X96542000Y-52202267D01*
X76240000Y-79546267D02*
X76240000Y-79203733D01*
X77260000Y-79546267D02*
X77260000Y-79203733D01*
X94962000Y-71915267D02*
X94962000Y-71572733D01*
X93942000Y-71915267D02*
X93942000Y-71572733D01*
X90640000Y-72169267D02*
X90640000Y-71826733D01*
X91660000Y-72169267D02*
X91660000Y-71826733D01*
X102305733Y-60656000D02*
X102648267Y-60656000D01*
X102305733Y-61676000D02*
X102648267Y-61676000D01*
X102160733Y-64786000D02*
X102503267Y-64786000D01*
X102160733Y-63766000D02*
X102503267Y-63766000D01*
X46154267Y-79434000D02*
X45811733Y-79434000D01*
X46154267Y-78414000D02*
X45811733Y-78414000D01*
X48538000Y-83515267D02*
X48538000Y-83172733D01*
X47518000Y-83515267D02*
X47518000Y-83172733D01*
X44638000Y-83510267D02*
X44638000Y-83167733D01*
X45658000Y-83510267D02*
X45658000Y-83167733D01*
X38838000Y-83505267D02*
X38838000Y-83162733D01*
X39858000Y-83505267D02*
X39858000Y-83162733D01*
X59040000Y-118903733D02*
X59040000Y-119246267D01*
X60060000Y-118903733D02*
X60060000Y-119246267D01*
X72071733Y-115004000D02*
X72414267Y-115004000D01*
X72071733Y-116024000D02*
X72414267Y-116024000D01*
X72031733Y-118254000D02*
X72374267Y-118254000D01*
X72031733Y-119274000D02*
X72374267Y-119274000D01*
X96244733Y-39804000D02*
X96587267Y-39804000D01*
X96244733Y-38784000D02*
X96587267Y-38784000D01*
X90665000Y-28653733D02*
X90665000Y-28996267D01*
X89645000Y-28653733D02*
X89645000Y-28996267D01*
X58292000Y-44025267D02*
X58292000Y-43682733D01*
X57272000Y-44025267D02*
X57272000Y-43682733D01*
X56010000Y-39121267D02*
X56010000Y-38778733D01*
X54990000Y-39121267D02*
X54990000Y-38778733D01*
X49398000Y-50629267D02*
X49398000Y-50286733D01*
X50418000Y-50629267D02*
X50418000Y-50286733D01*
X40658000Y-70489267D02*
X40658000Y-70146733D01*
X41678000Y-70489267D02*
X41678000Y-70146733D01*
X51369267Y-71788000D02*
X51026733Y-71788000D01*
X51369267Y-72808000D02*
X51026733Y-72808000D01*
X48018000Y-71629267D02*
X48018000Y-71286733D01*
X46998000Y-71629267D02*
X46998000Y-71286733D01*
X63198733Y-72046000D02*
X63541267Y-72046000D01*
X63198733Y-73066000D02*
X63541267Y-73066000D01*
X61674733Y-75094000D02*
X62017267Y-75094000D01*
X61674733Y-76114000D02*
X62017267Y-76114000D01*
D12*
X34113000Y-66813000D02*
X33813000Y-66813000D01*
X34113000Y-66813000D02*
X34463000Y-66488000D01*
X34463000Y-66488000D02*
X34763000Y-66488000D01*
X34763000Y-66488000D02*
X34763000Y-66713000D01*
X34763000Y-66713000D02*
X36413000Y-66713000D01*
X28213000Y-66263000D02*
X28213000Y-66813000D01*
X28213000Y-66813000D02*
X28713000Y-66813000D01*
X34063000Y-60563000D02*
X34463000Y-60563000D01*
X34463000Y-60563000D02*
X34463000Y-60963000D01*
X28213000Y-60938000D02*
X28213000Y-60563000D01*
X28213000Y-60563000D02*
X28588000Y-60563000D01*
D13*
X50095500Y-118595903D02*
X50095500Y-118106397D01*
X43847100Y-118106397D02*
X43847100Y-120843803D01*
X50095500Y-116249300D02*
X43847100Y-116249300D01*
X50095500Y-120843803D02*
X50095500Y-120354297D01*
X43847100Y-122700900D02*
X50095500Y-122700900D01*
D10*
X89949000Y-66733000D02*
X89949000Y-66508000D01*
X82699000Y-66733000D02*
X82699000Y-66408000D01*
X82699000Y-59483000D02*
X82699000Y-59808000D01*
X89949000Y-59483000D02*
X89949000Y-59808000D01*
X89949000Y-66733000D02*
X89624000Y-66733000D01*
X89949000Y-59483000D02*
X89624000Y-59483000D01*
X82699000Y-59483000D02*
X83024000Y-59483000D01*
X82699000Y-66733000D02*
X83024000Y-66733000D01*
X89949000Y-66508000D02*
X91374000Y-66508000D01*
D14*
X30520000Y-89130000D02*
X32920000Y-86730000D01*
X32920800Y-86730280D02*
X72920000Y-86730000D01*
X30520500Y-108729220D02*
X30520000Y-89130000D01*
X35120000Y-113330000D02*
X30520000Y-108730000D01*
X66519920Y-113329160D02*
X35120000Y-113330000D01*
X72920000Y-106930000D02*
X66519920Y-113329160D01*
X72920000Y-86730000D02*
X72920000Y-106930000D01*
D11*
X82860000Y-91855000D02*
X82860000Y-85845000D01*
X89680000Y-89605000D02*
X89680000Y-85845000D01*
X82860000Y-85845000D02*
X84120000Y-85845000D01*
X89680000Y-85845000D02*
X88420000Y-85845000D01*
X100136000Y-41144000D02*
X98336000Y-41144000D01*
X98336000Y-44364000D02*
X100786000Y-44364000D01*
X62704000Y-63442000D02*
X63654000Y-63442000D01*
X63654000Y-63442000D02*
X63654000Y-62492000D01*
X54384000Y-63442000D02*
X53434000Y-63442000D01*
X53434000Y-63442000D02*
X53434000Y-62492000D01*
X62704000Y-53222000D02*
X63654000Y-53222000D01*
X63654000Y-53222000D02*
X63654000Y-54172000D01*
X54384000Y-53222000D02*
X53434000Y-53222000D01*
X53434000Y-53222000D02*
X53434000Y-54172000D01*
X53434000Y-54172000D02*
X52094000Y-54172000D01*
X43684000Y-54300000D02*
X40384000Y-54300000D01*
X40384000Y-54300000D02*
X40384000Y-58300000D01*
D10*
X40988000Y-46498000D02*
X40988000Y-50498000D01*
X42988000Y-46498000D02*
X40988000Y-46498000D01*
X42988000Y-50498000D02*
X42988000Y-46498000D01*
X42988000Y-50498000D02*
X40988000Y-50498000D01*
X102606100Y-118395975D02*
X101606100Y-118395975D01*
X101606100Y-118157880D01*
X101653720Y-118015022D01*
X101748958Y-117919784D01*
X101844196Y-117872165D01*
X102034672Y-117824546D01*
X102177529Y-117824546D01*
X102368005Y-117872165D01*
X102463243Y-117919784D01*
X102558481Y-118015022D01*
X102606100Y-118157880D01*
X102606100Y-118395975D01*
X102606100Y-116872165D02*
X102606100Y-117443594D01*
X102606100Y-117157880D02*
X101606100Y-117157880D01*
X101748958Y-117253118D01*
X101844196Y-117348356D01*
X101891815Y-117443594D01*
X94526380Y-43568857D02*
X94050190Y-43902190D01*
X94526380Y-44140285D02*
X93526380Y-44140285D01*
X93526380Y-43759333D01*
X93574000Y-43664095D01*
X93621619Y-43616476D01*
X93716857Y-43568857D01*
X93859714Y-43568857D01*
X93954952Y-43616476D01*
X94002571Y-43664095D01*
X94050190Y-43759333D01*
X94050190Y-44140285D01*
X93621619Y-43187904D02*
X93574000Y-43140285D01*
X93526380Y-43045047D01*
X93526380Y-42806952D01*
X93574000Y-42711714D01*
X93621619Y-42664095D01*
X93716857Y-42616476D01*
X93812095Y-42616476D01*
X93954952Y-42664095D01*
X94526380Y-43235523D01*
X94526380Y-42616476D01*
X93621619Y-42235523D02*
X93574000Y-42187904D01*
X93526380Y-42092666D01*
X93526380Y-41854571D01*
X93574000Y-41759333D01*
X93621619Y-41711714D01*
X93716857Y-41664095D01*
X93812095Y-41664095D01*
X93954952Y-41711714D01*
X94526380Y-42283142D01*
X94526380Y-41664095D01*
X92182142Y-31442857D02*
X92229761Y-31490476D01*
X92277380Y-31633333D01*
X92277380Y-31728571D01*
X92229761Y-31871428D01*
X92134523Y-31966666D01*
X92039285Y-32014285D01*
X91848809Y-32061904D01*
X91705952Y-32061904D01*
X91515476Y-32014285D01*
X91420238Y-31966666D01*
X91325000Y-31871428D01*
X91277380Y-31728571D01*
X91277380Y-31633333D01*
X91325000Y-31490476D01*
X91372619Y-31442857D01*
X91277380Y-31109523D02*
X91277380Y-30490476D01*
X91658333Y-30823809D01*
X91658333Y-30680952D01*
X91705952Y-30585714D01*
X91753571Y-30538095D01*
X91848809Y-30490476D01*
X92086904Y-30490476D01*
X92182142Y-30538095D01*
X92229761Y-30585714D01*
X92277380Y-30680952D01*
X92277380Y-30966666D01*
X92229761Y-31061904D01*
X92182142Y-31109523D01*
X91705952Y-29919047D02*
X91658333Y-30014285D01*
X91610714Y-30061904D01*
X91515476Y-30109523D01*
X91467857Y-30109523D01*
X91372619Y-30061904D01*
X91325000Y-30014285D01*
X91277380Y-29919047D01*
X91277380Y-29728571D01*
X91325000Y-29633333D01*
X91372619Y-29585714D01*
X91467857Y-29538095D01*
X91515476Y-29538095D01*
X91610714Y-29585714D01*
X91658333Y-29633333D01*
X91705952Y-29728571D01*
X91705952Y-29919047D01*
X91753571Y-30014285D01*
X91801190Y-30061904D01*
X91896428Y-30109523D01*
X92086904Y-30109523D01*
X92182142Y-30061904D01*
X92229761Y-30014285D01*
X92277380Y-29919047D01*
X92277380Y-29728571D01*
X92229761Y-29633333D01*
X92182142Y-29585714D01*
X92086904Y-29538095D01*
X91896428Y-29538095D01*
X91801190Y-29585714D01*
X91753571Y-29633333D01*
X91705952Y-29728571D01*
X95749382Y-118625857D02*
X95797001Y-118673476D01*
X95844620Y-118816333D01*
X95844620Y-118911571D01*
X95797001Y-119054428D01*
X95701763Y-119149666D01*
X95606525Y-119197285D01*
X95416049Y-119244904D01*
X95273192Y-119244904D01*
X95082716Y-119197285D01*
X94987478Y-119149666D01*
X94892240Y-119054428D01*
X94844620Y-118911571D01*
X94844620Y-118816333D01*
X94892240Y-118673476D01*
X94939859Y-118625857D01*
X94939859Y-118244904D02*
X94892240Y-118197285D01*
X94844620Y-118102047D01*
X94844620Y-117863952D01*
X94892240Y-117768714D01*
X94939859Y-117721095D01*
X95035097Y-117673476D01*
X95130335Y-117673476D01*
X95273192Y-117721095D01*
X95844620Y-118292523D01*
X95844620Y-117673476D01*
X94844620Y-116768714D02*
X94844620Y-117244904D01*
X95320811Y-117292523D01*
X95273192Y-117244904D01*
X95225573Y-117149666D01*
X95225573Y-116911571D01*
X95273192Y-116816333D01*
X95320811Y-116768714D01*
X95416049Y-116721095D01*
X95654144Y-116721095D01*
X95749382Y-116768714D01*
X95797001Y-116816333D01*
X95844620Y-116911571D01*
X95844620Y-117149666D01*
X95797001Y-117244904D01*
X95749382Y-117292523D01*
X26590666Y-118324380D02*
X26590666Y-119038666D01*
X26543047Y-119181523D01*
X26447809Y-119276761D01*
X26304952Y-119324380D01*
X26209714Y-119324380D01*
X27019238Y-118419619D02*
X27066857Y-118372000D01*
X27162095Y-118324380D01*
X27400190Y-118324380D01*
X27495428Y-118372000D01*
X27543047Y-118419619D01*
X27590666Y-118514857D01*
X27590666Y-118610095D01*
X27543047Y-118752952D01*
X26971619Y-119324380D01*
X27590666Y-119324380D01*
X30222380Y-33638333D02*
X30936666Y-33638333D01*
X31079523Y-33685952D01*
X31174761Y-33781190D01*
X31222380Y-33924047D01*
X31222380Y-34019285D01*
X30222380Y-32685952D02*
X30222380Y-33162142D01*
X30698571Y-33209761D01*
X30650952Y-33162142D01*
X30603333Y-33066904D01*
X30603333Y-32828809D01*
X30650952Y-32733571D01*
X30698571Y-32685952D01*
X30793809Y-32638333D01*
X31031904Y-32638333D01*
X31127142Y-32685952D01*
X31174761Y-32733571D01*
X31222380Y-32828809D01*
X31222380Y-33066904D01*
X31174761Y-33162142D01*
X31127142Y-33209761D01*
X41340380Y-83976857D02*
X40864190Y-84310190D01*
X41340380Y-84548285D02*
X40340380Y-84548285D01*
X40340380Y-84167333D01*
X40388000Y-84072095D01*
X40435619Y-84024476D01*
X40530857Y-83976857D01*
X40673714Y-83976857D01*
X40768952Y-84024476D01*
X40816571Y-84072095D01*
X40864190Y-84167333D01*
X40864190Y-84548285D01*
X41340380Y-83024476D02*
X41340380Y-83595904D01*
X41340380Y-83310190D02*
X40340380Y-83310190D01*
X40483238Y-83405428D01*
X40578476Y-83500666D01*
X40626095Y-83595904D01*
X40340380Y-82691142D02*
X40340380Y-82024476D01*
X41340380Y-82453047D01*
X80905622Y-42309017D02*
X80953241Y-42356636D01*
X81000860Y-42499493D01*
X81000860Y-42594731D01*
X80953241Y-42737588D01*
X80858003Y-42832826D01*
X80762765Y-42880445D01*
X80572289Y-42928064D01*
X80429432Y-42928064D01*
X80238956Y-42880445D01*
X80143718Y-42832826D01*
X80048480Y-42737588D01*
X80000860Y-42594731D01*
X80000860Y-42499493D01*
X80048480Y-42356636D01*
X80096099Y-42309017D01*
X80000860Y-41404255D02*
X80000860Y-41880445D01*
X80477051Y-41928064D01*
X80429432Y-41880445D01*
X80381813Y-41785207D01*
X80381813Y-41547112D01*
X80429432Y-41451874D01*
X80477051Y-41404255D01*
X80572289Y-41356636D01*
X80810384Y-41356636D01*
X80905622Y-41404255D01*
X80953241Y-41451874D01*
X81000860Y-41547112D01*
X81000860Y-41785207D01*
X80953241Y-41880445D01*
X80905622Y-41928064D01*
X80429432Y-40785207D02*
X80381813Y-40880445D01*
X80334194Y-40928064D01*
X80238956Y-40975683D01*
X80191337Y-40975683D01*
X80096099Y-40928064D01*
X80048480Y-40880445D01*
X80000860Y-40785207D01*
X80000860Y-40594731D01*
X80048480Y-40499493D01*
X80096099Y-40451874D01*
X80191337Y-40404255D01*
X80238956Y-40404255D01*
X80334194Y-40451874D01*
X80381813Y-40499493D01*
X80429432Y-40594731D01*
X80429432Y-40785207D01*
X80477051Y-40880445D01*
X80524670Y-40928064D01*
X80619908Y-40975683D01*
X80810384Y-40975683D01*
X80905622Y-40928064D01*
X80953241Y-40880445D01*
X81000860Y-40785207D01*
X81000860Y-40594731D01*
X80953241Y-40499493D01*
X80905622Y-40451874D01*
X80810384Y-40404255D01*
X80619908Y-40404255D01*
X80524670Y-40451874D01*
X80477051Y-40499493D01*
X80429432Y-40594731D01*
X68394342Y-50699942D02*
X68346723Y-50747561D01*
X68203866Y-50795180D01*
X68108628Y-50795180D01*
X67965771Y-50747561D01*
X67870533Y-50652323D01*
X67822914Y-50557085D01*
X67775295Y-50366609D01*
X67775295Y-50223752D01*
X67822914Y-50033276D01*
X67870533Y-49938038D01*
X67965771Y-49842800D01*
X68108628Y-49795180D01*
X68203866Y-49795180D01*
X68346723Y-49842800D01*
X68394342Y-49890419D01*
X69299104Y-49795180D02*
X68822914Y-49795180D01*
X68775295Y-50271371D01*
X68822914Y-50223752D01*
X68918152Y-50176133D01*
X69156247Y-50176133D01*
X69251485Y-50223752D01*
X69299104Y-50271371D01*
X69346723Y-50366609D01*
X69346723Y-50604704D01*
X69299104Y-50699942D01*
X69251485Y-50747561D01*
X69156247Y-50795180D01*
X68918152Y-50795180D01*
X68822914Y-50747561D01*
X68775295Y-50699942D01*
X69680057Y-49795180D02*
X70346723Y-49795180D01*
X69918152Y-50795180D01*
X87803142Y-45471142D02*
X87755523Y-45518761D01*
X87612666Y-45566380D01*
X87517428Y-45566380D01*
X87374571Y-45518761D01*
X87279333Y-45423523D01*
X87231714Y-45328285D01*
X87184095Y-45137809D01*
X87184095Y-44994952D01*
X87231714Y-44804476D01*
X87279333Y-44709238D01*
X87374571Y-44614000D01*
X87517428Y-44566380D01*
X87612666Y-44566380D01*
X87755523Y-44614000D01*
X87803142Y-44661619D01*
X88660285Y-44899714D02*
X88660285Y-45566380D01*
X88422190Y-44518761D02*
X88184095Y-45233047D01*
X88803142Y-45233047D01*
X89707904Y-45566380D02*
X89136476Y-45566380D01*
X89422190Y-45566380D02*
X89422190Y-44566380D01*
X89326952Y-44709238D01*
X89231714Y-44804476D01*
X89136476Y-44852095D01*
X88543142Y-39086857D02*
X88590761Y-39134476D01*
X88638380Y-39277333D01*
X88638380Y-39372571D01*
X88590761Y-39515428D01*
X88495523Y-39610666D01*
X88400285Y-39658285D01*
X88209809Y-39705904D01*
X88066952Y-39705904D01*
X87876476Y-39658285D01*
X87781238Y-39610666D01*
X87686000Y-39515428D01*
X87638380Y-39372571D01*
X87638380Y-39277333D01*
X87686000Y-39134476D01*
X87733619Y-39086857D01*
X87971714Y-38229714D02*
X88638380Y-38229714D01*
X87590761Y-38467809D02*
X88305047Y-38705904D01*
X88305047Y-38086857D01*
X87638380Y-37515428D02*
X87638380Y-37420190D01*
X87686000Y-37324952D01*
X87733619Y-37277333D01*
X87828857Y-37229714D01*
X88019333Y-37182095D01*
X88257428Y-37182095D01*
X88447904Y-37229714D01*
X88543142Y-37277333D01*
X88590761Y-37324952D01*
X88638380Y-37420190D01*
X88638380Y-37515428D01*
X88590761Y-37610666D01*
X88543142Y-37658285D01*
X88447904Y-37705904D01*
X88257428Y-37753523D01*
X88019333Y-37753523D01*
X87828857Y-37705904D01*
X87733619Y-37658285D01*
X87686000Y-37610666D01*
X87638380Y-37515428D01*
X91473142Y-39076857D02*
X91520761Y-39124476D01*
X91568380Y-39267333D01*
X91568380Y-39362571D01*
X91520761Y-39505428D01*
X91425523Y-39600666D01*
X91330285Y-39648285D01*
X91139809Y-39695904D01*
X90996952Y-39695904D01*
X90806476Y-39648285D01*
X90711238Y-39600666D01*
X90616000Y-39505428D01*
X90568380Y-39362571D01*
X90568380Y-39267333D01*
X90616000Y-39124476D01*
X90663619Y-39076857D01*
X90568380Y-38743523D02*
X90568380Y-38124476D01*
X90949333Y-38457809D01*
X90949333Y-38314952D01*
X90996952Y-38219714D01*
X91044571Y-38172095D01*
X91139809Y-38124476D01*
X91377904Y-38124476D01*
X91473142Y-38172095D01*
X91520761Y-38219714D01*
X91568380Y-38314952D01*
X91568380Y-38600666D01*
X91520761Y-38695904D01*
X91473142Y-38743523D01*
X91568380Y-37648285D02*
X91568380Y-37457809D01*
X91520761Y-37362571D01*
X91473142Y-37314952D01*
X91330285Y-37219714D01*
X91139809Y-37172095D01*
X90758857Y-37172095D01*
X90663619Y-37219714D01*
X90616000Y-37267333D01*
X90568380Y-37362571D01*
X90568380Y-37553047D01*
X90616000Y-37648285D01*
X90663619Y-37695904D01*
X90758857Y-37743523D01*
X90996952Y-37743523D01*
X91092190Y-37695904D01*
X91139809Y-37648285D01*
X91187428Y-37553047D01*
X91187428Y-37362571D01*
X91139809Y-37267333D01*
X91092190Y-37219714D01*
X90996952Y-37172095D01*
X95703142Y-35391142D02*
X95655523Y-35438761D01*
X95512666Y-35486380D01*
X95417428Y-35486380D01*
X95274571Y-35438761D01*
X95179333Y-35343523D01*
X95131714Y-35248285D01*
X95084095Y-35057809D01*
X95084095Y-34914952D01*
X95131714Y-34724476D01*
X95179333Y-34629238D01*
X95274571Y-34534000D01*
X95417428Y-34486380D01*
X95512666Y-34486380D01*
X95655523Y-34534000D01*
X95703142Y-34581619D01*
X96036476Y-34486380D02*
X96655523Y-34486380D01*
X96322190Y-34867333D01*
X96465047Y-34867333D01*
X96560285Y-34914952D01*
X96607904Y-34962571D01*
X96655523Y-35057809D01*
X96655523Y-35295904D01*
X96607904Y-35391142D01*
X96560285Y-35438761D01*
X96465047Y-35486380D01*
X96179333Y-35486380D01*
X96084095Y-35438761D01*
X96036476Y-35391142D01*
X96988857Y-34486380D02*
X97655523Y-34486380D01*
X97226952Y-35486380D01*
X107083142Y-42826857D02*
X107130761Y-42874476D01*
X107178380Y-43017333D01*
X107178380Y-43112571D01*
X107130761Y-43255428D01*
X107035523Y-43350666D01*
X106940285Y-43398285D01*
X106749809Y-43445904D01*
X106606952Y-43445904D01*
X106416476Y-43398285D01*
X106321238Y-43350666D01*
X106226000Y-43255428D01*
X106178380Y-43112571D01*
X106178380Y-43017333D01*
X106226000Y-42874476D01*
X106273619Y-42826857D01*
X106273619Y-42445904D02*
X106226000Y-42398285D01*
X106178380Y-42303047D01*
X106178380Y-42064952D01*
X106226000Y-41969714D01*
X106273619Y-41922095D01*
X106368857Y-41874476D01*
X106464095Y-41874476D01*
X106606952Y-41922095D01*
X107178380Y-42493523D01*
X107178380Y-41874476D01*
X106178380Y-41541142D02*
X106178380Y-40874476D01*
X107178380Y-41303047D01*
X71863142Y-66136666D02*
X71910761Y-66184285D01*
X71958380Y-66327142D01*
X71958380Y-66422380D01*
X71910761Y-66565238D01*
X71815523Y-66660476D01*
X71720285Y-66708095D01*
X71529809Y-66755714D01*
X71386952Y-66755714D01*
X71196476Y-66708095D01*
X71101238Y-66660476D01*
X71006000Y-66565238D01*
X70958380Y-66422380D01*
X70958380Y-66327142D01*
X71006000Y-66184285D01*
X71053619Y-66136666D01*
X71958380Y-65184285D02*
X71958380Y-65755714D01*
X71958380Y-65470000D02*
X70958380Y-65470000D01*
X71101238Y-65565238D01*
X71196476Y-65660476D01*
X71244095Y-65755714D01*
X74657142Y-66249666D02*
X74704761Y-66297285D01*
X74752380Y-66440142D01*
X74752380Y-66535380D01*
X74704761Y-66678238D01*
X74609523Y-66773476D01*
X74514285Y-66821095D01*
X74323809Y-66868714D01*
X74180952Y-66868714D01*
X73990476Y-66821095D01*
X73895238Y-66773476D01*
X73800000Y-66678238D01*
X73752380Y-66535380D01*
X73752380Y-66440142D01*
X73800000Y-66297285D01*
X73847619Y-66249666D01*
X73847619Y-65868714D02*
X73800000Y-65821095D01*
X73752380Y-65725857D01*
X73752380Y-65487761D01*
X73800000Y-65392523D01*
X73847619Y-65344904D01*
X73942857Y-65297285D01*
X74038095Y-65297285D01*
X74180952Y-65344904D01*
X74752380Y-65916333D01*
X74752380Y-65297285D01*
X90221333Y-54227142D02*
X90173714Y-54274761D01*
X90030857Y-54322380D01*
X89935619Y-54322380D01*
X89792761Y-54274761D01*
X89697523Y-54179523D01*
X89649904Y-54084285D01*
X89602285Y-53893809D01*
X89602285Y-53750952D01*
X89649904Y-53560476D01*
X89697523Y-53465238D01*
X89792761Y-53370000D01*
X89935619Y-53322380D01*
X90030857Y-53322380D01*
X90173714Y-53370000D01*
X90221333Y-53417619D01*
X90554666Y-53322380D02*
X91173714Y-53322380D01*
X90840380Y-53703333D01*
X90983238Y-53703333D01*
X91078476Y-53750952D01*
X91126095Y-53798571D01*
X91173714Y-53893809D01*
X91173714Y-54131904D01*
X91126095Y-54227142D01*
X91078476Y-54274761D01*
X90983238Y-54322380D01*
X90697523Y-54322380D01*
X90602285Y-54274761D01*
X90554666Y-54227142D01*
X83617333Y-54227142D02*
X83569714Y-54274761D01*
X83426857Y-54322380D01*
X83331619Y-54322380D01*
X83188761Y-54274761D01*
X83093523Y-54179523D01*
X83045904Y-54084285D01*
X82998285Y-53893809D01*
X82998285Y-53750952D01*
X83045904Y-53560476D01*
X83093523Y-53465238D01*
X83188761Y-53370000D01*
X83331619Y-53322380D01*
X83426857Y-53322380D01*
X83569714Y-53370000D01*
X83617333Y-53417619D01*
X84474476Y-53655714D02*
X84474476Y-54322380D01*
X84236380Y-53274761D02*
X83998285Y-53989047D01*
X84617333Y-53989047D01*
X77451142Y-66136666D02*
X77498761Y-66184285D01*
X77546380Y-66327142D01*
X77546380Y-66422380D01*
X77498761Y-66565238D01*
X77403523Y-66660476D01*
X77308285Y-66708095D01*
X77117809Y-66755714D01*
X76974952Y-66755714D01*
X76784476Y-66708095D01*
X76689238Y-66660476D01*
X76594000Y-66565238D01*
X76546380Y-66422380D01*
X76546380Y-66327142D01*
X76594000Y-66184285D01*
X76641619Y-66136666D01*
X76546380Y-65231904D02*
X76546380Y-65708095D01*
X77022571Y-65755714D01*
X76974952Y-65708095D01*
X76927333Y-65612857D01*
X76927333Y-65374761D01*
X76974952Y-65279523D01*
X77022571Y-65231904D01*
X77117809Y-65184285D01*
X77355904Y-65184285D01*
X77451142Y-65231904D01*
X77498761Y-65279523D01*
X77546380Y-65374761D01*
X77546380Y-65612857D01*
X77498761Y-65708095D01*
X77451142Y-65755714D01*
X86419142Y-54962666D02*
X86466761Y-55010285D01*
X86514380Y-55153142D01*
X86514380Y-55248380D01*
X86466761Y-55391238D01*
X86371523Y-55486476D01*
X86276285Y-55534095D01*
X86085809Y-55581714D01*
X85942952Y-55581714D01*
X85752476Y-55534095D01*
X85657238Y-55486476D01*
X85562000Y-55391238D01*
X85514380Y-55248380D01*
X85514380Y-55153142D01*
X85562000Y-55010285D01*
X85609619Y-54962666D01*
X85514380Y-54105523D02*
X85514380Y-54296000D01*
X85562000Y-54391238D01*
X85609619Y-54438857D01*
X85752476Y-54534095D01*
X85942952Y-54581714D01*
X86323904Y-54581714D01*
X86419142Y-54534095D01*
X86466761Y-54486476D01*
X86514380Y-54391238D01*
X86514380Y-54200761D01*
X86466761Y-54105523D01*
X86419142Y-54057904D01*
X86323904Y-54010285D01*
X86085809Y-54010285D01*
X85990571Y-54057904D01*
X85942952Y-54105523D01*
X85895333Y-54200761D01*
X85895333Y-54391238D01*
X85942952Y-54486476D01*
X85990571Y-54534095D01*
X86085809Y-54581714D01*
X83617333Y-57275142D02*
X83569714Y-57322761D01*
X83426857Y-57370380D01*
X83331619Y-57370380D01*
X83188761Y-57322761D01*
X83093523Y-57227523D01*
X83045904Y-57132285D01*
X82998285Y-56941809D01*
X82998285Y-56798952D01*
X83045904Y-56608476D01*
X83093523Y-56513238D01*
X83188761Y-56418000D01*
X83331619Y-56370380D01*
X83426857Y-56370380D01*
X83569714Y-56418000D01*
X83617333Y-56465619D01*
X83950666Y-56370380D02*
X84617333Y-56370380D01*
X84188761Y-57370380D01*
X80245142Y-66136666D02*
X80292761Y-66184285D01*
X80340380Y-66327142D01*
X80340380Y-66422380D01*
X80292761Y-66565238D01*
X80197523Y-66660476D01*
X80102285Y-66708095D01*
X79911809Y-66755714D01*
X79768952Y-66755714D01*
X79578476Y-66708095D01*
X79483238Y-66660476D01*
X79388000Y-66565238D01*
X79340380Y-66422380D01*
X79340380Y-66327142D01*
X79388000Y-66184285D01*
X79435619Y-66136666D01*
X79768952Y-65565238D02*
X79721333Y-65660476D01*
X79673714Y-65708095D01*
X79578476Y-65755714D01*
X79530857Y-65755714D01*
X79435619Y-65708095D01*
X79388000Y-65660476D01*
X79340380Y-65565238D01*
X79340380Y-65374761D01*
X79388000Y-65279523D01*
X79435619Y-65231904D01*
X79530857Y-65184285D01*
X79578476Y-65184285D01*
X79673714Y-65231904D01*
X79721333Y-65279523D01*
X79768952Y-65374761D01*
X79768952Y-65565238D01*
X79816571Y-65660476D01*
X79864190Y-65708095D01*
X79959428Y-65755714D01*
X80149904Y-65755714D01*
X80245142Y-65708095D01*
X80292761Y-65660476D01*
X80340380Y-65565238D01*
X80340380Y-65374761D01*
X80292761Y-65279523D01*
X80245142Y-65231904D01*
X80149904Y-65184285D01*
X79959428Y-65184285D01*
X79864190Y-65231904D01*
X79816571Y-65279523D01*
X79768952Y-65374761D01*
X90221333Y-57275142D02*
X90173714Y-57322761D01*
X90030857Y-57370380D01*
X89935619Y-57370380D01*
X89792761Y-57322761D01*
X89697523Y-57227523D01*
X89649904Y-57132285D01*
X89602285Y-56941809D01*
X89602285Y-56798952D01*
X89649904Y-56608476D01*
X89697523Y-56513238D01*
X89792761Y-56418000D01*
X89935619Y-56370380D01*
X90030857Y-56370380D01*
X90173714Y-56418000D01*
X90221333Y-56465619D01*
X90697523Y-57370380D02*
X90888000Y-57370380D01*
X90983238Y-57322761D01*
X91030857Y-57275142D01*
X91126095Y-57132285D01*
X91173714Y-56941809D01*
X91173714Y-56560857D01*
X91126095Y-56465619D01*
X91078476Y-56418000D01*
X90983238Y-56370380D01*
X90792761Y-56370380D01*
X90697523Y-56418000D01*
X90649904Y-56465619D01*
X90602285Y-56560857D01*
X90602285Y-56798952D01*
X90649904Y-56894190D01*
X90697523Y-56941809D01*
X90792761Y-56989428D01*
X90983238Y-56989428D01*
X91078476Y-56941809D01*
X91126095Y-56894190D01*
X91173714Y-56798952D01*
X82887142Y-72007142D02*
X82839523Y-72054761D01*
X82696666Y-72102380D01*
X82601428Y-72102380D01*
X82458571Y-72054761D01*
X82363333Y-71959523D01*
X82315714Y-71864285D01*
X82268095Y-71673809D01*
X82268095Y-71530952D01*
X82315714Y-71340476D01*
X82363333Y-71245238D01*
X82458571Y-71150000D01*
X82601428Y-71102380D01*
X82696666Y-71102380D01*
X82839523Y-71150000D01*
X82887142Y-71197619D01*
X83839523Y-72102380D02*
X83268095Y-72102380D01*
X83553809Y-72102380D02*
X83553809Y-71102380D01*
X83458571Y-71245238D01*
X83363333Y-71340476D01*
X83268095Y-71388095D01*
X84458571Y-71102380D02*
X84553809Y-71102380D01*
X84649047Y-71150000D01*
X84696666Y-71197619D01*
X84744285Y-71292857D01*
X84791904Y-71483333D01*
X84791904Y-71721428D01*
X84744285Y-71911904D01*
X84696666Y-72007142D01*
X84649047Y-72054761D01*
X84553809Y-72102380D01*
X84458571Y-72102380D01*
X84363333Y-72054761D01*
X84315714Y-72007142D01*
X84268095Y-71911904D01*
X84220476Y-71721428D01*
X84220476Y-71483333D01*
X84268095Y-71292857D01*
X84315714Y-71197619D01*
X84363333Y-71150000D01*
X84458571Y-71102380D01*
X93883142Y-68389857D02*
X93930761Y-68437476D01*
X93978380Y-68580333D01*
X93978380Y-68675571D01*
X93930761Y-68818428D01*
X93835523Y-68913666D01*
X93740285Y-68961285D01*
X93549809Y-69008904D01*
X93406952Y-69008904D01*
X93216476Y-68961285D01*
X93121238Y-68913666D01*
X93026000Y-68818428D01*
X92978380Y-68675571D01*
X92978380Y-68580333D01*
X93026000Y-68437476D01*
X93073619Y-68389857D01*
X93978380Y-67437476D02*
X93978380Y-68008904D01*
X93978380Y-67723190D02*
X92978380Y-67723190D01*
X93121238Y-67818428D01*
X93216476Y-67913666D01*
X93264095Y-68008904D01*
X93978380Y-66485095D02*
X93978380Y-67056523D01*
X93978380Y-66770809D02*
X92978380Y-66770809D01*
X93121238Y-66866047D01*
X93216476Y-66961285D01*
X93264095Y-67056523D01*
X93369142Y-60833857D02*
X93416761Y-60881476D01*
X93464380Y-61024333D01*
X93464380Y-61119571D01*
X93416761Y-61262428D01*
X93321523Y-61357666D01*
X93226285Y-61405285D01*
X93035809Y-61452904D01*
X92892952Y-61452904D01*
X92702476Y-61405285D01*
X92607238Y-61357666D01*
X92512000Y-61262428D01*
X92464380Y-61119571D01*
X92464380Y-61024333D01*
X92512000Y-60881476D01*
X92559619Y-60833857D01*
X93464380Y-59881476D02*
X93464380Y-60452904D01*
X93464380Y-60167190D02*
X92464380Y-60167190D01*
X92607238Y-60262428D01*
X92702476Y-60357666D01*
X92750095Y-60452904D01*
X92559619Y-59500523D02*
X92512000Y-59452904D01*
X92464380Y-59357666D01*
X92464380Y-59119571D01*
X92512000Y-59024333D01*
X92559619Y-58976714D01*
X92654857Y-58929095D01*
X92750095Y-58929095D01*
X92892952Y-58976714D01*
X93464380Y-59548142D01*
X93464380Y-58929095D01*
X102979142Y-67863857D02*
X103026761Y-67911476D01*
X103074380Y-68054333D01*
X103074380Y-68149571D01*
X103026761Y-68292428D01*
X102931523Y-68387666D01*
X102836285Y-68435285D01*
X102645809Y-68482904D01*
X102502952Y-68482904D01*
X102312476Y-68435285D01*
X102217238Y-68387666D01*
X102122000Y-68292428D01*
X102074380Y-68149571D01*
X102074380Y-68054333D01*
X102122000Y-67911476D01*
X102169619Y-67863857D01*
X103074380Y-66911476D02*
X103074380Y-67482904D01*
X103074380Y-67197190D02*
X102074380Y-67197190D01*
X102217238Y-67292428D01*
X102312476Y-67387666D01*
X102360095Y-67482904D01*
X102074380Y-66578142D02*
X102074380Y-65959095D01*
X102455333Y-66292428D01*
X102455333Y-66149571D01*
X102502952Y-66054333D01*
X102550571Y-66006714D01*
X102645809Y-65959095D01*
X102883904Y-65959095D01*
X102979142Y-66006714D01*
X103026761Y-66054333D01*
X103074380Y-66149571D01*
X103074380Y-66435285D01*
X103026761Y-66530523D01*
X102979142Y-66578142D01*
X79061142Y-77974857D02*
X79108761Y-78022476D01*
X79156380Y-78165333D01*
X79156380Y-78260571D01*
X79108761Y-78403428D01*
X79013523Y-78498666D01*
X78918285Y-78546285D01*
X78727809Y-78593904D01*
X78584952Y-78593904D01*
X78394476Y-78546285D01*
X78299238Y-78498666D01*
X78204000Y-78403428D01*
X78156380Y-78260571D01*
X78156380Y-78165333D01*
X78204000Y-78022476D01*
X78251619Y-77974857D01*
X79156380Y-77022476D02*
X79156380Y-77593904D01*
X79156380Y-77308190D02*
X78156380Y-77308190D01*
X78299238Y-77403428D01*
X78394476Y-77498666D01*
X78442095Y-77593904D01*
X78489714Y-76165333D02*
X79156380Y-76165333D01*
X78108761Y-76403428D02*
X78823047Y-76641523D01*
X78823047Y-76022476D01*
X97005142Y-69898857D02*
X97052761Y-69946476D01*
X97100380Y-70089333D01*
X97100380Y-70184571D01*
X97052761Y-70327428D01*
X96957523Y-70422666D01*
X96862285Y-70470285D01*
X96671809Y-70517904D01*
X96528952Y-70517904D01*
X96338476Y-70470285D01*
X96243238Y-70422666D01*
X96148000Y-70327428D01*
X96100380Y-70184571D01*
X96100380Y-70089333D01*
X96148000Y-69946476D01*
X96195619Y-69898857D01*
X97100380Y-68946476D02*
X97100380Y-69517904D01*
X97100380Y-69232190D02*
X96100380Y-69232190D01*
X96243238Y-69327428D01*
X96338476Y-69422666D01*
X96386095Y-69517904D01*
X96100380Y-68041714D02*
X96100380Y-68517904D01*
X96576571Y-68565523D01*
X96528952Y-68517904D01*
X96481333Y-68422666D01*
X96481333Y-68184571D01*
X96528952Y-68089333D01*
X96576571Y-68041714D01*
X96671809Y-67994095D01*
X96909904Y-67994095D01*
X97005142Y-68041714D01*
X97052761Y-68089333D01*
X97100380Y-68184571D01*
X97100380Y-68422666D01*
X97052761Y-68517904D01*
X97005142Y-68565523D01*
X96239142Y-77071857D02*
X96286761Y-77119476D01*
X96334380Y-77262333D01*
X96334380Y-77357571D01*
X96286761Y-77500428D01*
X96191523Y-77595666D01*
X96096285Y-77643285D01*
X95905809Y-77690904D01*
X95762952Y-77690904D01*
X95572476Y-77643285D01*
X95477238Y-77595666D01*
X95382000Y-77500428D01*
X95334380Y-77357571D01*
X95334380Y-77262333D01*
X95382000Y-77119476D01*
X95429619Y-77071857D01*
X96334380Y-76119476D02*
X96334380Y-76690904D01*
X96334380Y-76405190D02*
X95334380Y-76405190D01*
X95477238Y-76500428D01*
X95572476Y-76595666D01*
X95620095Y-76690904D01*
X95334380Y-75262333D02*
X95334380Y-75452809D01*
X95382000Y-75548047D01*
X95429619Y-75595666D01*
X95572476Y-75690904D01*
X95762952Y-75738523D01*
X96143904Y-75738523D01*
X96239142Y-75690904D01*
X96286761Y-75643285D01*
X96334380Y-75548047D01*
X96334380Y-75357571D01*
X96286761Y-75262333D01*
X96239142Y-75214714D01*
X96143904Y-75167095D01*
X95905809Y-75167095D01*
X95810571Y-75214714D01*
X95762952Y-75262333D01*
X95715333Y-75357571D01*
X95715333Y-75548047D01*
X95762952Y-75643285D01*
X95810571Y-75690904D01*
X95905809Y-75738523D01*
X92937142Y-77212857D02*
X92984761Y-77260476D01*
X93032380Y-77403333D01*
X93032380Y-77498571D01*
X92984761Y-77641428D01*
X92889523Y-77736666D01*
X92794285Y-77784285D01*
X92603809Y-77831904D01*
X92460952Y-77831904D01*
X92270476Y-77784285D01*
X92175238Y-77736666D01*
X92080000Y-77641428D01*
X92032380Y-77498571D01*
X92032380Y-77403333D01*
X92080000Y-77260476D01*
X92127619Y-77212857D01*
X93032380Y-76260476D02*
X93032380Y-76831904D01*
X93032380Y-76546190D02*
X92032380Y-76546190D01*
X92175238Y-76641428D01*
X92270476Y-76736666D01*
X92318095Y-76831904D01*
X92032380Y-75927142D02*
X92032380Y-75260476D01*
X93032380Y-75689047D01*
X105369142Y-72993142D02*
X105321523Y-73040761D01*
X105178666Y-73088380D01*
X105083428Y-73088380D01*
X104940571Y-73040761D01*
X104845333Y-72945523D01*
X104797714Y-72850285D01*
X104750095Y-72659809D01*
X104750095Y-72516952D01*
X104797714Y-72326476D01*
X104845333Y-72231238D01*
X104940571Y-72136000D01*
X105083428Y-72088380D01*
X105178666Y-72088380D01*
X105321523Y-72136000D01*
X105369142Y-72183619D01*
X106321523Y-73088380D02*
X105750095Y-73088380D01*
X106035809Y-73088380D02*
X106035809Y-72088380D01*
X105940571Y-72231238D01*
X105845333Y-72326476D01*
X105750095Y-72374095D01*
X106892952Y-72516952D02*
X106797714Y-72469333D01*
X106750095Y-72421714D01*
X106702476Y-72326476D01*
X106702476Y-72278857D01*
X106750095Y-72183619D01*
X106797714Y-72136000D01*
X106892952Y-72088380D01*
X107083428Y-72088380D01*
X107178666Y-72136000D01*
X107226285Y-72183619D01*
X107273904Y-72278857D01*
X107273904Y-72326476D01*
X107226285Y-72421714D01*
X107178666Y-72469333D01*
X107083428Y-72516952D01*
X106892952Y-72516952D01*
X106797714Y-72564571D01*
X106750095Y-72612190D01*
X106702476Y-72707428D01*
X106702476Y-72897904D01*
X106750095Y-72993142D01*
X106797714Y-73040761D01*
X106892952Y-73088380D01*
X107083428Y-73088380D01*
X107178666Y-73040761D01*
X107226285Y-72993142D01*
X107273904Y-72897904D01*
X107273904Y-72707428D01*
X107226285Y-72612190D01*
X107178666Y-72564571D01*
X107083428Y-72516952D01*
X104254142Y-69113142D02*
X104206523Y-69160761D01*
X104063666Y-69208380D01*
X103968428Y-69208380D01*
X103825571Y-69160761D01*
X103730333Y-69065523D01*
X103682714Y-68970285D01*
X103635095Y-68779809D01*
X103635095Y-68636952D01*
X103682714Y-68446476D01*
X103730333Y-68351238D01*
X103825571Y-68256000D01*
X103968428Y-68208380D01*
X104063666Y-68208380D01*
X104206523Y-68256000D01*
X104254142Y-68303619D01*
X105206523Y-69208380D02*
X104635095Y-69208380D01*
X104920809Y-69208380D02*
X104920809Y-68208380D01*
X104825571Y-68351238D01*
X104730333Y-68446476D01*
X104635095Y-68494095D01*
X105682714Y-69208380D02*
X105873190Y-69208380D01*
X105968428Y-69160761D01*
X106016047Y-69113142D01*
X106111285Y-68970285D01*
X106158904Y-68779809D01*
X106158904Y-68398857D01*
X106111285Y-68303619D01*
X106063666Y-68256000D01*
X105968428Y-68208380D01*
X105777952Y-68208380D01*
X105682714Y-68256000D01*
X105635095Y-68303619D01*
X105587476Y-68398857D01*
X105587476Y-68636952D01*
X105635095Y-68732190D01*
X105682714Y-68779809D01*
X105777952Y-68827428D01*
X105968428Y-68827428D01*
X106063666Y-68779809D01*
X106111285Y-68732190D01*
X106158904Y-68636952D01*
X104099142Y-56858857D02*
X104146761Y-56906476D01*
X104194380Y-57049333D01*
X104194380Y-57144571D01*
X104146761Y-57287428D01*
X104051523Y-57382666D01*
X103956285Y-57430285D01*
X103765809Y-57477904D01*
X103622952Y-57477904D01*
X103432476Y-57430285D01*
X103337238Y-57382666D01*
X103242000Y-57287428D01*
X103194380Y-57144571D01*
X103194380Y-57049333D01*
X103242000Y-56906476D01*
X103289619Y-56858857D01*
X103289619Y-56477904D02*
X103242000Y-56430285D01*
X103194380Y-56335047D01*
X103194380Y-56096952D01*
X103242000Y-56001714D01*
X103289619Y-55954095D01*
X103384857Y-55906476D01*
X103480095Y-55906476D01*
X103622952Y-55954095D01*
X104194380Y-56525523D01*
X104194380Y-55906476D01*
X103194380Y-55287428D02*
X103194380Y-55192190D01*
X103242000Y-55096952D01*
X103289619Y-55049333D01*
X103384857Y-55001714D01*
X103575333Y-54954095D01*
X103813428Y-54954095D01*
X104003904Y-55001714D01*
X104099142Y-55049333D01*
X104146761Y-55096952D01*
X104194380Y-55192190D01*
X104194380Y-55287428D01*
X104146761Y-55382666D01*
X104099142Y-55430285D01*
X104003904Y-55477904D01*
X103813428Y-55525523D01*
X103575333Y-55525523D01*
X103384857Y-55477904D01*
X103289619Y-55430285D01*
X103242000Y-55382666D01*
X103194380Y-55287428D01*
X107459142Y-56988857D02*
X107506761Y-57036476D01*
X107554380Y-57179333D01*
X107554380Y-57274571D01*
X107506761Y-57417428D01*
X107411523Y-57512666D01*
X107316285Y-57560285D01*
X107125809Y-57607904D01*
X106982952Y-57607904D01*
X106792476Y-57560285D01*
X106697238Y-57512666D01*
X106602000Y-57417428D01*
X106554380Y-57274571D01*
X106554380Y-57179333D01*
X106602000Y-57036476D01*
X106649619Y-56988857D01*
X106649619Y-56607904D02*
X106602000Y-56560285D01*
X106554380Y-56465047D01*
X106554380Y-56226952D01*
X106602000Y-56131714D01*
X106649619Y-56084095D01*
X106744857Y-56036476D01*
X106840095Y-56036476D01*
X106982952Y-56084095D01*
X107554380Y-56655523D01*
X107554380Y-56036476D01*
X107554380Y-55084095D02*
X107554380Y-55655523D01*
X107554380Y-55369809D02*
X106554380Y-55369809D01*
X106697238Y-55465047D01*
X106792476Y-55560285D01*
X106840095Y-55655523D01*
X66636662Y-117903262D02*
X66589043Y-117950881D01*
X66446186Y-117998500D01*
X66350948Y-117998500D01*
X66208091Y-117950881D01*
X66112853Y-117855643D01*
X66065234Y-117760405D01*
X66017615Y-117569929D01*
X66017615Y-117427072D01*
X66065234Y-117236596D01*
X66112853Y-117141358D01*
X66208091Y-117046120D01*
X66350948Y-116998500D01*
X66446186Y-116998500D01*
X66589043Y-117046120D01*
X66636662Y-117093739D01*
X67017615Y-117093739D02*
X67065234Y-117046120D01*
X67160472Y-116998500D01*
X67398567Y-116998500D01*
X67493805Y-117046120D01*
X67541424Y-117093739D01*
X67589043Y-117188977D01*
X67589043Y-117284215D01*
X67541424Y-117427072D01*
X66969996Y-117998500D01*
X67589043Y-117998500D01*
X67969996Y-117093739D02*
X68017615Y-117046120D01*
X68112853Y-116998500D01*
X68350948Y-116998500D01*
X68446186Y-117046120D01*
X68493805Y-117093739D01*
X68541424Y-117188977D01*
X68541424Y-117284215D01*
X68493805Y-117427072D01*
X67922377Y-117998500D01*
X68541424Y-117998500D01*
X67012582Y-114773982D02*
X66964963Y-114821601D01*
X66822106Y-114869220D01*
X66726868Y-114869220D01*
X66584011Y-114821601D01*
X66488773Y-114726363D01*
X66441154Y-114631125D01*
X66393535Y-114440649D01*
X66393535Y-114297792D01*
X66441154Y-114107316D01*
X66488773Y-114012078D01*
X66584011Y-113916840D01*
X66726868Y-113869220D01*
X66822106Y-113869220D01*
X66964963Y-113916840D01*
X67012582Y-113964459D01*
X67393535Y-113964459D02*
X67441154Y-113916840D01*
X67536392Y-113869220D01*
X67774487Y-113869220D01*
X67869725Y-113916840D01*
X67917344Y-113964459D01*
X67964963Y-114059697D01*
X67964963Y-114154935D01*
X67917344Y-114297792D01*
X67345916Y-114869220D01*
X67964963Y-114869220D01*
X68298297Y-113869220D02*
X68917344Y-113869220D01*
X68584011Y-114250173D01*
X68726868Y-114250173D01*
X68822106Y-114297792D01*
X68869725Y-114345411D01*
X68917344Y-114440649D01*
X68917344Y-114678744D01*
X68869725Y-114773982D01*
X68822106Y-114821601D01*
X68726868Y-114869220D01*
X68441154Y-114869220D01*
X68345916Y-114821601D01*
X68298297Y-114773982D01*
X100757142Y-121857857D02*
X100804761Y-121905476D01*
X100852380Y-122048333D01*
X100852380Y-122143571D01*
X100804761Y-122286428D01*
X100709523Y-122381666D01*
X100614285Y-122429285D01*
X100423809Y-122476904D01*
X100280952Y-122476904D01*
X100090476Y-122429285D01*
X99995238Y-122381666D01*
X99900000Y-122286428D01*
X99852380Y-122143571D01*
X99852380Y-122048333D01*
X99900000Y-121905476D01*
X99947619Y-121857857D01*
X99947619Y-121476904D02*
X99900000Y-121429285D01*
X99852380Y-121334047D01*
X99852380Y-121095952D01*
X99900000Y-121000714D01*
X99947619Y-120953095D01*
X100042857Y-120905476D01*
X100138095Y-120905476D01*
X100280952Y-120953095D01*
X100852380Y-121524523D01*
X100852380Y-120905476D01*
X100185714Y-120048333D02*
X100852380Y-120048333D01*
X99804761Y-120286428D02*
X100519047Y-120524523D01*
X100519047Y-119905476D01*
X57130142Y-120926857D02*
X57177761Y-120974476D01*
X57225380Y-121117333D01*
X57225380Y-121212571D01*
X57177761Y-121355428D01*
X57082523Y-121450666D01*
X56987285Y-121498285D01*
X56796809Y-121545904D01*
X56653952Y-121545904D01*
X56463476Y-121498285D01*
X56368238Y-121450666D01*
X56273000Y-121355428D01*
X56225380Y-121212571D01*
X56225380Y-121117333D01*
X56273000Y-120974476D01*
X56320619Y-120926857D01*
X56320619Y-120545904D02*
X56273000Y-120498285D01*
X56225380Y-120403047D01*
X56225380Y-120164952D01*
X56273000Y-120069714D01*
X56320619Y-120022095D01*
X56415857Y-119974476D01*
X56511095Y-119974476D01*
X56653952Y-120022095D01*
X57225380Y-120593523D01*
X57225380Y-119974476D01*
X56225380Y-119117333D02*
X56225380Y-119307809D01*
X56273000Y-119403047D01*
X56320619Y-119450666D01*
X56463476Y-119545904D01*
X56653952Y-119593523D01*
X57034904Y-119593523D01*
X57130142Y-119545904D01*
X57177761Y-119498285D01*
X57225380Y-119403047D01*
X57225380Y-119212571D01*
X57177761Y-119117333D01*
X57130142Y-119069714D01*
X57034904Y-119022095D01*
X56796809Y-119022095D01*
X56701571Y-119069714D01*
X56653952Y-119117333D01*
X56606333Y-119212571D01*
X56606333Y-119403047D01*
X56653952Y-119498285D01*
X56701571Y-119545904D01*
X56796809Y-119593523D01*
X85359642Y-99502142D02*
X85312023Y-99549761D01*
X85169166Y-99597380D01*
X85073928Y-99597380D01*
X84931071Y-99549761D01*
X84835833Y-99454523D01*
X84788214Y-99359285D01*
X84740595Y-99168809D01*
X84740595Y-99025952D01*
X84788214Y-98835476D01*
X84835833Y-98740238D01*
X84931071Y-98645000D01*
X85073928Y-98597380D01*
X85169166Y-98597380D01*
X85312023Y-98645000D01*
X85359642Y-98692619D01*
X85740595Y-98692619D02*
X85788214Y-98645000D01*
X85883452Y-98597380D01*
X86121547Y-98597380D01*
X86216785Y-98645000D01*
X86264404Y-98692619D01*
X86312023Y-98787857D01*
X86312023Y-98883095D01*
X86264404Y-99025952D01*
X85692976Y-99597380D01*
X86312023Y-99597380D01*
X86788214Y-99597380D02*
X86978690Y-99597380D01*
X87073928Y-99549761D01*
X87121547Y-99502142D01*
X87216785Y-99359285D01*
X87264404Y-99168809D01*
X87264404Y-98787857D01*
X87216785Y-98692619D01*
X87169166Y-98645000D01*
X87073928Y-98597380D01*
X86883452Y-98597380D01*
X86788214Y-98645000D01*
X86740595Y-98692619D01*
X86692976Y-98787857D01*
X86692976Y-99025952D01*
X86740595Y-99121190D01*
X86788214Y-99168809D01*
X86883452Y-99216428D01*
X87073928Y-99216428D01*
X87169166Y-99168809D01*
X87216785Y-99121190D01*
X87264404Y-99025952D01*
X104153142Y-43446857D02*
X104200761Y-43494476D01*
X104248380Y-43637333D01*
X104248380Y-43732571D01*
X104200761Y-43875428D01*
X104105523Y-43970666D01*
X104010285Y-44018285D01*
X103819809Y-44065904D01*
X103676952Y-44065904D01*
X103486476Y-44018285D01*
X103391238Y-43970666D01*
X103296000Y-43875428D01*
X103248380Y-43732571D01*
X103248380Y-43637333D01*
X103296000Y-43494476D01*
X103343619Y-43446857D01*
X103248380Y-43113523D02*
X103248380Y-42494476D01*
X103629333Y-42827809D01*
X103629333Y-42684952D01*
X103676952Y-42589714D01*
X103724571Y-42542095D01*
X103819809Y-42494476D01*
X104057904Y-42494476D01*
X104153142Y-42542095D01*
X104200761Y-42589714D01*
X104248380Y-42684952D01*
X104248380Y-42970666D01*
X104200761Y-43065904D01*
X104153142Y-43113523D01*
X103248380Y-41875428D02*
X103248380Y-41780190D01*
X103296000Y-41684952D01*
X103343619Y-41637333D01*
X103438857Y-41589714D01*
X103629333Y-41542095D01*
X103867428Y-41542095D01*
X104057904Y-41589714D01*
X104153142Y-41637333D01*
X104200761Y-41684952D01*
X104248380Y-41780190D01*
X104248380Y-41875428D01*
X104200761Y-41970666D01*
X104153142Y-42018285D01*
X104057904Y-42065904D01*
X103867428Y-42113523D01*
X103629333Y-42113523D01*
X103438857Y-42065904D01*
X103343619Y-42018285D01*
X103296000Y-41970666D01*
X103248380Y-41875428D01*
X98506142Y-30780357D02*
X98553761Y-30827976D01*
X98601380Y-30970833D01*
X98601380Y-31066071D01*
X98553761Y-31208928D01*
X98458523Y-31304166D01*
X98363285Y-31351785D01*
X98172809Y-31399404D01*
X98029952Y-31399404D01*
X97839476Y-31351785D01*
X97744238Y-31304166D01*
X97649000Y-31208928D01*
X97601380Y-31066071D01*
X97601380Y-30970833D01*
X97649000Y-30827976D01*
X97696619Y-30780357D01*
X97601380Y-30447023D02*
X97601380Y-29827976D01*
X97982333Y-30161309D01*
X97982333Y-30018452D01*
X98029952Y-29923214D01*
X98077571Y-29875595D01*
X98172809Y-29827976D01*
X98410904Y-29827976D01*
X98506142Y-29875595D01*
X98553761Y-29923214D01*
X98601380Y-30018452D01*
X98601380Y-30304166D01*
X98553761Y-30399404D01*
X98506142Y-30447023D01*
X98601380Y-28875595D02*
X98601380Y-29447023D01*
X98601380Y-29161309D02*
X97601380Y-29161309D01*
X97744238Y-29256547D01*
X97839476Y-29351785D01*
X97887095Y-29447023D01*
X81977142Y-85707857D02*
X82024761Y-85755476D01*
X82072380Y-85898333D01*
X82072380Y-85993571D01*
X82024761Y-86136428D01*
X81929523Y-86231666D01*
X81834285Y-86279285D01*
X81643809Y-86326904D01*
X81500952Y-86326904D01*
X81310476Y-86279285D01*
X81215238Y-86231666D01*
X81120000Y-86136428D01*
X81072380Y-85993571D01*
X81072380Y-85898333D01*
X81120000Y-85755476D01*
X81167619Y-85707857D01*
X81072380Y-85374523D02*
X81072380Y-84755476D01*
X81453333Y-85088809D01*
X81453333Y-84945952D01*
X81500952Y-84850714D01*
X81548571Y-84803095D01*
X81643809Y-84755476D01*
X81881904Y-84755476D01*
X81977142Y-84803095D01*
X82024761Y-84850714D01*
X82072380Y-84945952D01*
X82072380Y-85231666D01*
X82024761Y-85326904D01*
X81977142Y-85374523D01*
X81072380Y-84422142D02*
X81072380Y-83803095D01*
X81453333Y-84136428D01*
X81453333Y-83993571D01*
X81500952Y-83898333D01*
X81548571Y-83850714D01*
X81643809Y-83803095D01*
X81881904Y-83803095D01*
X81977142Y-83850714D01*
X82024761Y-83898333D01*
X82072380Y-83993571D01*
X82072380Y-84279285D01*
X82024761Y-84374523D01*
X81977142Y-84422142D01*
X95332142Y-31587857D02*
X95379761Y-31635476D01*
X95427380Y-31778333D01*
X95427380Y-31873571D01*
X95379761Y-32016428D01*
X95284523Y-32111666D01*
X95189285Y-32159285D01*
X94998809Y-32206904D01*
X94855952Y-32206904D01*
X94665476Y-32159285D01*
X94570238Y-32111666D01*
X94475000Y-32016428D01*
X94427380Y-31873571D01*
X94427380Y-31778333D01*
X94475000Y-31635476D01*
X94522619Y-31587857D01*
X94427380Y-31254523D02*
X94427380Y-30635476D01*
X94808333Y-30968809D01*
X94808333Y-30825952D01*
X94855952Y-30730714D01*
X94903571Y-30683095D01*
X94998809Y-30635476D01*
X95236904Y-30635476D01*
X95332142Y-30683095D01*
X95379761Y-30730714D01*
X95427380Y-30825952D01*
X95427380Y-31111666D01*
X95379761Y-31206904D01*
X95332142Y-31254523D01*
X94760714Y-29778333D02*
X95427380Y-29778333D01*
X94379761Y-30016428D02*
X95094047Y-30254523D01*
X95094047Y-29635476D01*
X78737142Y-86327857D02*
X78784761Y-86375476D01*
X78832380Y-86518333D01*
X78832380Y-86613571D01*
X78784761Y-86756428D01*
X78689523Y-86851666D01*
X78594285Y-86899285D01*
X78403809Y-86946904D01*
X78260952Y-86946904D01*
X78070476Y-86899285D01*
X77975238Y-86851666D01*
X77880000Y-86756428D01*
X77832380Y-86613571D01*
X77832380Y-86518333D01*
X77880000Y-86375476D01*
X77927619Y-86327857D01*
X77832380Y-85994523D02*
X77832380Y-85375476D01*
X78213333Y-85708809D01*
X78213333Y-85565952D01*
X78260952Y-85470714D01*
X78308571Y-85423095D01*
X78403809Y-85375476D01*
X78641904Y-85375476D01*
X78737142Y-85423095D01*
X78784761Y-85470714D01*
X78832380Y-85565952D01*
X78832380Y-85851666D01*
X78784761Y-85946904D01*
X78737142Y-85994523D01*
X77832380Y-84518333D02*
X77832380Y-84708809D01*
X77880000Y-84804047D01*
X77927619Y-84851666D01*
X78070476Y-84946904D01*
X78260952Y-84994523D01*
X78641904Y-84994523D01*
X78737142Y-84946904D01*
X78784761Y-84899285D01*
X78832380Y-84804047D01*
X78832380Y-84613571D01*
X78784761Y-84518333D01*
X78737142Y-84470714D01*
X78641904Y-84423095D01*
X78403809Y-84423095D01*
X78308571Y-84470714D01*
X78260952Y-84518333D01*
X78213333Y-84613571D01*
X78213333Y-84804047D01*
X78260952Y-84899285D01*
X78308571Y-84946904D01*
X78403809Y-84994523D01*
X91133142Y-48196857D02*
X91180761Y-48244476D01*
X91228380Y-48387333D01*
X91228380Y-48482571D01*
X91180761Y-48625428D01*
X91085523Y-48720666D01*
X90990285Y-48768285D01*
X90799809Y-48815904D01*
X90656952Y-48815904D01*
X90466476Y-48768285D01*
X90371238Y-48720666D01*
X90276000Y-48625428D01*
X90228380Y-48482571D01*
X90228380Y-48387333D01*
X90276000Y-48244476D01*
X90323619Y-48196857D01*
X90561714Y-47339714D02*
X91228380Y-47339714D01*
X90180761Y-47577809D02*
X90895047Y-47815904D01*
X90895047Y-47196857D01*
X90323619Y-46863523D02*
X90276000Y-46815904D01*
X90228380Y-46720666D01*
X90228380Y-46482571D01*
X90276000Y-46387333D01*
X90323619Y-46339714D01*
X90418857Y-46292095D01*
X90514095Y-46292095D01*
X90656952Y-46339714D01*
X91228380Y-46911142D01*
X91228380Y-46292095D01*
X36903422Y-45015422D02*
X36855803Y-45063041D01*
X36712946Y-45110660D01*
X36617708Y-45110660D01*
X36474851Y-45063041D01*
X36379613Y-44967803D01*
X36331994Y-44872565D01*
X36284375Y-44682089D01*
X36284375Y-44539232D01*
X36331994Y-44348756D01*
X36379613Y-44253518D01*
X36474851Y-44158280D01*
X36617708Y-44110660D01*
X36712946Y-44110660D01*
X36855803Y-44158280D01*
X36903422Y-44205899D01*
X37760565Y-44443994D02*
X37760565Y-45110660D01*
X37522470Y-44063041D02*
X37284375Y-44777327D01*
X37903422Y-44777327D01*
X38189137Y-44110660D02*
X38808184Y-44110660D01*
X38474851Y-44491613D01*
X38617708Y-44491613D01*
X38712946Y-44539232D01*
X38760565Y-44586851D01*
X38808184Y-44682089D01*
X38808184Y-44920184D01*
X38760565Y-45015422D01*
X38712946Y-45063041D01*
X38617708Y-45110660D01*
X38331994Y-45110660D01*
X38236756Y-45063041D01*
X38189137Y-45015422D01*
X37005022Y-51929302D02*
X36957403Y-51976921D01*
X36814546Y-52024540D01*
X36719308Y-52024540D01*
X36576451Y-51976921D01*
X36481213Y-51881683D01*
X36433594Y-51786445D01*
X36385975Y-51595969D01*
X36385975Y-51453112D01*
X36433594Y-51262636D01*
X36481213Y-51167398D01*
X36576451Y-51072160D01*
X36719308Y-51024540D01*
X36814546Y-51024540D01*
X36957403Y-51072160D01*
X37005022Y-51119779D01*
X37862165Y-51357874D02*
X37862165Y-52024540D01*
X37624070Y-50976921D02*
X37385975Y-51691207D01*
X38005022Y-51691207D01*
X38814546Y-51357874D02*
X38814546Y-52024540D01*
X38576451Y-50976921D02*
X38338356Y-51691207D01*
X38957403Y-51691207D01*
X36658822Y-57833497D02*
X36706441Y-57881116D01*
X36754060Y-58023973D01*
X36754060Y-58119211D01*
X36706441Y-58262068D01*
X36611203Y-58357306D01*
X36515965Y-58404925D01*
X36325489Y-58452544D01*
X36182632Y-58452544D01*
X35992156Y-58404925D01*
X35896918Y-58357306D01*
X35801680Y-58262068D01*
X35754060Y-58119211D01*
X35754060Y-58023973D01*
X35801680Y-57881116D01*
X35849299Y-57833497D01*
X36087394Y-56976354D02*
X36754060Y-56976354D01*
X35706441Y-57214449D02*
X36420727Y-57452544D01*
X36420727Y-56833497D01*
X35754060Y-55976354D02*
X35754060Y-56452544D01*
X36230251Y-56500163D01*
X36182632Y-56452544D01*
X36135013Y-56357306D01*
X36135013Y-56119211D01*
X36182632Y-56023973D01*
X36230251Y-55976354D01*
X36325489Y-55928735D01*
X36563584Y-55928735D01*
X36658822Y-55976354D01*
X36706441Y-56023973D01*
X36754060Y-56119211D01*
X36754060Y-56357306D01*
X36706441Y-56452544D01*
X36658822Y-56500163D01*
X47890702Y-56919097D02*
X47938321Y-56966716D01*
X47985940Y-57109573D01*
X47985940Y-57204811D01*
X47938321Y-57347668D01*
X47843083Y-57442906D01*
X47747845Y-57490525D01*
X47557369Y-57538144D01*
X47414512Y-57538144D01*
X47224036Y-57490525D01*
X47128798Y-57442906D01*
X47033560Y-57347668D01*
X46985940Y-57204811D01*
X46985940Y-57109573D01*
X47033560Y-56966716D01*
X47081179Y-56919097D01*
X47319274Y-56061954D02*
X47985940Y-56061954D01*
X46938321Y-56300049D02*
X47652607Y-56538144D01*
X47652607Y-55919097D01*
X46985940Y-55109573D02*
X46985940Y-55300049D01*
X47033560Y-55395287D01*
X47081179Y-55442906D01*
X47224036Y-55538144D01*
X47414512Y-55585763D01*
X47795464Y-55585763D01*
X47890702Y-55538144D01*
X47938321Y-55490525D01*
X47985940Y-55395287D01*
X47985940Y-55204811D01*
X47938321Y-55109573D01*
X47890702Y-55061954D01*
X47795464Y-55014335D01*
X47557369Y-55014335D01*
X47462131Y-55061954D01*
X47414512Y-55109573D01*
X47366893Y-55204811D01*
X47366893Y-55395287D01*
X47414512Y-55490525D01*
X47462131Y-55538144D01*
X47557369Y-55585763D01*
X58975262Y-70655417D02*
X59022881Y-70703036D01*
X59070500Y-70845893D01*
X59070500Y-70941131D01*
X59022881Y-71083988D01*
X58927643Y-71179226D01*
X58832405Y-71226845D01*
X58641929Y-71274464D01*
X58499072Y-71274464D01*
X58308596Y-71226845D01*
X58213358Y-71179226D01*
X58118120Y-71083988D01*
X58070500Y-70941131D01*
X58070500Y-70845893D01*
X58118120Y-70703036D01*
X58165739Y-70655417D01*
X58403834Y-69798274D02*
X59070500Y-69798274D01*
X58022881Y-70036369D02*
X58737167Y-70274464D01*
X58737167Y-69655417D01*
X58070500Y-69369702D02*
X58070500Y-68703036D01*
X59070500Y-69131607D01*
X48008302Y-53128182D02*
X47960683Y-53175801D01*
X47817826Y-53223420D01*
X47722588Y-53223420D01*
X47579731Y-53175801D01*
X47484493Y-53080563D01*
X47436874Y-52985325D01*
X47389255Y-52794849D01*
X47389255Y-52651992D01*
X47436874Y-52461516D01*
X47484493Y-52366278D01*
X47579731Y-52271040D01*
X47722588Y-52223420D01*
X47817826Y-52223420D01*
X47960683Y-52271040D01*
X48008302Y-52318659D01*
X48865445Y-52556754D02*
X48865445Y-53223420D01*
X48627350Y-52175801D02*
X48389255Y-52890087D01*
X49008302Y-52890087D01*
X49532112Y-52651992D02*
X49436874Y-52604373D01*
X49389255Y-52556754D01*
X49341636Y-52461516D01*
X49341636Y-52413897D01*
X49389255Y-52318659D01*
X49436874Y-52271040D01*
X49532112Y-52223420D01*
X49722588Y-52223420D01*
X49817826Y-52271040D01*
X49865445Y-52318659D01*
X49913064Y-52413897D01*
X49913064Y-52461516D01*
X49865445Y-52556754D01*
X49817826Y-52604373D01*
X49722588Y-52651992D01*
X49532112Y-52651992D01*
X49436874Y-52699611D01*
X49389255Y-52747230D01*
X49341636Y-52842468D01*
X49341636Y-53032944D01*
X49389255Y-53128182D01*
X49436874Y-53175801D01*
X49532112Y-53223420D01*
X49722588Y-53223420D01*
X49817826Y-53175801D01*
X49865445Y-53128182D01*
X49913064Y-53032944D01*
X49913064Y-52842468D01*
X49865445Y-52747230D01*
X49817826Y-52699611D01*
X49722588Y-52651992D01*
X38935142Y-65370857D02*
X38982761Y-65418476D01*
X39030380Y-65561333D01*
X39030380Y-65656571D01*
X38982761Y-65799428D01*
X38887523Y-65894666D01*
X38792285Y-65942285D01*
X38601809Y-65989904D01*
X38458952Y-65989904D01*
X38268476Y-65942285D01*
X38173238Y-65894666D01*
X38078000Y-65799428D01*
X38030380Y-65656571D01*
X38030380Y-65561333D01*
X38078000Y-65418476D01*
X38125619Y-65370857D01*
X38363714Y-64513714D02*
X39030380Y-64513714D01*
X37982761Y-64751809D02*
X38697047Y-64989904D01*
X38697047Y-64370857D01*
X39030380Y-63942285D02*
X39030380Y-63751809D01*
X38982761Y-63656571D01*
X38935142Y-63608952D01*
X38792285Y-63513714D01*
X38601809Y-63466095D01*
X38220857Y-63466095D01*
X38125619Y-63513714D01*
X38078000Y-63561333D01*
X38030380Y-63656571D01*
X38030380Y-63847047D01*
X38078000Y-63942285D01*
X38125619Y-63989904D01*
X38220857Y-64037523D01*
X38458952Y-64037523D01*
X38554190Y-63989904D01*
X38601809Y-63942285D01*
X38649428Y-63847047D01*
X38649428Y-63656571D01*
X38601809Y-63561333D01*
X38554190Y-63513714D01*
X38458952Y-63466095D01*
X62600142Y-68375142D02*
X62552523Y-68422761D01*
X62409666Y-68470380D01*
X62314428Y-68470380D01*
X62171571Y-68422761D01*
X62076333Y-68327523D01*
X62028714Y-68232285D01*
X61981095Y-68041809D01*
X61981095Y-67898952D01*
X62028714Y-67708476D01*
X62076333Y-67613238D01*
X62171571Y-67518000D01*
X62314428Y-67470380D01*
X62409666Y-67470380D01*
X62552523Y-67518000D01*
X62600142Y-67565619D01*
X63504904Y-67470380D02*
X63028714Y-67470380D01*
X62981095Y-67946571D01*
X63028714Y-67898952D01*
X63123952Y-67851333D01*
X63362047Y-67851333D01*
X63457285Y-67898952D01*
X63504904Y-67946571D01*
X63552523Y-68041809D01*
X63552523Y-68279904D01*
X63504904Y-68375142D01*
X63457285Y-68422761D01*
X63362047Y-68470380D01*
X63123952Y-68470380D01*
X63028714Y-68422761D01*
X62981095Y-68375142D01*
X64171571Y-67470380D02*
X64266809Y-67470380D01*
X64362047Y-67518000D01*
X64409666Y-67565619D01*
X64457285Y-67660857D01*
X64504904Y-67851333D01*
X64504904Y-68089428D01*
X64457285Y-68279904D01*
X64409666Y-68375142D01*
X64362047Y-68422761D01*
X64266809Y-68470380D01*
X64171571Y-68470380D01*
X64076333Y-68422761D01*
X64028714Y-68375142D01*
X63981095Y-68279904D01*
X63933476Y-68089428D01*
X63933476Y-67851333D01*
X63981095Y-67660857D01*
X64028714Y-67565619D01*
X64076333Y-67518000D01*
X64171571Y-67470380D01*
X45755142Y-63025857D02*
X45802761Y-63073476D01*
X45850380Y-63216333D01*
X45850380Y-63311571D01*
X45802761Y-63454428D01*
X45707523Y-63549666D01*
X45612285Y-63597285D01*
X45421809Y-63644904D01*
X45278952Y-63644904D01*
X45088476Y-63597285D01*
X44993238Y-63549666D01*
X44898000Y-63454428D01*
X44850380Y-63311571D01*
X44850380Y-63216333D01*
X44898000Y-63073476D01*
X44945619Y-63025857D01*
X44850380Y-62121095D02*
X44850380Y-62597285D01*
X45326571Y-62644904D01*
X45278952Y-62597285D01*
X45231333Y-62502047D01*
X45231333Y-62263952D01*
X45278952Y-62168714D01*
X45326571Y-62121095D01*
X45421809Y-62073476D01*
X45659904Y-62073476D01*
X45755142Y-62121095D01*
X45802761Y-62168714D01*
X45850380Y-62263952D01*
X45850380Y-62502047D01*
X45802761Y-62597285D01*
X45755142Y-62644904D01*
X45850380Y-61121095D02*
X45850380Y-61692523D01*
X45850380Y-61406809D02*
X44850380Y-61406809D01*
X44993238Y-61502047D01*
X45088476Y-61597285D01*
X45136095Y-61692523D01*
X52575142Y-70285142D02*
X52527523Y-70332761D01*
X52384666Y-70380380D01*
X52289428Y-70380380D01*
X52146571Y-70332761D01*
X52051333Y-70237523D01*
X52003714Y-70142285D01*
X51956095Y-69951809D01*
X51956095Y-69808952D01*
X52003714Y-69618476D01*
X52051333Y-69523238D01*
X52146571Y-69428000D01*
X52289428Y-69380380D01*
X52384666Y-69380380D01*
X52527523Y-69428000D01*
X52575142Y-69475619D01*
X53479904Y-69380380D02*
X53003714Y-69380380D01*
X52956095Y-69856571D01*
X53003714Y-69808952D01*
X53098952Y-69761333D01*
X53337047Y-69761333D01*
X53432285Y-69808952D01*
X53479904Y-69856571D01*
X53527523Y-69951809D01*
X53527523Y-70189904D01*
X53479904Y-70285142D01*
X53432285Y-70332761D01*
X53337047Y-70380380D01*
X53098952Y-70380380D01*
X53003714Y-70332761D01*
X52956095Y-70285142D01*
X53908476Y-69475619D02*
X53956095Y-69428000D01*
X54051333Y-69380380D01*
X54289428Y-69380380D01*
X54384666Y-69428000D01*
X54432285Y-69475619D01*
X54479904Y-69570857D01*
X54479904Y-69666095D01*
X54432285Y-69808952D01*
X53860857Y-70380380D01*
X54479904Y-70380380D01*
X42525142Y-63105857D02*
X42572761Y-63153476D01*
X42620380Y-63296333D01*
X42620380Y-63391571D01*
X42572761Y-63534428D01*
X42477523Y-63629666D01*
X42382285Y-63677285D01*
X42191809Y-63724904D01*
X42048952Y-63724904D01*
X41858476Y-63677285D01*
X41763238Y-63629666D01*
X41668000Y-63534428D01*
X41620380Y-63391571D01*
X41620380Y-63296333D01*
X41668000Y-63153476D01*
X41715619Y-63105857D01*
X41620380Y-62201095D02*
X41620380Y-62677285D01*
X42096571Y-62724904D01*
X42048952Y-62677285D01*
X42001333Y-62582047D01*
X42001333Y-62343952D01*
X42048952Y-62248714D01*
X42096571Y-62201095D01*
X42191809Y-62153476D01*
X42429904Y-62153476D01*
X42525142Y-62201095D01*
X42572761Y-62248714D01*
X42620380Y-62343952D01*
X42620380Y-62582047D01*
X42572761Y-62677285D01*
X42525142Y-62724904D01*
X41620380Y-61820142D02*
X41620380Y-61201095D01*
X42001333Y-61534428D01*
X42001333Y-61391571D01*
X42048952Y-61296333D01*
X42096571Y-61248714D01*
X42191809Y-61201095D01*
X42429904Y-61201095D01*
X42525142Y-61248714D01*
X42572761Y-61296333D01*
X42620380Y-61391571D01*
X42620380Y-61677285D01*
X42572761Y-61772523D01*
X42525142Y-61820142D01*
X69145142Y-54235857D02*
X69192761Y-54283476D01*
X69240380Y-54426333D01*
X69240380Y-54521571D01*
X69192761Y-54664428D01*
X69097523Y-54759666D01*
X69002285Y-54807285D01*
X68811809Y-54854904D01*
X68668952Y-54854904D01*
X68478476Y-54807285D01*
X68383238Y-54759666D01*
X68288000Y-54664428D01*
X68240380Y-54521571D01*
X68240380Y-54426333D01*
X68288000Y-54283476D01*
X68335619Y-54235857D01*
X68240380Y-53331095D02*
X68240380Y-53807285D01*
X68716571Y-53854904D01*
X68668952Y-53807285D01*
X68621333Y-53712047D01*
X68621333Y-53473952D01*
X68668952Y-53378714D01*
X68716571Y-53331095D01*
X68811809Y-53283476D01*
X69049904Y-53283476D01*
X69145142Y-53331095D01*
X69192761Y-53378714D01*
X69240380Y-53473952D01*
X69240380Y-53712047D01*
X69192761Y-53807285D01*
X69145142Y-53854904D01*
X68573714Y-52426333D02*
X69240380Y-52426333D01*
X68192761Y-52664428D02*
X68907047Y-52902523D01*
X68907047Y-52283476D01*
X53216142Y-49131142D02*
X53168523Y-49178761D01*
X53025666Y-49226380D01*
X52930428Y-49226380D01*
X52787571Y-49178761D01*
X52692333Y-49083523D01*
X52644714Y-48988285D01*
X52597095Y-48797809D01*
X52597095Y-48654952D01*
X52644714Y-48464476D01*
X52692333Y-48369238D01*
X52787571Y-48274000D01*
X52930428Y-48226380D01*
X53025666Y-48226380D01*
X53168523Y-48274000D01*
X53216142Y-48321619D01*
X54120904Y-48226380D02*
X53644714Y-48226380D01*
X53597095Y-48702571D01*
X53644714Y-48654952D01*
X53739952Y-48607333D01*
X53978047Y-48607333D01*
X54073285Y-48654952D01*
X54120904Y-48702571D01*
X54168523Y-48797809D01*
X54168523Y-49035904D01*
X54120904Y-49131142D01*
X54073285Y-49178761D01*
X53978047Y-49226380D01*
X53739952Y-49226380D01*
X53644714Y-49178761D01*
X53597095Y-49131142D01*
X55073285Y-48226380D02*
X54597095Y-48226380D01*
X54549476Y-48702571D01*
X54597095Y-48654952D01*
X54692333Y-48607333D01*
X54930428Y-48607333D01*
X55025666Y-48654952D01*
X55073285Y-48702571D01*
X55120904Y-48797809D01*
X55120904Y-49035904D01*
X55073285Y-49131142D01*
X55025666Y-49178761D01*
X54930428Y-49226380D01*
X54692333Y-49226380D01*
X54597095Y-49178761D01*
X54549476Y-49131142D01*
X62105302Y-71228222D02*
X62057683Y-71275841D01*
X61914826Y-71323460D01*
X61819588Y-71323460D01*
X61676731Y-71275841D01*
X61581493Y-71180603D01*
X61533874Y-71085365D01*
X61486255Y-70894889D01*
X61486255Y-70752032D01*
X61533874Y-70561556D01*
X61581493Y-70466318D01*
X61676731Y-70371080D01*
X61819588Y-70323460D01*
X61914826Y-70323460D01*
X62057683Y-70371080D01*
X62105302Y-70418699D01*
X63010064Y-70323460D02*
X62533874Y-70323460D01*
X62486255Y-70799651D01*
X62533874Y-70752032D01*
X62629112Y-70704413D01*
X62867207Y-70704413D01*
X62962445Y-70752032D01*
X63010064Y-70799651D01*
X63057683Y-70894889D01*
X63057683Y-71132984D01*
X63010064Y-71228222D01*
X62962445Y-71275841D01*
X62867207Y-71323460D01*
X62629112Y-71323460D01*
X62533874Y-71275841D01*
X62486255Y-71228222D01*
X63914826Y-70323460D02*
X63724350Y-70323460D01*
X63629112Y-70371080D01*
X63581493Y-70418699D01*
X63486255Y-70561556D01*
X63438636Y-70752032D01*
X63438636Y-71132984D01*
X63486255Y-71228222D01*
X63533874Y-71275841D01*
X63629112Y-71323460D01*
X63819588Y-71323460D01*
X63914826Y-71275841D01*
X63962445Y-71228222D01*
X64010064Y-71132984D01*
X64010064Y-70894889D01*
X63962445Y-70799651D01*
X63914826Y-70752032D01*
X63819588Y-70704413D01*
X63629112Y-70704413D01*
X63533874Y-70752032D01*
X63486255Y-70799651D01*
X63438636Y-70894889D01*
X108960714Y-88132142D02*
X108913095Y-88179761D01*
X108770238Y-88227380D01*
X108675000Y-88227380D01*
X108532142Y-88179761D01*
X108436904Y-88084523D01*
X108389285Y-87989285D01*
X108341666Y-87798809D01*
X108341666Y-87655952D01*
X108389285Y-87465476D01*
X108436904Y-87370238D01*
X108532142Y-87275000D01*
X108675000Y-87227380D01*
X108770238Y-87227380D01*
X108913095Y-87275000D01*
X108960714Y-87322619D01*
X109579761Y-87227380D02*
X109770238Y-87227380D01*
X109865476Y-87275000D01*
X109960714Y-87370238D01*
X110008333Y-87560714D01*
X110008333Y-87894047D01*
X109960714Y-88084523D01*
X109865476Y-88179761D01*
X109770238Y-88227380D01*
X109579761Y-88227380D01*
X109484523Y-88179761D01*
X109389285Y-88084523D01*
X109341666Y-87894047D01*
X109341666Y-87560714D01*
X109389285Y-87370238D01*
X109484523Y-87275000D01*
X109579761Y-87227380D01*
X110436904Y-88227380D02*
X110436904Y-87227380D01*
X111008333Y-88227380D01*
X111008333Y-87227380D01*
X112008333Y-88227380D02*
X111436904Y-88227380D01*
X111722619Y-88227380D02*
X111722619Y-87227380D01*
X111627380Y-87370238D01*
X111532142Y-87465476D01*
X111436904Y-87513095D01*
X89057380Y-31963095D02*
X88057380Y-31963095D01*
X88057380Y-31725000D01*
X88105000Y-31582142D01*
X88200238Y-31486904D01*
X88295476Y-31439285D01*
X88485952Y-31391666D01*
X88628809Y-31391666D01*
X88819285Y-31439285D01*
X88914523Y-31486904D01*
X89009761Y-31582142D01*
X89057380Y-31725000D01*
X89057380Y-31963095D01*
X88057380Y-31058333D02*
X88057380Y-30439285D01*
X88438333Y-30772619D01*
X88438333Y-30629761D01*
X88485952Y-30534523D01*
X88533571Y-30486904D01*
X88628809Y-30439285D01*
X88866904Y-30439285D01*
X88962142Y-30486904D01*
X89009761Y-30534523D01*
X89057380Y-30629761D01*
X89057380Y-30915476D01*
X89009761Y-31010714D01*
X88962142Y-31058333D01*
X49100380Y-69151095D02*
X48100380Y-69151095D01*
X48100380Y-68913000D01*
X48148000Y-68770142D01*
X48243238Y-68674904D01*
X48338476Y-68627285D01*
X48528952Y-68579666D01*
X48671809Y-68579666D01*
X48862285Y-68627285D01*
X48957523Y-68674904D01*
X49052761Y-68770142D01*
X49100380Y-68913000D01*
X49100380Y-69151095D01*
X48433714Y-67722523D02*
X49100380Y-67722523D01*
X48052761Y-67960619D02*
X48767047Y-68198714D01*
X48767047Y-67579666D01*
X45710380Y-67376095D02*
X44710380Y-67376095D01*
X44710380Y-67138000D01*
X44758000Y-66995142D01*
X44853238Y-66899904D01*
X44948476Y-66852285D01*
X45138952Y-66804666D01*
X45281809Y-66804666D01*
X45472285Y-66852285D01*
X45567523Y-66899904D01*
X45662761Y-66995142D01*
X45710380Y-67138000D01*
X45710380Y-67376095D01*
X44710380Y-65899904D02*
X44710380Y-66376095D01*
X45186571Y-66423714D01*
X45138952Y-66376095D01*
X45091333Y-66280857D01*
X45091333Y-66042761D01*
X45138952Y-65947523D01*
X45186571Y-65899904D01*
X45281809Y-65852285D01*
X45519904Y-65852285D01*
X45615142Y-65899904D01*
X45662761Y-65947523D01*
X45710380Y-66042761D01*
X45710380Y-66280857D01*
X45662761Y-66376095D01*
X45615142Y-66423714D01*
X70131428Y-75532666D02*
X70131428Y-75199333D01*
X69607619Y-75199333D02*
X70607619Y-75199333D01*
X70607619Y-75675523D01*
X70131428Y-76389809D02*
X70083809Y-76532666D01*
X70036190Y-76580285D01*
X69940952Y-76627904D01*
X69798095Y-76627904D01*
X69702857Y-76580285D01*
X69655238Y-76532666D01*
X69607619Y-76437428D01*
X69607619Y-76056476D01*
X70607619Y-76056476D01*
X70607619Y-76389809D01*
X70560000Y-76485047D01*
X70512380Y-76532666D01*
X70417142Y-76580285D01*
X70321904Y-76580285D01*
X70226666Y-76532666D01*
X70179047Y-76485047D01*
X70131428Y-76389809D01*
X70131428Y-76056476D01*
X69607619Y-77580285D02*
X69607619Y-77008857D01*
X69607619Y-77294571D02*
X70607619Y-77294571D01*
X70464761Y-77199333D01*
X70369523Y-77104095D01*
X70321904Y-77008857D01*
X114840426Y-103805740D02*
X114840426Y-104520026D01*
X114792807Y-104662883D01*
X114697569Y-104758121D01*
X114554712Y-104805740D01*
X114459474Y-104805740D01*
X115221379Y-103805740D02*
X115840426Y-103805740D01*
X115507093Y-104186693D01*
X115649950Y-104186693D01*
X115745188Y-104234312D01*
X115792807Y-104281931D01*
X115840426Y-104377169D01*
X115840426Y-104615264D01*
X115792807Y-104710502D01*
X115745188Y-104758121D01*
X115649950Y-104805740D01*
X115364236Y-104805740D01*
X115268998Y-104758121D01*
X115221379Y-104710502D01*
X114219666Y-25803380D02*
X114219666Y-26517666D01*
X114172047Y-26660523D01*
X114076809Y-26755761D01*
X113933952Y-26803380D01*
X113838714Y-26803380D01*
X115124428Y-26136714D02*
X115124428Y-26803380D01*
X114886333Y-25755761D02*
X114648238Y-26470047D01*
X115267285Y-26470047D01*
X98034100Y-114471746D02*
X98034100Y-114947937D01*
X97034100Y-114947937D01*
X98034100Y-113614603D02*
X98034100Y-114186032D01*
X98034100Y-113900318D02*
X97034100Y-113900318D01*
X97176958Y-113995556D01*
X97272196Y-114090794D01*
X97319815Y-114186032D01*
X94475380Y-114545000D02*
X94713476Y-114545000D01*
X94618238Y-114783095D02*
X94713476Y-114545000D01*
X94618238Y-114306904D01*
X94903952Y-114687857D02*
X94713476Y-114545000D01*
X94903952Y-114402142D01*
X92083333Y-119467380D02*
X91607142Y-119467380D01*
X91607142Y-118467380D01*
X92369047Y-118562619D02*
X92416666Y-118515000D01*
X92511904Y-118467380D01*
X92750000Y-118467380D01*
X92845238Y-118515000D01*
X92892857Y-118562619D01*
X92940476Y-118657857D01*
X92940476Y-118753095D01*
X92892857Y-118895952D01*
X92321428Y-119467380D01*
X92940476Y-119467380D01*
X91498380Y-43050666D02*
X91498380Y-43526857D01*
X90498380Y-43526857D01*
X90498380Y-42812571D02*
X90498380Y-42193523D01*
X90879333Y-42526857D01*
X90879333Y-42384000D01*
X90926952Y-42288761D01*
X90974571Y-42241142D01*
X91069809Y-42193523D01*
X91307904Y-42193523D01*
X91403142Y-42241142D01*
X91450761Y-42288761D01*
X91498380Y-42384000D01*
X91498380Y-42669714D01*
X91450761Y-42764952D01*
X91403142Y-42812571D01*
X42770380Y-67149666D02*
X42770380Y-67625857D01*
X41770380Y-67625857D01*
X42103714Y-66387761D02*
X42770380Y-66387761D01*
X41722761Y-66625857D02*
X42437047Y-66863952D01*
X42437047Y-66244904D01*
X68137666Y-24764380D02*
X68137666Y-23764380D01*
X68471000Y-24478666D01*
X68804333Y-23764380D01*
X68804333Y-24764380D01*
X69471000Y-23764380D02*
X69661476Y-23764380D01*
X69756714Y-23812000D01*
X69851952Y-23907238D01*
X69899571Y-24097714D01*
X69899571Y-24431047D01*
X69851952Y-24621523D01*
X69756714Y-24716761D01*
X69661476Y-24764380D01*
X69471000Y-24764380D01*
X69375761Y-24716761D01*
X69280523Y-24621523D01*
X69232904Y-24431047D01*
X69232904Y-24097714D01*
X69280523Y-23907238D01*
X69375761Y-23812000D01*
X69471000Y-23764380D01*
X70328142Y-24764380D02*
X70328142Y-23764380D01*
X70566238Y-23764380D01*
X70709095Y-23812000D01*
X70804333Y-23907238D01*
X70851952Y-24002476D01*
X70899571Y-24192952D01*
X70899571Y-24335809D01*
X70851952Y-24526285D01*
X70804333Y-24621523D01*
X70709095Y-24716761D01*
X70566238Y-24764380D01*
X70328142Y-24764380D01*
X71851952Y-24764380D02*
X71280523Y-24764380D01*
X71566238Y-24764380D02*
X71566238Y-23764380D01*
X71471000Y-23907238D01*
X71375761Y-24002476D01*
X71280523Y-24050095D01*
X82692500Y-36986506D02*
X82216310Y-37319840D01*
X82692500Y-37557935D02*
X81692500Y-37557935D01*
X81692500Y-37176982D01*
X81740120Y-37081744D01*
X81787739Y-37034125D01*
X81882977Y-36986506D01*
X82025834Y-36986506D01*
X82121072Y-37034125D01*
X82168691Y-37081744D01*
X82216310Y-37176982D01*
X82216310Y-37557935D01*
X82692500Y-36034125D02*
X82692500Y-36605554D01*
X82692500Y-36319840D02*
X81692500Y-36319840D01*
X81835358Y-36415078D01*
X81930596Y-36510316D01*
X81978215Y-36605554D01*
X87935333Y-74990380D02*
X87602000Y-74514190D01*
X87363904Y-74990380D02*
X87363904Y-73990380D01*
X87744857Y-73990380D01*
X87840095Y-74038000D01*
X87887714Y-74085619D01*
X87935333Y-74180857D01*
X87935333Y-74323714D01*
X87887714Y-74418952D01*
X87840095Y-74466571D01*
X87744857Y-74514190D01*
X87363904Y-74514190D01*
X88316285Y-74085619D02*
X88363904Y-74038000D01*
X88459142Y-73990380D01*
X88697238Y-73990380D01*
X88792476Y-74038000D01*
X88840095Y-74085619D01*
X88887714Y-74180857D01*
X88887714Y-74276095D01*
X88840095Y-74418952D01*
X88268666Y-74990380D01*
X88887714Y-74990380D01*
X95514380Y-57887666D02*
X95038190Y-58221000D01*
X95514380Y-58459095D02*
X94514380Y-58459095D01*
X94514380Y-58078142D01*
X94562000Y-57982904D01*
X94609619Y-57935285D01*
X94704857Y-57887666D01*
X94847714Y-57887666D01*
X94942952Y-57935285D01*
X94990571Y-57982904D01*
X95038190Y-58078142D01*
X95038190Y-58459095D01*
X94514380Y-57554333D02*
X94514380Y-56935285D01*
X94895333Y-57268619D01*
X94895333Y-57125761D01*
X94942952Y-57030523D01*
X94990571Y-56982904D01*
X95085809Y-56935285D01*
X95323904Y-56935285D01*
X95419142Y-56982904D01*
X95466761Y-57030523D01*
X95514380Y-57125761D01*
X95514380Y-57411476D01*
X95466761Y-57506714D01*
X95419142Y-57554333D01*
X95604380Y-54257666D02*
X95128190Y-54591000D01*
X95604380Y-54829095D02*
X94604380Y-54829095D01*
X94604380Y-54448142D01*
X94652000Y-54352904D01*
X94699619Y-54305285D01*
X94794857Y-54257666D01*
X94937714Y-54257666D01*
X95032952Y-54305285D01*
X95080571Y-54352904D01*
X95128190Y-54448142D01*
X95128190Y-54829095D01*
X94937714Y-53400523D02*
X95604380Y-53400523D01*
X94556761Y-53638619D02*
X95271047Y-53876714D01*
X95271047Y-53257666D01*
X85600380Y-77385666D02*
X85124190Y-77719000D01*
X85600380Y-77957095D02*
X84600380Y-77957095D01*
X84600380Y-77576142D01*
X84648000Y-77480904D01*
X84695619Y-77433285D01*
X84790857Y-77385666D01*
X84933714Y-77385666D01*
X85028952Y-77433285D01*
X85076571Y-77480904D01*
X85124190Y-77576142D01*
X85124190Y-77957095D01*
X84600380Y-76480904D02*
X84600380Y-76957095D01*
X85076571Y-77004714D01*
X85028952Y-76957095D01*
X84981333Y-76861857D01*
X84981333Y-76623761D01*
X85028952Y-76528523D01*
X85076571Y-76480904D01*
X85171809Y-76433285D01*
X85409904Y-76433285D01*
X85505142Y-76480904D01*
X85552761Y-76528523D01*
X85600380Y-76623761D01*
X85600380Y-76861857D01*
X85552761Y-76957095D01*
X85505142Y-77004714D01*
X82552380Y-77498666D02*
X82076190Y-77832000D01*
X82552380Y-78070095D02*
X81552380Y-78070095D01*
X81552380Y-77689142D01*
X81600000Y-77593904D01*
X81647619Y-77546285D01*
X81742857Y-77498666D01*
X81885714Y-77498666D01*
X81980952Y-77546285D01*
X82028571Y-77593904D01*
X82076190Y-77689142D01*
X82076190Y-78070095D01*
X81552380Y-76641523D02*
X81552380Y-76832000D01*
X81600000Y-76927238D01*
X81647619Y-76974857D01*
X81790476Y-77070095D01*
X81980952Y-77117714D01*
X82361904Y-77117714D01*
X82457142Y-77070095D01*
X82504761Y-77022476D01*
X82552380Y-76927238D01*
X82552380Y-76736761D01*
X82504761Y-76641523D01*
X82457142Y-76593904D01*
X82361904Y-76546285D01*
X82123809Y-76546285D01*
X82028571Y-76593904D01*
X81980952Y-76641523D01*
X81933333Y-76736761D01*
X81933333Y-76927238D01*
X81980952Y-77022476D01*
X82028571Y-77070095D01*
X82123809Y-77117714D01*
X98204380Y-57087666D02*
X97728190Y-57421000D01*
X98204380Y-57659095D02*
X97204380Y-57659095D01*
X97204380Y-57278142D01*
X97252000Y-57182904D01*
X97299619Y-57135285D01*
X97394857Y-57087666D01*
X97537714Y-57087666D01*
X97632952Y-57135285D01*
X97680571Y-57182904D01*
X97728190Y-57278142D01*
X97728190Y-57659095D01*
X97204380Y-56754333D02*
X97204380Y-56087666D01*
X98204380Y-56516238D01*
X98934380Y-52197666D02*
X98458190Y-52531000D01*
X98934380Y-52769095D02*
X97934380Y-52769095D01*
X97934380Y-52388142D01*
X97982000Y-52292904D01*
X98029619Y-52245285D01*
X98124857Y-52197666D01*
X98267714Y-52197666D01*
X98362952Y-52245285D01*
X98410571Y-52292904D01*
X98458190Y-52388142D01*
X98458190Y-52769095D01*
X98362952Y-51626238D02*
X98315333Y-51721476D01*
X98267714Y-51769095D01*
X98172476Y-51816714D01*
X98124857Y-51816714D01*
X98029619Y-51769095D01*
X97982000Y-51721476D01*
X97934380Y-51626238D01*
X97934380Y-51435761D01*
X97982000Y-51340523D01*
X98029619Y-51292904D01*
X98124857Y-51245285D01*
X98172476Y-51245285D01*
X98267714Y-51292904D01*
X98315333Y-51340523D01*
X98362952Y-51435761D01*
X98362952Y-51626238D01*
X98410571Y-51721476D01*
X98458190Y-51769095D01*
X98553428Y-51816714D01*
X98743904Y-51816714D01*
X98839142Y-51769095D01*
X98886761Y-51721476D01*
X98934380Y-51626238D01*
X98934380Y-51435761D01*
X98886761Y-51340523D01*
X98839142Y-51292904D01*
X98743904Y-51245285D01*
X98553428Y-51245285D01*
X98458190Y-51292904D01*
X98410571Y-51340523D01*
X98362952Y-51435761D01*
X75772380Y-79541666D02*
X75296190Y-79875000D01*
X75772380Y-80113095D02*
X74772380Y-80113095D01*
X74772380Y-79732142D01*
X74820000Y-79636904D01*
X74867619Y-79589285D01*
X74962857Y-79541666D01*
X75105714Y-79541666D01*
X75200952Y-79589285D01*
X75248571Y-79636904D01*
X75296190Y-79732142D01*
X75296190Y-80113095D01*
X75772380Y-79065476D02*
X75772380Y-78875000D01*
X75724761Y-78779761D01*
X75677142Y-78732142D01*
X75534285Y-78636904D01*
X75343809Y-78589285D01*
X74962857Y-78589285D01*
X74867619Y-78636904D01*
X74820000Y-78684523D01*
X74772380Y-78779761D01*
X74772380Y-78970238D01*
X74820000Y-79065476D01*
X74867619Y-79113095D01*
X74962857Y-79160714D01*
X75200952Y-79160714D01*
X75296190Y-79113095D01*
X75343809Y-79065476D01*
X75391428Y-78970238D01*
X75391428Y-78779761D01*
X75343809Y-78684523D01*
X75296190Y-78636904D01*
X75200952Y-78589285D01*
X93474380Y-72386857D02*
X92998190Y-72720190D01*
X93474380Y-72958285D02*
X92474380Y-72958285D01*
X92474380Y-72577333D01*
X92522000Y-72482095D01*
X92569619Y-72434476D01*
X92664857Y-72386857D01*
X92807714Y-72386857D01*
X92902952Y-72434476D01*
X92950571Y-72482095D01*
X92998190Y-72577333D01*
X92998190Y-72958285D01*
X93474380Y-71434476D02*
X93474380Y-72005904D01*
X93474380Y-71720190D02*
X92474380Y-71720190D01*
X92617238Y-71815428D01*
X92712476Y-71910666D01*
X92760095Y-72005904D01*
X92474380Y-70815428D02*
X92474380Y-70720190D01*
X92522000Y-70624952D01*
X92569619Y-70577333D01*
X92664857Y-70529714D01*
X92855333Y-70482095D01*
X93093428Y-70482095D01*
X93283904Y-70529714D01*
X93379142Y-70577333D01*
X93426761Y-70624952D01*
X93474380Y-70720190D01*
X93474380Y-70815428D01*
X93426761Y-70910666D01*
X93379142Y-70958285D01*
X93283904Y-71005904D01*
X93093428Y-71053523D01*
X92855333Y-71053523D01*
X92664857Y-71005904D01*
X92569619Y-70958285D01*
X92522000Y-70910666D01*
X92474380Y-70815428D01*
X90172380Y-72640857D02*
X89696190Y-72974190D01*
X90172380Y-73212285D02*
X89172380Y-73212285D01*
X89172380Y-72831333D01*
X89220000Y-72736095D01*
X89267619Y-72688476D01*
X89362857Y-72640857D01*
X89505714Y-72640857D01*
X89600952Y-72688476D01*
X89648571Y-72736095D01*
X89696190Y-72831333D01*
X89696190Y-73212285D01*
X90172380Y-71688476D02*
X90172380Y-72259904D01*
X90172380Y-71974190D02*
X89172380Y-71974190D01*
X89315238Y-72069428D01*
X89410476Y-72164666D01*
X89458095Y-72259904D01*
X90172380Y-70736095D02*
X90172380Y-71307523D01*
X90172380Y-71021809D02*
X89172380Y-71021809D01*
X89315238Y-71117047D01*
X89410476Y-71212285D01*
X89458095Y-71307523D01*
X101834142Y-60188380D02*
X101500809Y-59712190D01*
X101262714Y-60188380D02*
X101262714Y-59188380D01*
X101643666Y-59188380D01*
X101738904Y-59236000D01*
X101786523Y-59283619D01*
X101834142Y-59378857D01*
X101834142Y-59521714D01*
X101786523Y-59616952D01*
X101738904Y-59664571D01*
X101643666Y-59712190D01*
X101262714Y-59712190D01*
X102786523Y-60188380D02*
X102215095Y-60188380D01*
X102500809Y-60188380D02*
X102500809Y-59188380D01*
X102405571Y-59331238D01*
X102310333Y-59426476D01*
X102215095Y-59474095D01*
X103167476Y-59283619D02*
X103215095Y-59236000D01*
X103310333Y-59188380D01*
X103548428Y-59188380D01*
X103643666Y-59236000D01*
X103691285Y-59283619D01*
X103738904Y-59378857D01*
X103738904Y-59474095D01*
X103691285Y-59616952D01*
X103119857Y-60188380D01*
X103738904Y-60188380D01*
X101689142Y-63298380D02*
X101355809Y-62822190D01*
X101117714Y-63298380D02*
X101117714Y-62298380D01*
X101498666Y-62298380D01*
X101593904Y-62346000D01*
X101641523Y-62393619D01*
X101689142Y-62488857D01*
X101689142Y-62631714D01*
X101641523Y-62726952D01*
X101593904Y-62774571D01*
X101498666Y-62822190D01*
X101117714Y-62822190D01*
X102641523Y-63298380D02*
X102070095Y-63298380D01*
X102355809Y-63298380D02*
X102355809Y-62298380D01*
X102260571Y-62441238D01*
X102165333Y-62536476D01*
X102070095Y-62584095D01*
X102974857Y-62298380D02*
X103593904Y-62298380D01*
X103260571Y-62679333D01*
X103403428Y-62679333D01*
X103498666Y-62726952D01*
X103546285Y-62774571D01*
X103593904Y-62869809D01*
X103593904Y-63107904D01*
X103546285Y-63203142D01*
X103498666Y-63250761D01*
X103403428Y-63298380D01*
X103117714Y-63298380D01*
X103022476Y-63250761D01*
X102974857Y-63203142D01*
X45340142Y-80806380D02*
X45006809Y-80330190D01*
X44768714Y-80806380D02*
X44768714Y-79806380D01*
X45149666Y-79806380D01*
X45244904Y-79854000D01*
X45292523Y-79901619D01*
X45340142Y-79996857D01*
X45340142Y-80139714D01*
X45292523Y-80234952D01*
X45244904Y-80282571D01*
X45149666Y-80330190D01*
X44768714Y-80330190D01*
X46292523Y-80806380D02*
X45721095Y-80806380D01*
X46006809Y-80806380D02*
X46006809Y-79806380D01*
X45911571Y-79949238D01*
X45816333Y-80044476D01*
X45721095Y-80092095D01*
X47149666Y-80139714D02*
X47149666Y-80806380D01*
X46911571Y-79758761D02*
X46673476Y-80473047D01*
X47292523Y-80473047D01*
X47050380Y-83986857D02*
X46574190Y-84320190D01*
X47050380Y-84558285D02*
X46050380Y-84558285D01*
X46050380Y-84177333D01*
X46098000Y-84082095D01*
X46145619Y-84034476D01*
X46240857Y-83986857D01*
X46383714Y-83986857D01*
X46478952Y-84034476D01*
X46526571Y-84082095D01*
X46574190Y-84177333D01*
X46574190Y-84558285D01*
X47050380Y-83034476D02*
X47050380Y-83605904D01*
X47050380Y-83320190D02*
X46050380Y-83320190D01*
X46193238Y-83415428D01*
X46288476Y-83510666D01*
X46336095Y-83605904D01*
X46050380Y-82129714D02*
X46050380Y-82605904D01*
X46526571Y-82653523D01*
X46478952Y-82605904D01*
X46431333Y-82510666D01*
X46431333Y-82272571D01*
X46478952Y-82177333D01*
X46526571Y-82129714D01*
X46621809Y-82082095D01*
X46859904Y-82082095D01*
X46955142Y-82129714D01*
X47002761Y-82177333D01*
X47050380Y-82272571D01*
X47050380Y-82510666D01*
X47002761Y-82605904D01*
X46955142Y-82653523D01*
X44170380Y-83981857D02*
X43694190Y-84315190D01*
X44170380Y-84553285D02*
X43170380Y-84553285D01*
X43170380Y-84172333D01*
X43218000Y-84077095D01*
X43265619Y-84029476D01*
X43360857Y-83981857D01*
X43503714Y-83981857D01*
X43598952Y-84029476D01*
X43646571Y-84077095D01*
X43694190Y-84172333D01*
X43694190Y-84553285D01*
X44170380Y-83029476D02*
X44170380Y-83600904D01*
X44170380Y-83315190D02*
X43170380Y-83315190D01*
X43313238Y-83410428D01*
X43408476Y-83505666D01*
X43456095Y-83600904D01*
X43170380Y-82172333D02*
X43170380Y-82362809D01*
X43218000Y-82458047D01*
X43265619Y-82505666D01*
X43408476Y-82600904D01*
X43598952Y-82648523D01*
X43979904Y-82648523D01*
X44075142Y-82600904D01*
X44122761Y-82553285D01*
X44170380Y-82458047D01*
X44170380Y-82267571D01*
X44122761Y-82172333D01*
X44075142Y-82124714D01*
X43979904Y-82077095D01*
X43741809Y-82077095D01*
X43646571Y-82124714D01*
X43598952Y-82172333D01*
X43551333Y-82267571D01*
X43551333Y-82458047D01*
X43598952Y-82553285D01*
X43646571Y-82600904D01*
X43741809Y-82648523D01*
X38370380Y-83976857D02*
X37894190Y-84310190D01*
X38370380Y-84548285D02*
X37370380Y-84548285D01*
X37370380Y-84167333D01*
X37418000Y-84072095D01*
X37465619Y-84024476D01*
X37560857Y-83976857D01*
X37703714Y-83976857D01*
X37798952Y-84024476D01*
X37846571Y-84072095D01*
X37894190Y-84167333D01*
X37894190Y-84548285D01*
X38370380Y-83024476D02*
X38370380Y-83595904D01*
X38370380Y-83310190D02*
X37370380Y-83310190D01*
X37513238Y-83405428D01*
X37608476Y-83500666D01*
X37656095Y-83595904D01*
X37798952Y-82453047D02*
X37751333Y-82548285D01*
X37703714Y-82595904D01*
X37608476Y-82643523D01*
X37560857Y-82643523D01*
X37465619Y-82595904D01*
X37418000Y-82548285D01*
X37370380Y-82453047D01*
X37370380Y-82262571D01*
X37418000Y-82167333D01*
X37465619Y-82119714D01*
X37560857Y-82072095D01*
X37608476Y-82072095D01*
X37703714Y-82119714D01*
X37751333Y-82167333D01*
X37798952Y-82262571D01*
X37798952Y-82453047D01*
X37846571Y-82548285D01*
X37894190Y-82595904D01*
X37989428Y-82643523D01*
X38179904Y-82643523D01*
X38275142Y-82595904D01*
X38322761Y-82548285D01*
X38370380Y-82453047D01*
X38370380Y-82262571D01*
X38322761Y-82167333D01*
X38275142Y-82119714D01*
X38179904Y-82072095D01*
X37989428Y-82072095D01*
X37894190Y-82119714D01*
X37846571Y-82167333D01*
X37798952Y-82262571D01*
X61920380Y-119006857D02*
X61444190Y-119340190D01*
X61920380Y-119578285D02*
X60920380Y-119578285D01*
X60920380Y-119197333D01*
X60968000Y-119102095D01*
X61015619Y-119054476D01*
X61110857Y-119006857D01*
X61253714Y-119006857D01*
X61348952Y-119054476D01*
X61396571Y-119102095D01*
X61444190Y-119197333D01*
X61444190Y-119578285D01*
X61920380Y-118054476D02*
X61920380Y-118625904D01*
X61920380Y-118340190D02*
X60920380Y-118340190D01*
X61063238Y-118435428D01*
X61158476Y-118530666D01*
X61206095Y-118625904D01*
X61920380Y-117578285D02*
X61920380Y-117387809D01*
X61872761Y-117292571D01*
X61825142Y-117244952D01*
X61682285Y-117149714D01*
X61491809Y-117102095D01*
X61110857Y-117102095D01*
X61015619Y-117149714D01*
X60968000Y-117197333D01*
X60920380Y-117292571D01*
X60920380Y-117483047D01*
X60968000Y-117578285D01*
X61015619Y-117625904D01*
X61110857Y-117673523D01*
X61348952Y-117673523D01*
X61444190Y-117625904D01*
X61491809Y-117578285D01*
X61539428Y-117483047D01*
X61539428Y-117292571D01*
X61491809Y-117197333D01*
X61444190Y-117149714D01*
X61348952Y-117102095D01*
X71600142Y-114536380D02*
X71266809Y-114060190D01*
X71028714Y-114536380D02*
X71028714Y-113536380D01*
X71409666Y-113536380D01*
X71504904Y-113584000D01*
X71552523Y-113631619D01*
X71600142Y-113726857D01*
X71600142Y-113869714D01*
X71552523Y-113964952D01*
X71504904Y-114012571D01*
X71409666Y-114060190D01*
X71028714Y-114060190D01*
X71981095Y-113631619D02*
X72028714Y-113584000D01*
X72123952Y-113536380D01*
X72362047Y-113536380D01*
X72457285Y-113584000D01*
X72504904Y-113631619D01*
X72552523Y-113726857D01*
X72552523Y-113822095D01*
X72504904Y-113964952D01*
X71933476Y-114536380D01*
X72552523Y-114536380D01*
X73171571Y-113536380D02*
X73266809Y-113536380D01*
X73362047Y-113584000D01*
X73409666Y-113631619D01*
X73457285Y-113726857D01*
X73504904Y-113917333D01*
X73504904Y-114155428D01*
X73457285Y-114345904D01*
X73409666Y-114441142D01*
X73362047Y-114488761D01*
X73266809Y-114536380D01*
X73171571Y-114536380D01*
X73076333Y-114488761D01*
X73028714Y-114441142D01*
X72981095Y-114345904D01*
X72933476Y-114155428D01*
X72933476Y-113917333D01*
X72981095Y-113726857D01*
X73028714Y-113631619D01*
X73076333Y-113584000D01*
X73171571Y-113536380D01*
X71560142Y-117786380D02*
X71226809Y-117310190D01*
X70988714Y-117786380D02*
X70988714Y-116786380D01*
X71369666Y-116786380D01*
X71464904Y-116834000D01*
X71512523Y-116881619D01*
X71560142Y-116976857D01*
X71560142Y-117119714D01*
X71512523Y-117214952D01*
X71464904Y-117262571D01*
X71369666Y-117310190D01*
X70988714Y-117310190D01*
X71941095Y-116881619D02*
X71988714Y-116834000D01*
X72083952Y-116786380D01*
X72322047Y-116786380D01*
X72417285Y-116834000D01*
X72464904Y-116881619D01*
X72512523Y-116976857D01*
X72512523Y-117072095D01*
X72464904Y-117214952D01*
X71893476Y-117786380D01*
X72512523Y-117786380D01*
X73464904Y-117786380D02*
X72893476Y-117786380D01*
X73179190Y-117786380D02*
X73179190Y-116786380D01*
X73083952Y-116929238D01*
X72988714Y-117024476D01*
X72893476Y-117072095D01*
X95773142Y-38316380D02*
X95439809Y-37840190D01*
X95201714Y-38316380D02*
X95201714Y-37316380D01*
X95582666Y-37316380D01*
X95677904Y-37364000D01*
X95725523Y-37411619D01*
X95773142Y-37506857D01*
X95773142Y-37649714D01*
X95725523Y-37744952D01*
X95677904Y-37792571D01*
X95582666Y-37840190D01*
X95201714Y-37840190D01*
X96154095Y-37411619D02*
X96201714Y-37364000D01*
X96296952Y-37316380D01*
X96535047Y-37316380D01*
X96630285Y-37364000D01*
X96677904Y-37411619D01*
X96725523Y-37506857D01*
X96725523Y-37602095D01*
X96677904Y-37744952D01*
X96106476Y-38316380D01*
X96725523Y-38316380D01*
X97058857Y-37316380D02*
X97677904Y-37316380D01*
X97344571Y-37697333D01*
X97487428Y-37697333D01*
X97582666Y-37744952D01*
X97630285Y-37792571D01*
X97677904Y-37887809D01*
X97677904Y-38125904D01*
X97630285Y-38221142D01*
X97582666Y-38268761D01*
X97487428Y-38316380D01*
X97201714Y-38316380D01*
X97106476Y-38268761D01*
X97058857Y-38221142D01*
X89147380Y-29397857D02*
X88671190Y-29731190D01*
X89147380Y-29969285D02*
X88147380Y-29969285D01*
X88147380Y-29588333D01*
X88195000Y-29493095D01*
X88242619Y-29445476D01*
X88337857Y-29397857D01*
X88480714Y-29397857D01*
X88575952Y-29445476D01*
X88623571Y-29493095D01*
X88671190Y-29588333D01*
X88671190Y-29969285D01*
X88242619Y-29016904D02*
X88195000Y-28969285D01*
X88147380Y-28874047D01*
X88147380Y-28635952D01*
X88195000Y-28540714D01*
X88242619Y-28493095D01*
X88337857Y-28445476D01*
X88433095Y-28445476D01*
X88575952Y-28493095D01*
X89147380Y-29064523D01*
X89147380Y-28445476D01*
X88480714Y-27588333D02*
X89147380Y-27588333D01*
X88099761Y-27826428D02*
X88814047Y-28064523D01*
X88814047Y-27445476D01*
X56591460Y-43391057D02*
X56115270Y-43724390D01*
X56591460Y-43962485D02*
X55591460Y-43962485D01*
X55591460Y-43581533D01*
X55639080Y-43486295D01*
X55686699Y-43438676D01*
X55781937Y-43391057D01*
X55924794Y-43391057D01*
X56020032Y-43438676D01*
X56067651Y-43486295D01*
X56115270Y-43581533D01*
X56115270Y-43962485D01*
X55686699Y-43010104D02*
X55639080Y-42962485D01*
X55591460Y-42867247D01*
X55591460Y-42629152D01*
X55639080Y-42533914D01*
X55686699Y-42486295D01*
X55781937Y-42438676D01*
X55877175Y-42438676D01*
X56020032Y-42486295D01*
X56591460Y-43057723D01*
X56591460Y-42438676D01*
X55591460Y-41533914D02*
X55591460Y-42010104D01*
X56067651Y-42057723D01*
X56020032Y-42010104D01*
X55972413Y-41914866D01*
X55972413Y-41676771D01*
X56020032Y-41581533D01*
X56067651Y-41533914D01*
X56162889Y-41486295D01*
X56400984Y-41486295D01*
X56496222Y-41533914D01*
X56543841Y-41581533D01*
X56591460Y-41676771D01*
X56591460Y-41914866D01*
X56543841Y-42010104D01*
X56496222Y-42057723D01*
X54522380Y-39592857D02*
X54046190Y-39926190D01*
X54522380Y-40164285D02*
X53522380Y-40164285D01*
X53522380Y-39783333D01*
X53570000Y-39688095D01*
X53617619Y-39640476D01*
X53712857Y-39592857D01*
X53855714Y-39592857D01*
X53950952Y-39640476D01*
X53998571Y-39688095D01*
X54046190Y-39783333D01*
X54046190Y-40164285D01*
X53617619Y-39211904D02*
X53570000Y-39164285D01*
X53522380Y-39069047D01*
X53522380Y-38830952D01*
X53570000Y-38735714D01*
X53617619Y-38688095D01*
X53712857Y-38640476D01*
X53808095Y-38640476D01*
X53950952Y-38688095D01*
X54522380Y-39259523D01*
X54522380Y-38640476D01*
X53522380Y-37783333D02*
X53522380Y-37973809D01*
X53570000Y-38069047D01*
X53617619Y-38116666D01*
X53760476Y-38211904D01*
X53950952Y-38259523D01*
X54331904Y-38259523D01*
X54427142Y-38211904D01*
X54474761Y-38164285D01*
X54522380Y-38069047D01*
X54522380Y-37878571D01*
X54474761Y-37783333D01*
X54427142Y-37735714D01*
X54331904Y-37688095D01*
X54093809Y-37688095D01*
X53998571Y-37735714D01*
X53950952Y-37783333D01*
X53903333Y-37878571D01*
X53903333Y-38069047D01*
X53950952Y-38164285D01*
X53998571Y-38211904D01*
X54093809Y-38259523D01*
X48930380Y-51100857D02*
X48454190Y-51434190D01*
X48930380Y-51672285D02*
X47930380Y-51672285D01*
X47930380Y-51291333D01*
X47978000Y-51196095D01*
X48025619Y-51148476D01*
X48120857Y-51100857D01*
X48263714Y-51100857D01*
X48358952Y-51148476D01*
X48406571Y-51196095D01*
X48454190Y-51291333D01*
X48454190Y-51672285D01*
X48025619Y-50719904D02*
X47978000Y-50672285D01*
X47930380Y-50577047D01*
X47930380Y-50338952D01*
X47978000Y-50243714D01*
X48025619Y-50196095D01*
X48120857Y-50148476D01*
X48216095Y-50148476D01*
X48358952Y-50196095D01*
X48930380Y-50767523D01*
X48930380Y-50148476D01*
X47930380Y-49815142D02*
X47930380Y-49148476D01*
X48930380Y-49577047D01*
X40190380Y-70960857D02*
X39714190Y-71294190D01*
X40190380Y-71532285D02*
X39190380Y-71532285D01*
X39190380Y-71151333D01*
X39238000Y-71056095D01*
X39285619Y-71008476D01*
X39380857Y-70960857D01*
X39523714Y-70960857D01*
X39618952Y-71008476D01*
X39666571Y-71056095D01*
X39714190Y-71151333D01*
X39714190Y-71532285D01*
X39285619Y-70579904D02*
X39238000Y-70532285D01*
X39190380Y-70437047D01*
X39190380Y-70198952D01*
X39238000Y-70103714D01*
X39285619Y-70056095D01*
X39380857Y-70008476D01*
X39476095Y-70008476D01*
X39618952Y-70056095D01*
X40190380Y-70627523D01*
X40190380Y-70008476D01*
X39618952Y-69437047D02*
X39571333Y-69532285D01*
X39523714Y-69579904D01*
X39428476Y-69627523D01*
X39380857Y-69627523D01*
X39285619Y-69579904D01*
X39238000Y-69532285D01*
X39190380Y-69437047D01*
X39190380Y-69246571D01*
X39238000Y-69151333D01*
X39285619Y-69103714D01*
X39380857Y-69056095D01*
X39428476Y-69056095D01*
X39523714Y-69103714D01*
X39571333Y-69151333D01*
X39618952Y-69246571D01*
X39618952Y-69437047D01*
X39666571Y-69532285D01*
X39714190Y-69579904D01*
X39809428Y-69627523D01*
X39999904Y-69627523D01*
X40095142Y-69579904D01*
X40142761Y-69532285D01*
X40190380Y-69437047D01*
X40190380Y-69246571D01*
X40142761Y-69151333D01*
X40095142Y-69103714D01*
X39999904Y-69056095D01*
X39809428Y-69056095D01*
X39714190Y-69103714D01*
X39666571Y-69151333D01*
X39618952Y-69246571D01*
X50555142Y-74180380D02*
X50221809Y-73704190D01*
X49983714Y-74180380D02*
X49983714Y-73180380D01*
X50364666Y-73180380D01*
X50459904Y-73228000D01*
X50507523Y-73275619D01*
X50555142Y-73370857D01*
X50555142Y-73513714D01*
X50507523Y-73608952D01*
X50459904Y-73656571D01*
X50364666Y-73704190D01*
X49983714Y-73704190D01*
X50936095Y-73275619D02*
X50983714Y-73228000D01*
X51078952Y-73180380D01*
X51317047Y-73180380D01*
X51412285Y-73228000D01*
X51459904Y-73275619D01*
X51507523Y-73370857D01*
X51507523Y-73466095D01*
X51459904Y-73608952D01*
X50888476Y-74180380D01*
X51507523Y-74180380D01*
X51983714Y-74180380D02*
X52174190Y-74180380D01*
X52269428Y-74132761D01*
X52317047Y-74085142D01*
X52412285Y-73942285D01*
X52459904Y-73751809D01*
X52459904Y-73370857D01*
X52412285Y-73275619D01*
X52364666Y-73228000D01*
X52269428Y-73180380D01*
X52078952Y-73180380D01*
X51983714Y-73228000D01*
X51936095Y-73275619D01*
X51888476Y-73370857D01*
X51888476Y-73608952D01*
X51936095Y-73704190D01*
X51983714Y-73751809D01*
X52078952Y-73799428D01*
X52269428Y-73799428D01*
X52364666Y-73751809D01*
X52412285Y-73704190D01*
X52459904Y-73608952D01*
X46530380Y-72100857D02*
X46054190Y-72434190D01*
X46530380Y-72672285D02*
X45530380Y-72672285D01*
X45530380Y-72291333D01*
X45578000Y-72196095D01*
X45625619Y-72148476D01*
X45720857Y-72100857D01*
X45863714Y-72100857D01*
X45958952Y-72148476D01*
X46006571Y-72196095D01*
X46054190Y-72291333D01*
X46054190Y-72672285D01*
X45530380Y-71767523D02*
X45530380Y-71148476D01*
X45911333Y-71481809D01*
X45911333Y-71338952D01*
X45958952Y-71243714D01*
X46006571Y-71196095D01*
X46101809Y-71148476D01*
X46339904Y-71148476D01*
X46435142Y-71196095D01*
X46482761Y-71243714D01*
X46530380Y-71338952D01*
X46530380Y-71624666D01*
X46482761Y-71719904D01*
X46435142Y-71767523D01*
X45530380Y-70529428D02*
X45530380Y-70434190D01*
X45578000Y-70338952D01*
X45625619Y-70291333D01*
X45720857Y-70243714D01*
X45911333Y-70196095D01*
X46149428Y-70196095D01*
X46339904Y-70243714D01*
X46435142Y-70291333D01*
X46482761Y-70338952D01*
X46530380Y-70434190D01*
X46530380Y-70529428D01*
X46482761Y-70624666D01*
X46435142Y-70672285D01*
X46339904Y-70719904D01*
X46149428Y-70767523D01*
X45911333Y-70767523D01*
X45720857Y-70719904D01*
X45625619Y-70672285D01*
X45578000Y-70624666D01*
X45530380Y-70529428D01*
X62727142Y-74532380D02*
X62393809Y-74056190D01*
X62155714Y-74532380D02*
X62155714Y-73532380D01*
X62536666Y-73532380D01*
X62631904Y-73580000D01*
X62679523Y-73627619D01*
X62727142Y-73722857D01*
X62727142Y-73865714D01*
X62679523Y-73960952D01*
X62631904Y-74008571D01*
X62536666Y-74056190D01*
X62155714Y-74056190D01*
X63060476Y-73532380D02*
X63679523Y-73532380D01*
X63346190Y-73913333D01*
X63489047Y-73913333D01*
X63584285Y-73960952D01*
X63631904Y-74008571D01*
X63679523Y-74103809D01*
X63679523Y-74341904D01*
X63631904Y-74437142D01*
X63584285Y-74484761D01*
X63489047Y-74532380D01*
X63203333Y-74532380D01*
X63108095Y-74484761D01*
X63060476Y-74437142D01*
X64631904Y-74532380D02*
X64060476Y-74532380D01*
X64346190Y-74532380D02*
X64346190Y-73532380D01*
X64250952Y-73675238D01*
X64155714Y-73770476D01*
X64060476Y-73818095D01*
X61203142Y-78088380D02*
X60869809Y-77612190D01*
X60631714Y-78088380D02*
X60631714Y-77088380D01*
X61012666Y-77088380D01*
X61107904Y-77136000D01*
X61155523Y-77183619D01*
X61203142Y-77278857D01*
X61203142Y-77421714D01*
X61155523Y-77516952D01*
X61107904Y-77564571D01*
X61012666Y-77612190D01*
X60631714Y-77612190D01*
X61536476Y-77088380D02*
X62155523Y-77088380D01*
X61822190Y-77469333D01*
X61965047Y-77469333D01*
X62060285Y-77516952D01*
X62107904Y-77564571D01*
X62155523Y-77659809D01*
X62155523Y-77897904D01*
X62107904Y-77993142D01*
X62060285Y-78040761D01*
X61965047Y-78088380D01*
X61679333Y-78088380D01*
X61584095Y-78040761D01*
X61536476Y-77993142D01*
X62536476Y-77183619D02*
X62584095Y-77136000D01*
X62679333Y-77088380D01*
X62917428Y-77088380D01*
X63012666Y-77136000D01*
X63060285Y-77183619D01*
X63107904Y-77278857D01*
X63107904Y-77374095D01*
X63060285Y-77516952D01*
X62488857Y-78088380D01*
X63107904Y-78088380D01*
X30606095Y-68782761D02*
X30748952Y-68830380D01*
X30987047Y-68830380D01*
X31082285Y-68782761D01*
X31129904Y-68735142D01*
X31177523Y-68639904D01*
X31177523Y-68544666D01*
X31129904Y-68449428D01*
X31082285Y-68401809D01*
X30987047Y-68354190D01*
X30796571Y-68306571D01*
X30701333Y-68258952D01*
X30653714Y-68211333D01*
X30606095Y-68116095D01*
X30606095Y-68020857D01*
X30653714Y-67925619D01*
X30701333Y-67878000D01*
X30796571Y-67830380D01*
X31034666Y-67830380D01*
X31177523Y-67878000D01*
X32129904Y-68830380D02*
X31558476Y-68830380D01*
X31844190Y-68830380D02*
X31844190Y-67830380D01*
X31748952Y-67973238D01*
X31653714Y-68068476D01*
X31558476Y-68116095D01*
X39814666Y-123848761D02*
X39957523Y-123896380D01*
X40195619Y-123896380D01*
X40290857Y-123848761D01*
X40338476Y-123801142D01*
X40386095Y-123705904D01*
X40386095Y-123610666D01*
X40338476Y-123515428D01*
X40290857Y-123467809D01*
X40195619Y-123420190D01*
X40005142Y-123372571D01*
X39909904Y-123324952D01*
X39862285Y-123277333D01*
X39814666Y-123182095D01*
X39814666Y-123086857D01*
X39862285Y-122991619D01*
X39909904Y-122944000D01*
X40005142Y-122896380D01*
X40243238Y-122896380D01*
X40386095Y-122944000D01*
X40719428Y-122896380D02*
X40957523Y-123896380D01*
X41148000Y-123182095D01*
X41338476Y-123896380D01*
X41576571Y-122896380D01*
X42481333Y-123896380D02*
X41909904Y-123896380D01*
X42195619Y-123896380D02*
X42195619Y-122896380D01*
X42100380Y-123039238D01*
X42005142Y-123134476D01*
X41909904Y-123182095D01*
X49371600Y-121556380D02*
X49371600Y-121794476D01*
X49133504Y-121699238D02*
X49371600Y-121794476D01*
X49609695Y-121699238D01*
X49228742Y-121984952D02*
X49371600Y-121794476D01*
X49514457Y-121984952D01*
X85562095Y-68610380D02*
X85562095Y-69419904D01*
X85609714Y-69515142D01*
X85657333Y-69562761D01*
X85752571Y-69610380D01*
X85943047Y-69610380D01*
X86038285Y-69562761D01*
X86085904Y-69515142D01*
X86133523Y-69419904D01*
X86133523Y-68610380D01*
X87133523Y-69610380D02*
X86562095Y-69610380D01*
X86847809Y-69610380D02*
X86847809Y-68610380D01*
X86752571Y-68753238D01*
X86657333Y-68848476D01*
X86562095Y-68896095D01*
D14*
X70435238Y-111951190D02*
X70856190Y-111951190D01*
X70905714Y-111926428D01*
X70930476Y-111901666D01*
X70955238Y-111852142D01*
X70955238Y-111753095D01*
X70930476Y-111703571D01*
X70905714Y-111678809D01*
X70856190Y-111654047D01*
X70435238Y-111654047D01*
X70484761Y-111431190D02*
X70460000Y-111406428D01*
X70435238Y-111356904D01*
X70435238Y-111233095D01*
X70460000Y-111183571D01*
X70484761Y-111158809D01*
X70534285Y-111134047D01*
X70583809Y-111134047D01*
X70658095Y-111158809D01*
X70955238Y-111455952D01*
X70955238Y-111134047D01*
D10*
X81222380Y-88516904D02*
X82031904Y-88516904D01*
X82127142Y-88469285D01*
X82174761Y-88421666D01*
X82222380Y-88326428D01*
X82222380Y-88135952D01*
X82174761Y-88040714D01*
X82127142Y-87993095D01*
X82031904Y-87945476D01*
X81222380Y-87945476D01*
X81555714Y-87040714D02*
X82222380Y-87040714D01*
X81174761Y-87278809D02*
X81889047Y-87516904D01*
X81889047Y-86897857D01*
X98474095Y-45106380D02*
X98474095Y-45915904D01*
X98521714Y-46011142D01*
X98569333Y-46058761D01*
X98664571Y-46106380D01*
X98855047Y-46106380D01*
X98950285Y-46058761D01*
X98997904Y-46011142D01*
X99045523Y-45915904D01*
X99045523Y-45106380D01*
X99997904Y-45106380D02*
X99521714Y-45106380D01*
X99474095Y-45582571D01*
X99521714Y-45534952D01*
X99616952Y-45487333D01*
X99855047Y-45487333D01*
X99950285Y-45534952D01*
X99997904Y-45582571D01*
X100045523Y-45677809D01*
X100045523Y-45915904D01*
X99997904Y-46011142D01*
X99950285Y-46058761D01*
X99855047Y-46106380D01*
X99616952Y-46106380D01*
X99521714Y-46058761D01*
X99474095Y-46011142D01*
X57782095Y-50384380D02*
X57782095Y-51193904D01*
X57829714Y-51289142D01*
X57877333Y-51336761D01*
X57972571Y-51384380D01*
X58163047Y-51384380D01*
X58258285Y-51336761D01*
X58305904Y-51289142D01*
X58353523Y-51193904D01*
X58353523Y-50384380D01*
X59258285Y-50384380D02*
X59067809Y-50384380D01*
X58972571Y-50432000D01*
X58924952Y-50479619D01*
X58829714Y-50622476D01*
X58782095Y-50812952D01*
X58782095Y-51193904D01*
X58829714Y-51289142D01*
X58877333Y-51336761D01*
X58972571Y-51384380D01*
X59163047Y-51384380D01*
X59258285Y-51336761D01*
X59305904Y-51289142D01*
X59353523Y-51193904D01*
X59353523Y-50955809D01*
X59305904Y-50860571D01*
X59258285Y-50812952D01*
X59163047Y-50765333D01*
X58972571Y-50765333D01*
X58877333Y-50812952D01*
X58829714Y-50860571D01*
X58782095Y-50955809D01*
X44426190Y-56975950D02*
X44902380Y-56975950D01*
X43902380Y-57309283D02*
X44426190Y-56975950D01*
X43902380Y-56642617D01*
X44902380Y-55785474D02*
X44902380Y-56356902D01*
X44902380Y-56071188D02*
X43902380Y-56071188D01*
X44045238Y-56166426D01*
X44140476Y-56261664D01*
X44188095Y-56356902D01*
X39964190Y-48974190D02*
X40440380Y-48974190D01*
X39440380Y-49307523D02*
X39964190Y-48974190D01*
X39440380Y-48640857D01*
X39535619Y-48355142D02*
X39488000Y-48307523D01*
X39440380Y-48212285D01*
X39440380Y-47974190D01*
X39488000Y-47878952D01*
X39535619Y-47831333D01*
X39630857Y-47783714D01*
X39726095Y-47783714D01*
X39868952Y-47831333D01*
X40440380Y-48402761D01*
X40440380Y-47783714D01*
M02*
