%FSLAX45Y45*%
G04 Gerber Fmt 4.5, Leading zero omitted, Abs format (unit mm)*
G04 Created by KiCad (PCBNEW 5.1.0-unknown-03bce55~94~ubuntu16.04.1) date 2019-06-06 22:51:31*
%MOMM*%
%LPD*%
G04 APERTURE LIST*
%ADD10C,0.050000*%
%ADD11C,0.200000*%
%ADD12C,0.300000*%
G04 APERTURE END LIST*
D10*
X11966000Y-12438000D02*
X2042000Y-12437000D01*
X11994000Y-2528000D02*
X11966000Y-12438000D01*
X2043000Y-2527000D02*
X11994000Y-2528000D01*
X2042000Y-12437000D02*
X2043000Y-2527000D01*
D11*
X2407500Y-4415000D02*
X2437500Y-4445000D01*
X2437500Y-4415000D02*
X2407500Y-4445000D01*
X2527707Y-4413938D02*
X2557707Y-4443938D01*
X2557707Y-4413938D02*
X2527707Y-4443938D01*
X2627500Y-4407500D02*
X2657500Y-4437500D01*
X2657500Y-4407500D02*
X2627500Y-4437500D01*
X2730000Y-4400000D02*
X2760000Y-4430000D01*
X2760000Y-4400000D02*
X2730000Y-4430000D01*
X3140000Y-4912500D02*
X3170000Y-4942500D01*
X3170000Y-4912500D02*
X3140000Y-4942500D01*
X3172500Y-4377500D02*
X3202500Y-4407500D01*
X3202500Y-4377500D02*
X3172500Y-4407500D01*
X3492500Y-11622500D02*
X3522500Y-11652500D01*
X3522500Y-11622500D02*
X3492500Y-11652500D01*
X3541000Y-4252200D02*
X3571000Y-4282200D01*
X3571000Y-4252200D02*
X3541000Y-4282200D01*
X3695000Y-11785000D02*
X3725000Y-11815000D01*
X3725000Y-11785000D02*
X3695000Y-11815000D01*
X4100800Y-5310800D02*
X4130800Y-5340800D01*
X4130800Y-5310800D02*
X4100800Y-5340800D01*
X4101800Y-5906800D02*
X4131800Y-5936800D01*
X4131800Y-5906800D02*
X4101800Y-5936800D01*
X4156662Y-6733635D02*
X4186662Y-6763635D01*
X4186662Y-6733635D02*
X4156662Y-6763635D01*
X4206800Y-5159800D02*
X4236800Y-5189800D01*
X4236800Y-5159800D02*
X4206800Y-5189800D01*
X4271800Y-5311800D02*
X4301800Y-5341800D01*
X4301800Y-5311800D02*
X4271800Y-5341800D01*
X4407800Y-5040800D02*
X4437800Y-5070800D01*
X4437800Y-5040800D02*
X4407800Y-5070800D01*
X4606800Y-5895800D02*
X4636800Y-5925800D01*
X4636800Y-5895800D02*
X4606800Y-5925800D01*
X4633800Y-5980800D02*
X4663800Y-6010800D01*
X4663800Y-5980800D02*
X4633800Y-6010800D01*
X4714800Y-5988800D02*
X4744800Y-6018800D01*
X4744800Y-5988800D02*
X4714800Y-6018800D01*
X4780000Y-4275000D02*
X4810000Y-4305000D01*
X4810000Y-4275000D02*
X4780000Y-4305000D01*
X4790800Y-6022800D02*
X4820800Y-6052800D01*
X4820800Y-6022800D02*
X4790800Y-6052800D01*
X4811000Y-4811000D02*
X4841000Y-4841000D01*
X4841000Y-4811000D02*
X4811000Y-4841000D01*
X4865800Y-5638200D02*
X4895800Y-5668200D01*
X4895800Y-5638200D02*
X4865800Y-5668200D01*
X4866800Y-6073800D02*
X4896800Y-6103800D01*
X4896800Y-6073800D02*
X4866800Y-6103800D01*
X4892500Y-4222500D02*
X4922500Y-4252500D01*
X4922500Y-4222500D02*
X4892500Y-4252500D01*
X4918800Y-5587800D02*
X4948800Y-5617800D01*
X4948800Y-5587800D02*
X4918800Y-5617800D01*
X4935000Y-7825000D02*
X4965000Y-7855000D01*
X4965000Y-7825000D02*
X4935000Y-7855000D01*
X4985800Y-5533800D02*
X5015800Y-5563800D01*
X5015800Y-5533800D02*
X4985800Y-5563800D01*
X5001200Y-8028000D02*
X5031200Y-8058000D01*
X5031200Y-8028000D02*
X5001200Y-8058000D01*
X5005000Y-4167500D02*
X5035000Y-4197500D01*
X5035000Y-4167500D02*
X5005000Y-4197500D01*
X5162909Y-7448909D02*
X5192909Y-7478909D01*
X5192909Y-7448909D02*
X5162909Y-7478909D01*
X5167500Y-3877500D02*
X5197500Y-3907500D01*
X5197500Y-3877500D02*
X5167500Y-3907500D01*
X5194800Y-7051800D02*
X5224800Y-7081800D01*
X5224800Y-7051800D02*
X5194800Y-7081800D01*
X5204400Y-6361800D02*
X5234400Y-6391800D01*
X5234400Y-6361800D02*
X5204400Y-6391800D01*
X5265002Y-5162500D02*
X5295002Y-5192500D01*
X5295002Y-5162500D02*
X5265002Y-5192500D01*
X5280599Y-6580200D02*
X5310599Y-6610200D01*
X5310599Y-6580200D02*
X5280599Y-6610200D01*
X5302500Y-8215000D02*
X5332500Y-8245000D01*
X5332500Y-8215000D02*
X5302500Y-8245000D01*
X5337500Y-4140000D02*
X5367500Y-4170000D01*
X5367500Y-4140000D02*
X5337500Y-4170000D01*
X5342500Y-7750001D02*
X5372500Y-7780001D01*
X5372500Y-7750001D02*
X5342500Y-7780001D01*
X5405000Y-11565000D02*
X5435000Y-11595000D01*
X5435000Y-11565000D02*
X5405000Y-11595000D01*
X5485503Y-7583002D02*
X5515503Y-7613002D01*
X5515503Y-7583002D02*
X5485503Y-7613002D01*
X5547500Y-3187500D02*
X5577500Y-3217500D01*
X5577500Y-3187500D02*
X5547500Y-3217500D01*
X5615000Y-3285000D02*
X5645000Y-3315000D01*
X5645000Y-3285000D02*
X5615000Y-3315000D01*
X5652500Y-3407500D02*
X5682500Y-3437500D01*
X5682500Y-3407500D02*
X5652500Y-3437500D01*
X5667500Y-8142500D02*
X5697500Y-8172500D01*
X5697500Y-8142500D02*
X5667500Y-8172500D01*
X5712500Y-6832500D02*
X5742500Y-6862500D01*
X5742500Y-6832500D02*
X5712500Y-6862500D01*
X5725000Y-11487500D02*
X5755000Y-11517500D01*
X5755000Y-11487500D02*
X5725000Y-11517500D01*
X5777500Y-8150000D02*
X5807500Y-8180000D01*
X5807500Y-8150000D02*
X5777500Y-8180000D01*
X5827500Y-6827500D02*
X5857500Y-6857500D01*
X5857500Y-6827500D02*
X5827500Y-6857500D01*
X5842499Y-6720000D02*
X5872499Y-6750000D01*
X5872499Y-6720000D02*
X5842499Y-6750000D01*
X5884400Y-4922500D02*
X5914400Y-4952500D01*
X5914400Y-4922500D02*
X5884400Y-4952500D01*
X5920000Y-4682500D02*
X5950000Y-4712500D01*
X5950000Y-4682500D02*
X5920000Y-4712500D01*
X5930000Y-8157500D02*
X5960000Y-8187500D01*
X5960000Y-8157500D02*
X5930000Y-8187500D01*
X5940000Y-3455000D02*
X5970000Y-3485000D01*
X5970000Y-3455000D02*
X5940000Y-3485000D01*
X5947500Y-4820000D02*
X5977500Y-4850000D01*
X5977500Y-4820000D02*
X5947500Y-4850000D01*
X5970000Y-4130000D02*
X6000000Y-4160000D01*
X6000000Y-4130000D02*
X5970000Y-4160000D01*
X5995001Y-5012500D02*
X6025001Y-5042500D01*
X6025001Y-5012500D02*
X5995001Y-5042500D01*
X6017200Y-11609400D02*
X6047200Y-11639400D01*
X6047200Y-11609400D02*
X6017200Y-11639400D01*
X6057500Y-4230000D02*
X6087500Y-4260000D01*
X6087500Y-4230000D02*
X6057500Y-4260000D01*
X6081000Y-7249400D02*
X6111000Y-7279400D01*
X6111000Y-7249400D02*
X6081000Y-7279400D01*
X6081000Y-7706600D02*
X6111000Y-7736600D01*
X6111000Y-7706600D02*
X6081000Y-7736600D01*
X6102200Y-7066563D02*
X6132200Y-7096563D01*
X6132200Y-7066563D02*
X6102200Y-7096563D01*
X6110000Y-4825000D02*
X6140000Y-4855000D01*
X6140000Y-4825000D02*
X6110000Y-4855000D01*
X6195000Y-11507800D02*
X6225000Y-11537800D01*
X6225000Y-11507800D02*
X6195000Y-11537800D01*
X6232500Y-7680000D02*
X6262500Y-7710000D01*
X6262500Y-7680000D02*
X6232500Y-7710000D01*
X6307500Y-5062500D02*
X6337500Y-5092500D01*
X6337500Y-5062500D02*
X6307500Y-5092500D01*
X6447500Y-7997500D02*
X6477500Y-8027500D01*
X6477500Y-7997500D02*
X6447500Y-8027500D01*
X6855400Y-11558600D02*
X6885400Y-11588600D01*
X6885400Y-11558600D02*
X6855400Y-11588600D01*
X6855400Y-11863400D02*
X6885400Y-11893400D01*
X6885400Y-11863400D02*
X6855400Y-11893400D01*
X6970000Y-5440000D02*
X7000000Y-5470000D01*
X7000000Y-5440000D02*
X6970000Y-5470000D01*
X7100000Y-5342500D02*
X7130000Y-5372500D01*
X7130000Y-5342500D02*
X7100000Y-5372500D01*
X7134800Y-6224600D02*
X7164800Y-6254600D01*
X7164800Y-6224600D02*
X7134800Y-6254600D01*
X7199023Y-5328550D02*
X7229023Y-5358550D01*
X7229023Y-5328550D02*
X7199023Y-5358550D01*
X7261800Y-6326200D02*
X7291800Y-6356200D01*
X7291800Y-6326200D02*
X7261800Y-6356200D01*
X7312600Y-6123000D02*
X7342600Y-6153000D01*
X7342600Y-6123000D02*
X7312600Y-6153000D01*
X7388800Y-6326200D02*
X7418800Y-6356200D01*
X7418800Y-6326200D02*
X7388800Y-6356200D01*
X7465000Y-5973200D02*
X7495000Y-6003200D01*
X7495000Y-5973200D02*
X7465000Y-6003200D01*
X7973000Y-6326200D02*
X8003000Y-6356200D01*
X8003000Y-6326200D02*
X7973000Y-6356200D01*
X7992500Y-3825000D02*
X8022500Y-3855000D01*
X8022500Y-3825000D02*
X7992500Y-3855000D01*
X8026000Y-3010000D02*
X8056000Y-3040000D01*
X8056000Y-3010000D02*
X8026000Y-3040000D01*
X8060000Y-3102500D02*
X8090000Y-3132500D01*
X8090000Y-3102500D02*
X8060000Y-3132500D01*
X8140000Y-8045000D02*
X8170000Y-8075000D01*
X8170000Y-8045000D02*
X8140000Y-8075000D01*
X8167500Y-3185000D02*
X8197500Y-3215000D01*
X8197500Y-3185000D02*
X8167500Y-3215000D01*
X8570200Y-5369800D02*
X8600200Y-5399800D01*
X8600200Y-5369800D02*
X8570200Y-5399800D01*
X8633400Y-5183200D02*
X8663400Y-5213200D01*
X8663400Y-5183200D02*
X8633400Y-5213200D01*
X8658800Y-4802200D02*
X8688800Y-4832200D01*
X8688800Y-4802200D02*
X8658800Y-4832200D01*
X9106200Y-7891600D02*
X9136200Y-7921600D01*
X9136200Y-7891600D02*
X9106200Y-7921600D01*
X9263906Y-6252563D02*
X9293906Y-6282563D01*
X9293906Y-6252563D02*
X9263906Y-6282563D01*
X9266200Y-6182600D02*
X9296200Y-6212600D01*
X9296200Y-6182600D02*
X9266200Y-6212600D01*
X9510200Y-6335600D02*
X9540200Y-6365600D01*
X9540200Y-6335600D02*
X9510200Y-6365600D01*
X9638200Y-5484600D02*
X9668200Y-5514600D01*
X9668200Y-5484600D02*
X9638200Y-5514600D01*
X9910200Y-6435600D02*
X9940200Y-6465600D01*
X9940200Y-6435600D02*
X9910200Y-6465600D01*
X9916200Y-6285600D02*
X9946200Y-6315600D01*
X9946200Y-6285600D02*
X9916200Y-6315600D01*
X9945200Y-6196600D02*
X9975200Y-6226600D01*
X9975200Y-6196600D02*
X9945200Y-6226600D01*
X10015600Y-11323500D02*
X10045600Y-11353500D01*
X10045600Y-11323500D02*
X10015600Y-11353500D01*
X10105200Y-6979600D02*
X10135200Y-7009600D01*
X10135200Y-6979600D02*
X10105200Y-7009600D01*
X10193400Y-11526700D02*
X10223400Y-11556700D01*
X10223400Y-11526700D02*
X10193400Y-11556700D01*
X10320400Y-10586900D02*
X10350400Y-10616900D01*
X10350400Y-10586900D02*
X10320400Y-10616900D01*
X10455200Y-5963600D02*
X10485200Y-5993600D01*
X10485200Y-5963600D02*
X10455200Y-5993600D01*
X10552500Y-6905000D02*
X10582500Y-6935000D01*
X10582500Y-6905000D02*
X10552500Y-6935000D01*
X10561200Y-6564600D02*
X10591200Y-6594600D01*
X10591200Y-6564600D02*
X10561200Y-6594600D01*
X10905000Y-6947500D02*
X10935000Y-6977500D01*
X10935000Y-6947500D02*
X10905000Y-6977500D01*
X11070000Y-7567500D02*
X11100000Y-7597500D01*
X11100000Y-7567500D02*
X11070000Y-7597500D01*
X6468410Y-7413610D02*
G75*
G03X6468410Y-7413610I-20000J0D01*
G01*
X6624000Y-7569200D02*
G75*
G03X6624000Y-7569200I-20000J0D01*
G01*
X7132000Y-7924800D02*
G75*
G03X7132000Y-7924800I-20000J0D01*
G01*
X7386000Y-8026400D02*
G75*
G03X7386000Y-8026400I-20000J0D01*
G01*
X2287200Y-10994200D02*
X2287200Y-11044200D01*
X2262200Y-11019200D02*
X2312200Y-11019200D01*
X2287200Y-11166200D02*
X2287200Y-11216200D01*
X2262200Y-11191200D02*
X2312200Y-11191200D01*
X2292200Y-11325200D02*
X2292200Y-11375200D01*
X2267200Y-11350200D02*
X2317200Y-11350200D01*
X2293200Y-11680200D02*
X2293200Y-11730200D01*
X2268200Y-11705200D02*
X2318200Y-11705200D01*
X2294200Y-11511200D02*
X2294200Y-11561200D01*
X2269200Y-11536200D02*
X2319200Y-11536200D01*
X2465000Y-7844600D02*
X2465000Y-7894600D01*
X2440000Y-7869600D02*
X2490000Y-7869600D01*
X2465000Y-8016600D02*
X2465000Y-8066600D01*
X2440000Y-8041600D02*
X2490000Y-8041600D01*
X2470000Y-8175600D02*
X2470000Y-8225600D01*
X2445000Y-8200600D02*
X2495000Y-8200600D01*
X2471000Y-8530600D02*
X2471000Y-8580600D01*
X2446000Y-8555600D02*
X2496000Y-8555600D01*
X2472000Y-8361600D02*
X2472000Y-8411600D01*
X2447000Y-8386600D02*
X2497000Y-8386600D01*
X2475000Y-8697100D02*
X2475000Y-8747100D01*
X2450000Y-8722100D02*
X2500000Y-8722100D01*
X2475000Y-8869100D02*
X2475000Y-8919100D01*
X2450000Y-8894100D02*
X2500000Y-8894100D01*
X2480000Y-9028100D02*
X2480000Y-9078100D01*
X2455000Y-9053100D02*
X2505000Y-9053100D01*
X2480000Y-9567100D02*
X2480000Y-9617100D01*
X2455000Y-9592100D02*
X2505000Y-9592100D01*
X2480000Y-9739100D02*
X2480000Y-9789100D01*
X2455000Y-9764100D02*
X2505000Y-9764100D01*
X2481000Y-9383100D02*
X2481000Y-9433100D01*
X2456000Y-9408100D02*
X2506000Y-9408100D01*
X2482000Y-9214100D02*
X2482000Y-9264100D01*
X2457000Y-9239100D02*
X2507000Y-9239100D01*
X2484200Y-10994200D02*
X2484200Y-11044200D01*
X2459200Y-11019200D02*
X2509200Y-11019200D01*
X2484200Y-11166200D02*
X2484200Y-11216200D01*
X2459200Y-11191200D02*
X2509200Y-11191200D01*
X2485000Y-9898100D02*
X2485000Y-9948100D01*
X2460000Y-9923100D02*
X2510000Y-9923100D01*
X2486000Y-10253100D02*
X2486000Y-10303100D01*
X2461000Y-10278100D02*
X2511000Y-10278100D01*
X2487000Y-10084100D02*
X2487000Y-10134100D01*
X2462000Y-10109100D02*
X2512000Y-10109100D01*
X2489200Y-11325200D02*
X2489200Y-11375200D01*
X2464200Y-11350200D02*
X2514200Y-11350200D01*
X2490200Y-11680200D02*
X2490200Y-11730200D01*
X2465200Y-11705200D02*
X2515200Y-11705200D01*
X2491200Y-11511200D02*
X2491200Y-11561200D01*
X2466200Y-11536200D02*
X2516200Y-11536200D01*
X2662000Y-7844600D02*
X2662000Y-7894600D01*
X2637000Y-7869600D02*
X2687000Y-7869600D01*
X2662000Y-8016600D02*
X2662000Y-8066600D01*
X2637000Y-8041600D02*
X2687000Y-8041600D01*
X2667000Y-8175600D02*
X2667000Y-8225600D01*
X2642000Y-8200600D02*
X2692000Y-8200600D01*
X2668000Y-8530600D02*
X2668000Y-8580600D01*
X2643000Y-8555600D02*
X2693000Y-8555600D01*
X2669000Y-8361600D02*
X2669000Y-8411600D01*
X2644000Y-8386600D02*
X2694000Y-8386600D01*
X2672000Y-8697100D02*
X2672000Y-8747100D01*
X2647000Y-8722100D02*
X2697000Y-8722100D01*
X2672000Y-8869100D02*
X2672000Y-8919100D01*
X2647000Y-8894100D02*
X2697000Y-8894100D01*
X2677000Y-9028100D02*
X2677000Y-9078100D01*
X2652000Y-9053100D02*
X2702000Y-9053100D01*
X2677000Y-9567100D02*
X2677000Y-9617100D01*
X2652000Y-9592100D02*
X2702000Y-9592100D01*
X2677000Y-9739100D02*
X2677000Y-9789100D01*
X2652000Y-9764100D02*
X2702000Y-9764100D01*
X2678000Y-9383100D02*
X2678000Y-9433100D01*
X2653000Y-9408100D02*
X2703000Y-9408100D01*
X2679000Y-9214100D02*
X2679000Y-9264100D01*
X2654000Y-9239100D02*
X2704000Y-9239100D01*
X2682000Y-9898100D02*
X2682000Y-9948100D01*
X2657000Y-9923100D02*
X2707000Y-9923100D01*
X2683000Y-10253100D02*
X2683000Y-10303100D01*
X2658000Y-10278100D02*
X2708000Y-10278100D01*
X2684000Y-10084100D02*
X2684000Y-10134100D01*
X2659000Y-10109100D02*
X2709000Y-10109100D01*
X2856000Y-7327000D02*
X2856000Y-7377000D01*
X2831000Y-7352000D02*
X2881000Y-7352000D01*
X2856000Y-7425000D02*
X2856000Y-7475000D01*
X2831000Y-7450000D02*
X2881000Y-7450000D01*
X2857000Y-7024000D02*
X2857000Y-7074000D01*
X2832000Y-7049000D02*
X2882000Y-7049000D01*
X2857000Y-7122000D02*
X2857000Y-7172000D01*
X2832000Y-7147000D02*
X2882000Y-7147000D01*
X2859000Y-7530000D02*
X2859000Y-7580000D01*
X2834000Y-7555000D02*
X2884000Y-7555000D01*
X2860000Y-7227000D02*
X2860000Y-7277000D01*
X2835000Y-7252000D02*
X2885000Y-7252000D01*
X3051000Y-7325000D02*
X3051000Y-7375000D01*
X3026000Y-7350000D02*
X3076000Y-7350000D01*
X3052000Y-7022000D02*
X3052000Y-7072000D01*
X3027000Y-7047000D02*
X3077000Y-7047000D01*
X3052000Y-7531000D02*
X3052000Y-7581000D01*
X3027000Y-7556000D02*
X3077000Y-7556000D01*
X3052000Y-7740000D02*
X3052000Y-7790000D01*
X3027000Y-7765000D02*
X3077000Y-7765000D01*
X3053000Y-7228000D02*
X3053000Y-7278000D01*
X3028000Y-7253000D02*
X3078000Y-7253000D01*
X3055000Y-7430000D02*
X3055000Y-7480000D01*
X3030000Y-7455000D02*
X3080000Y-7455000D01*
X3055000Y-7639000D02*
X3055000Y-7689000D01*
X3030000Y-7664000D02*
X3080000Y-7664000D01*
X3056000Y-7127000D02*
X3056000Y-7177000D01*
X3031000Y-7152000D02*
X3081000Y-7152000D01*
X3179800Y-3805000D02*
X3179800Y-3855000D01*
X3154800Y-3830000D02*
X3204800Y-3830000D01*
X3179800Y-3961000D02*
X3179800Y-4011000D01*
X3154800Y-3986000D02*
X3204800Y-3986000D01*
X3244000Y-7333000D02*
X3244000Y-7383000D01*
X3219000Y-7358000D02*
X3269000Y-7358000D01*
X3244000Y-7431000D02*
X3244000Y-7481000D01*
X3219000Y-7456000D02*
X3269000Y-7456000D01*
X3244000Y-7530000D02*
X3244000Y-7580000D01*
X3219000Y-7555000D02*
X3269000Y-7555000D01*
X3244000Y-7640000D02*
X3244000Y-7690000D01*
X3219000Y-7665000D02*
X3269000Y-7665000D01*
X3244000Y-7739000D02*
X3244000Y-7789000D01*
X3219000Y-7764000D02*
X3269000Y-7764000D01*
X3244000Y-7834000D02*
X3244000Y-7884000D01*
X3219000Y-7859000D02*
X3269000Y-7859000D01*
X3244000Y-7933000D02*
X3244000Y-7983000D01*
X3219000Y-7958000D02*
X3269000Y-7958000D01*
X3245000Y-7030000D02*
X3245000Y-7080000D01*
X3220000Y-7055000D02*
X3270000Y-7055000D01*
X3245000Y-7128000D02*
X3245000Y-7178000D01*
X3220000Y-7153000D02*
X3270000Y-7153000D01*
X3245000Y-7227000D02*
X3245000Y-7277000D01*
X3220000Y-7252000D02*
X3270000Y-7252000D01*
X3254000Y-8030000D02*
X3254000Y-8080000D01*
X3229000Y-8055000D02*
X3279000Y-8055000D01*
X3383000Y-3805000D02*
X3383000Y-3855000D01*
X3358000Y-3830000D02*
X3408000Y-3830000D01*
X3383000Y-3961000D02*
X3383000Y-4011000D01*
X3358000Y-3986000D02*
X3408000Y-3986000D01*
X3455000Y-7331000D02*
X3455000Y-7381000D01*
X3430000Y-7356000D02*
X3480000Y-7356000D01*
X3455000Y-7433000D02*
X3455000Y-7483000D01*
X3430000Y-7458000D02*
X3480000Y-7458000D01*
X3455000Y-7525000D02*
X3455000Y-7575000D01*
X3430000Y-7550000D02*
X3480000Y-7550000D01*
X3455000Y-7642000D02*
X3455000Y-7692000D01*
X3430000Y-7667000D02*
X3480000Y-7667000D01*
X3455000Y-7734000D02*
X3455000Y-7784000D01*
X3430000Y-7759000D02*
X3480000Y-7759000D01*
X3455000Y-7836000D02*
X3455000Y-7886000D01*
X3430000Y-7861000D02*
X3480000Y-7861000D01*
X3455000Y-7928000D02*
X3455000Y-7978000D01*
X3430000Y-7953000D02*
X3480000Y-7953000D01*
X3456000Y-7028000D02*
X3456000Y-7078000D01*
X3431000Y-7053000D02*
X3481000Y-7053000D01*
X3456000Y-7130000D02*
X3456000Y-7180000D01*
X3431000Y-7155000D02*
X3481000Y-7155000D01*
X3456000Y-7222000D02*
X3456000Y-7272000D01*
X3431000Y-7247000D02*
X3481000Y-7247000D01*
X3465000Y-8032000D02*
X3465000Y-8082000D01*
X3440000Y-8057000D02*
X3490000Y-8057000D01*
X3465000Y-8124000D02*
X3465000Y-8174000D01*
X3440000Y-8149000D02*
X3490000Y-8149000D01*
X3586200Y-3805000D02*
X3586200Y-3855000D01*
X3561200Y-3830000D02*
X3611200Y-3830000D01*
X3586200Y-3961000D02*
X3586200Y-4011000D01*
X3561200Y-3986000D02*
X3611200Y-3986000D01*
X3645000Y-7534000D02*
X3645000Y-7584000D01*
X3620000Y-7559000D02*
X3670000Y-7559000D01*
X3645000Y-7743000D02*
X3645000Y-7793000D01*
X3620000Y-7768000D02*
X3670000Y-7768000D01*
X3645000Y-7937000D02*
X3645000Y-7987000D01*
X3620000Y-7962000D02*
X3670000Y-7962000D01*
X3647000Y-7022000D02*
X3647000Y-7072000D01*
X3622000Y-7047000D02*
X3672000Y-7047000D01*
X3647000Y-7127000D02*
X3647000Y-7177000D01*
X3622000Y-7152000D02*
X3672000Y-7152000D01*
X3647000Y-7224000D02*
X3647000Y-7274000D01*
X3622000Y-7249000D02*
X3672000Y-7249000D01*
X3648000Y-7323000D02*
X3648000Y-7373000D01*
X3623000Y-7348000D02*
X3673000Y-7348000D01*
X3648000Y-7428000D02*
X3648000Y-7478000D01*
X3623000Y-7453000D02*
X3673000Y-7453000D01*
X3648000Y-7637000D02*
X3648000Y-7687000D01*
X3623000Y-7662000D02*
X3673000Y-7662000D01*
X3648000Y-7831000D02*
X3648000Y-7881000D01*
X3623000Y-7856000D02*
X3673000Y-7856000D01*
X3655000Y-8133000D02*
X3655000Y-8183000D01*
X3630000Y-8158000D02*
X3680000Y-8158000D01*
X3658000Y-8027000D02*
X3658000Y-8077000D01*
X3633000Y-8052000D02*
X3683000Y-8052000D01*
X3789400Y-3805000D02*
X3789400Y-3855000D01*
X3764400Y-3830000D02*
X3814400Y-3830000D01*
X3789400Y-3961000D02*
X3789400Y-4011000D01*
X3764400Y-3986000D02*
X3814400Y-3986000D01*
X3789400Y-4109800D02*
X3789400Y-4159800D01*
X3764400Y-4134800D02*
X3814400Y-4134800D01*
X3789400Y-4265800D02*
X3789400Y-4315800D01*
X3764400Y-4290800D02*
X3814400Y-4290800D01*
X3854000Y-7021000D02*
X3854000Y-7071000D01*
X3829000Y-7046000D02*
X3879000Y-7046000D01*
X3855000Y-7125000D02*
X3855000Y-7175000D01*
X3830000Y-7150000D02*
X3880000Y-7150000D01*
X3855000Y-7322000D02*
X3855000Y-7372000D01*
X3830000Y-7347000D02*
X3880000Y-7347000D01*
X3856000Y-7426000D02*
X3856000Y-7476000D01*
X3831000Y-7451000D02*
X3881000Y-7451000D01*
X3856000Y-7635000D02*
X3856000Y-7685000D01*
X3831000Y-7660000D02*
X3881000Y-7660000D01*
X3856000Y-7829000D02*
X3856000Y-7879000D01*
X3831000Y-7854000D02*
X3881000Y-7854000D01*
X3860000Y-7531000D02*
X3860000Y-7581000D01*
X3835000Y-7556000D02*
X3885000Y-7556000D01*
X3860000Y-7740000D02*
X3860000Y-7790000D01*
X3835000Y-7765000D02*
X3885000Y-7765000D01*
X3860000Y-7934000D02*
X3860000Y-7984000D01*
X3835000Y-7959000D02*
X3885000Y-7959000D01*
X3862000Y-7221000D02*
X3862000Y-7271000D01*
X3837000Y-7246000D02*
X3887000Y-7246000D01*
X4018000Y-3805000D02*
X4018000Y-3855000D01*
X3993000Y-3830000D02*
X4043000Y-3830000D01*
X4018000Y-3961000D02*
X4018000Y-4011000D01*
X3993000Y-3986000D02*
X4043000Y-3986000D01*
X4018000Y-4109800D02*
X4018000Y-4159800D01*
X3993000Y-4134800D02*
X4043000Y-4134800D01*
X4018000Y-4265800D02*
X4018000Y-4315800D01*
X3993000Y-4290800D02*
X4043000Y-4290800D01*
X4246600Y-4109800D02*
X4246600Y-4159800D01*
X4221600Y-4134800D02*
X4271600Y-4134800D01*
X4246600Y-4265800D02*
X4246600Y-4315800D01*
X4221600Y-4290800D02*
X4271600Y-4290800D01*
X4799052Y-7745852D02*
X4799052Y-7795852D01*
X4774052Y-7770852D02*
X4824052Y-7770852D01*
X6934200Y-5309000D02*
X6934200Y-5359000D01*
X6909200Y-5334000D02*
X6959200Y-5334000D01*
X7112000Y-4699400D02*
X7112000Y-4749400D01*
X7087000Y-4724400D02*
X7137000Y-4724400D01*
X7188200Y-6909200D02*
X7188200Y-6959200D01*
X7163200Y-6934200D02*
X7213200Y-6934200D01*
X7776000Y-9146000D02*
X7776000Y-9196000D01*
X7751000Y-9171000D02*
X7801000Y-9171000D01*
X7776000Y-9302000D02*
X7776000Y-9352000D01*
X7751000Y-9327000D02*
X7801000Y-9327000D01*
X7776000Y-9474000D02*
X7776000Y-9524000D01*
X7751000Y-9499000D02*
X7801000Y-9499000D01*
X7781000Y-9633000D02*
X7781000Y-9683000D01*
X7756000Y-9658000D02*
X7806000Y-9658000D01*
X7782000Y-9988000D02*
X7782000Y-10038000D01*
X7757000Y-10013000D02*
X7807000Y-10013000D01*
X7783000Y-9819000D02*
X7783000Y-9869000D01*
X7758000Y-9844000D02*
X7808000Y-9844000D01*
X7918000Y-9141000D02*
X7918000Y-9191000D01*
X7893000Y-9166000D02*
X7943000Y-9166000D01*
X7918000Y-9297000D02*
X7918000Y-9347000D01*
X7893000Y-9322000D02*
X7943000Y-9322000D01*
X7918000Y-9469000D02*
X7918000Y-9519000D01*
X7893000Y-9494000D02*
X7943000Y-9494000D01*
X7922500Y-10343200D02*
X7922500Y-10393200D01*
X7897500Y-10368200D02*
X7947500Y-10368200D01*
X7923000Y-9628000D02*
X7923000Y-9678000D01*
X7898000Y-9653000D02*
X7948000Y-9653000D01*
X7924000Y-9983000D02*
X7924000Y-10033000D01*
X7899000Y-10008000D02*
X7949000Y-10008000D01*
X7925000Y-9814000D02*
X7925000Y-9864000D01*
X7900000Y-9839000D02*
X7950000Y-9839000D01*
X8051800Y-11506600D02*
X8051800Y-11556600D01*
X8026800Y-11531600D02*
X8076800Y-11531600D01*
X8082000Y-9139000D02*
X8082000Y-9189000D01*
X8057000Y-9164000D02*
X8107000Y-9164000D01*
X8082000Y-9295000D02*
X8082000Y-9345000D01*
X8057000Y-9320000D02*
X8107000Y-9320000D01*
X8082000Y-9467000D02*
X8082000Y-9517000D01*
X8057000Y-9492000D02*
X8107000Y-9492000D01*
X8087000Y-9626000D02*
X8087000Y-9676000D01*
X8062000Y-9651000D02*
X8112000Y-9651000D01*
X8088000Y-9981000D02*
X8088000Y-10031000D01*
X8063000Y-10006000D02*
X8113000Y-10006000D01*
X8089000Y-9812000D02*
X8089000Y-9862000D01*
X8064000Y-9837000D02*
X8114000Y-9837000D01*
X8627000Y-9369500D02*
X8627000Y-9419500D01*
X8602000Y-9394500D02*
X8652000Y-9394500D01*
X8661400Y-4597800D02*
X8661400Y-4647800D01*
X8636400Y-4622800D02*
X8686400Y-4622800D01*
X8763000Y-5207400D02*
X8763000Y-5257400D01*
X8738000Y-5232400D02*
X8788000Y-5232400D01*
X8844000Y-8139500D02*
X8844000Y-8189500D01*
X8819000Y-8164500D02*
X8869000Y-8164500D01*
X9424600Y-9140000D02*
X9424600Y-9190000D01*
X9399600Y-9165000D02*
X9449600Y-9165000D01*
X9424600Y-9312000D02*
X9424600Y-9362000D01*
X9399600Y-9337000D02*
X9449600Y-9337000D01*
X9429600Y-9471000D02*
X9429600Y-9521000D01*
X9404600Y-9496000D02*
X9454600Y-9496000D01*
X9430600Y-9826000D02*
X9430600Y-9876000D01*
X9405600Y-9851000D02*
X9455600Y-9851000D01*
X9431600Y-9657000D02*
X9431600Y-9707000D01*
X9406600Y-9682000D02*
X9456600Y-9682000D01*
X9450000Y-8124000D02*
X9450000Y-8174000D01*
X9425000Y-8149000D02*
X9475000Y-8149000D01*
X9450000Y-8296000D02*
X9450000Y-8346000D01*
X9425000Y-8321000D02*
X9475000Y-8321000D01*
X9455000Y-8455000D02*
X9455000Y-8505000D01*
X9430000Y-8480000D02*
X9480000Y-8480000D01*
X9456000Y-8810000D02*
X9456000Y-8860000D01*
X9431000Y-8835000D02*
X9481000Y-8835000D01*
X9457000Y-8641000D02*
X9457000Y-8691000D01*
X9432000Y-8666000D02*
X9482000Y-8666000D01*
X9621600Y-9140000D02*
X9621600Y-9190000D01*
X9596600Y-9165000D02*
X9646600Y-9165000D01*
X9621600Y-9312000D02*
X9621600Y-9362000D01*
X9596600Y-9337000D02*
X9646600Y-9337000D01*
X9626600Y-9471000D02*
X9626600Y-9521000D01*
X9601600Y-9496000D02*
X9651600Y-9496000D01*
X9627600Y-9826000D02*
X9627600Y-9876000D01*
X9602600Y-9851000D02*
X9652600Y-9851000D01*
X9628600Y-9657000D02*
X9628600Y-9707000D01*
X9603600Y-9682000D02*
X9653600Y-9682000D01*
X9632800Y-9979000D02*
X9632800Y-10029000D01*
X9607800Y-10004000D02*
X9657800Y-10004000D01*
X9633800Y-10334000D02*
X9633800Y-10384000D01*
X9608800Y-10359000D02*
X9658800Y-10359000D01*
X9634800Y-10165000D02*
X9634800Y-10215000D01*
X9609800Y-10190000D02*
X9659800Y-10190000D01*
X9647000Y-8124000D02*
X9647000Y-8174000D01*
X9622000Y-8149000D02*
X9672000Y-8149000D01*
X9647000Y-8296000D02*
X9647000Y-8346000D01*
X9622000Y-8321000D02*
X9672000Y-8321000D01*
X9652000Y-8455000D02*
X9652000Y-8505000D01*
X9627000Y-8480000D02*
X9677000Y-8480000D01*
X9653000Y-8810000D02*
X9653000Y-8860000D01*
X9628000Y-8835000D02*
X9678000Y-8835000D01*
X9654000Y-8641000D02*
X9654000Y-8691000D01*
X9629000Y-8666000D02*
X9679000Y-8666000D01*
X9829800Y-9979000D02*
X9829800Y-10029000D01*
X9804800Y-10004000D02*
X9854800Y-10004000D01*
X9830800Y-10334000D02*
X9830800Y-10384000D01*
X9805800Y-10359000D02*
X9855800Y-10359000D01*
X9831800Y-10165000D02*
X9831800Y-10215000D01*
X9806800Y-10190000D02*
X9856800Y-10190000D01*
X9833600Y-9140000D02*
X9833600Y-9190000D01*
X9808600Y-9165000D02*
X9858600Y-9165000D01*
X9833600Y-9312000D02*
X9833600Y-9362000D01*
X9808600Y-9337000D02*
X9858600Y-9337000D01*
X9838600Y-9471000D02*
X9838600Y-9521000D01*
X9813600Y-9496000D02*
X9863600Y-9496000D01*
X9839600Y-9826000D02*
X9839600Y-9876000D01*
X9814600Y-9851000D02*
X9864600Y-9851000D01*
X9840600Y-9657000D02*
X9840600Y-9707000D01*
X9815600Y-9682000D02*
X9865600Y-9682000D01*
X9859000Y-8124000D02*
X9859000Y-8174000D01*
X9834000Y-8149000D02*
X9884000Y-8149000D01*
X9859000Y-8296000D02*
X9859000Y-8346000D01*
X9834000Y-8321000D02*
X9884000Y-8321000D01*
X9864000Y-8455000D02*
X9864000Y-8505000D01*
X9839000Y-8480000D02*
X9889000Y-8480000D01*
X9865000Y-8810000D02*
X9865000Y-8860000D01*
X9840000Y-8835000D02*
X9890000Y-8835000D01*
X9866000Y-8641000D02*
X9866000Y-8691000D01*
X9841000Y-8666000D02*
X9891000Y-8666000D01*
X10041800Y-9979000D02*
X10041800Y-10029000D01*
X10016800Y-10004000D02*
X10066800Y-10004000D01*
X10042800Y-10334000D02*
X10042800Y-10384000D01*
X10017800Y-10359000D02*
X10067800Y-10359000D01*
X10043800Y-10165000D02*
X10043800Y-10215000D01*
X10018800Y-10190000D02*
X10068800Y-10190000D01*
X10044600Y-9140000D02*
X10044600Y-9190000D01*
X10019600Y-9165000D02*
X10069600Y-9165000D01*
X10044600Y-9312000D02*
X10044600Y-9362000D01*
X10019600Y-9337000D02*
X10069600Y-9337000D01*
X10049600Y-9471000D02*
X10049600Y-9521000D01*
X10024600Y-9496000D02*
X10074600Y-9496000D01*
X10050600Y-9826000D02*
X10050600Y-9876000D01*
X10025600Y-9851000D02*
X10075600Y-9851000D01*
X10051600Y-9657000D02*
X10051600Y-9707000D01*
X10026600Y-9682000D02*
X10076600Y-9682000D01*
X10070000Y-8124000D02*
X10070000Y-8174000D01*
X10045000Y-8149000D02*
X10095000Y-8149000D01*
X10070000Y-8296000D02*
X10070000Y-8346000D01*
X10045000Y-8321000D02*
X10095000Y-8321000D01*
X10075000Y-8455000D02*
X10075000Y-8505000D01*
X10050000Y-8480000D02*
X10100000Y-8480000D01*
X10076000Y-8810000D02*
X10076000Y-8860000D01*
X10051000Y-8835000D02*
X10101000Y-8835000D01*
X10077000Y-8641000D02*
X10077000Y-8691000D01*
X10052000Y-8666000D02*
X10102000Y-8666000D01*
X10237400Y-9140000D02*
X10237400Y-9190000D01*
X10212400Y-9165000D02*
X10262400Y-9165000D01*
X10237400Y-9312000D02*
X10237400Y-9362000D01*
X10212400Y-9337000D02*
X10262400Y-9337000D01*
X10242400Y-9471000D02*
X10242400Y-9521000D01*
X10217400Y-9496000D02*
X10267400Y-9496000D01*
X10243400Y-9826000D02*
X10243400Y-9876000D01*
X10218400Y-9851000D02*
X10268400Y-9851000D01*
X10244400Y-9657000D02*
X10244400Y-9707000D01*
X10219400Y-9682000D02*
X10269400Y-9682000D01*
X10252800Y-9979000D02*
X10252800Y-10029000D01*
X10227800Y-10004000D02*
X10277800Y-10004000D01*
X10253800Y-10334000D02*
X10253800Y-10384000D01*
X10228800Y-10359000D02*
X10278800Y-10359000D01*
X10254800Y-10165000D02*
X10254800Y-10215000D01*
X10229800Y-10190000D02*
X10279800Y-10190000D01*
X10434400Y-9140000D02*
X10434400Y-9190000D01*
X10409400Y-9165000D02*
X10459400Y-9165000D01*
X10434400Y-9312000D02*
X10434400Y-9362000D01*
X10409400Y-9337000D02*
X10459400Y-9337000D01*
X10439400Y-9471000D02*
X10439400Y-9521000D01*
X10414400Y-9496000D02*
X10464400Y-9496000D01*
X10440400Y-9826000D02*
X10440400Y-9876000D01*
X10415400Y-9851000D02*
X10465400Y-9851000D01*
X10441400Y-9657000D02*
X10441400Y-9707000D01*
X10416400Y-9682000D02*
X10466400Y-9682000D01*
X10448200Y-9979000D02*
X10448200Y-10029000D01*
X10423200Y-10004000D02*
X10473200Y-10004000D01*
X10449200Y-10334000D02*
X10449200Y-10384000D01*
X10424200Y-10359000D02*
X10474200Y-10359000D01*
X10450200Y-10165000D02*
X10450200Y-10215000D01*
X10425200Y-10190000D02*
X10475200Y-10190000D01*
X10646400Y-9140000D02*
X10646400Y-9190000D01*
X10621400Y-9165000D02*
X10671400Y-9165000D01*
X10646400Y-9312000D02*
X10646400Y-9362000D01*
X10621400Y-9337000D02*
X10671400Y-9337000D01*
X10651400Y-9471000D02*
X10651400Y-9521000D01*
X10626400Y-9496000D02*
X10676400Y-9496000D01*
X10652400Y-9826000D02*
X10652400Y-9876000D01*
X10627400Y-9851000D02*
X10677400Y-9851000D01*
X10653400Y-9657000D02*
X10653400Y-9707000D01*
X10628400Y-9682000D02*
X10678400Y-9682000D01*
X10659200Y-9979000D02*
X10659200Y-10029000D01*
X10634200Y-10004000D02*
X10684200Y-10004000D01*
X10660200Y-10334000D02*
X10660200Y-10384000D01*
X10635200Y-10359000D02*
X10685200Y-10359000D01*
X10661200Y-10165000D02*
X10661200Y-10215000D01*
X10636200Y-10190000D02*
X10686200Y-10190000D01*
X10854600Y-9979000D02*
X10854600Y-10029000D01*
X10829600Y-10004000D02*
X10879600Y-10004000D01*
X10855600Y-10334000D02*
X10855600Y-10384000D01*
X10830600Y-10359000D02*
X10880600Y-10359000D01*
X10856600Y-10165000D02*
X10856600Y-10215000D01*
X10831600Y-10190000D02*
X10881600Y-10190000D01*
X10857400Y-9140000D02*
X10857400Y-9190000D01*
X10832400Y-9165000D02*
X10882400Y-9165000D01*
X10857400Y-9312000D02*
X10857400Y-9362000D01*
X10832400Y-9337000D02*
X10882400Y-9337000D01*
X10862400Y-9471000D02*
X10862400Y-9521000D01*
X10837400Y-9496000D02*
X10887400Y-9496000D01*
X10863400Y-9826000D02*
X10863400Y-9876000D01*
X10838400Y-9851000D02*
X10888400Y-9851000D01*
X10864400Y-9657000D02*
X10864400Y-9707000D01*
X10839400Y-9682000D02*
X10889400Y-9682000D01*
X11050200Y-9140000D02*
X11050200Y-9190000D01*
X11025200Y-9165000D02*
X11075200Y-9165000D01*
X11050200Y-9312000D02*
X11050200Y-9362000D01*
X11025200Y-9337000D02*
X11075200Y-9337000D01*
X11055200Y-9471000D02*
X11055200Y-9521000D01*
X11030200Y-9496000D02*
X11080200Y-9496000D01*
X11056200Y-9826000D02*
X11056200Y-9876000D01*
X11031200Y-9851000D02*
X11081200Y-9851000D01*
X11057200Y-9657000D02*
X11057200Y-9707000D01*
X11032200Y-9682000D02*
X11082200Y-9682000D01*
X11065600Y-9979000D02*
X11065600Y-10029000D01*
X11040600Y-10004000D02*
X11090600Y-10004000D01*
X11066600Y-10334000D02*
X11066600Y-10384000D01*
X11041600Y-10359000D02*
X11091600Y-10359000D01*
X11067600Y-10165000D02*
X11067600Y-10215000D01*
X11042600Y-10190000D02*
X11092600Y-10190000D01*
X11104600Y-6548200D02*
X11104600Y-6598200D01*
X11079600Y-6573200D02*
X11129600Y-6573200D01*
X11104600Y-6704200D02*
X11104600Y-6754200D01*
X11079600Y-6729200D02*
X11129600Y-6729200D01*
X11104600Y-6876200D02*
X11104600Y-6926200D01*
X11079600Y-6901200D02*
X11129600Y-6901200D01*
X11109600Y-7035200D02*
X11109600Y-7085200D01*
X11084600Y-7060200D02*
X11134600Y-7060200D01*
X11110600Y-7390200D02*
X11110600Y-7440200D01*
X11085600Y-7415200D02*
X11135600Y-7415200D01*
X11111600Y-7221200D02*
X11111600Y-7271200D01*
X11086600Y-7246200D02*
X11136600Y-7246200D01*
X11247200Y-9140000D02*
X11247200Y-9190000D01*
X11222200Y-9165000D02*
X11272200Y-9165000D01*
X11247200Y-9312000D02*
X11247200Y-9362000D01*
X11222200Y-9337000D02*
X11272200Y-9337000D01*
X11252200Y-9471000D02*
X11252200Y-9521000D01*
X11227200Y-9496000D02*
X11277200Y-9496000D01*
X11253200Y-9826000D02*
X11253200Y-9876000D01*
X11228200Y-9851000D02*
X11278200Y-9851000D01*
X11254200Y-9657000D02*
X11254200Y-9707000D01*
X11229200Y-9682000D02*
X11279200Y-9682000D01*
X11261000Y-9979000D02*
X11261000Y-10029000D01*
X11236000Y-10004000D02*
X11286000Y-10004000D01*
X11262000Y-10334000D02*
X11262000Y-10384000D01*
X11237000Y-10359000D02*
X11287000Y-10359000D01*
X11263000Y-10165000D02*
X11263000Y-10215000D01*
X11238000Y-10190000D02*
X11288000Y-10190000D01*
X11282400Y-6548200D02*
X11282400Y-6598200D01*
X11257400Y-6573200D02*
X11307400Y-6573200D01*
X11282400Y-6704200D02*
X11282400Y-6754200D01*
X11257400Y-6729200D02*
X11307400Y-6729200D01*
X11282400Y-6876200D02*
X11282400Y-6926200D01*
X11257400Y-6901200D02*
X11307400Y-6901200D01*
X11287400Y-7035200D02*
X11287400Y-7085200D01*
X11262400Y-7060200D02*
X11312400Y-7060200D01*
X11288400Y-7390200D02*
X11288400Y-7440200D01*
X11263400Y-7415200D02*
X11313400Y-7415200D01*
X11289400Y-7221200D02*
X11289400Y-7271200D01*
X11264400Y-7246200D02*
X11314400Y-7246200D01*
X11459200Y-9140000D02*
X11459200Y-9190000D01*
X11434200Y-9165000D02*
X11484200Y-9165000D01*
X11459200Y-9312000D02*
X11459200Y-9362000D01*
X11434200Y-9337000D02*
X11484200Y-9337000D01*
X11460200Y-6548200D02*
X11460200Y-6598200D01*
X11435200Y-6573200D02*
X11485200Y-6573200D01*
X11460200Y-6704200D02*
X11460200Y-6754200D01*
X11435200Y-6729200D02*
X11485200Y-6729200D01*
X11460200Y-6876200D02*
X11460200Y-6926200D01*
X11435200Y-6901200D02*
X11485200Y-6901200D01*
X11464200Y-9471000D02*
X11464200Y-9521000D01*
X11439200Y-9496000D02*
X11489200Y-9496000D01*
X11465200Y-7035200D02*
X11465200Y-7085200D01*
X11440200Y-7060200D02*
X11490200Y-7060200D01*
X11465200Y-9826000D02*
X11465200Y-9876000D01*
X11440200Y-9851000D02*
X11490200Y-9851000D01*
X11466200Y-7390200D02*
X11466200Y-7440200D01*
X11441200Y-7415200D02*
X11491200Y-7415200D01*
X11466200Y-9657000D02*
X11466200Y-9707000D01*
X11441200Y-9682000D02*
X11491200Y-9682000D01*
X11467200Y-7221200D02*
X11467200Y-7271200D01*
X11442200Y-7246200D02*
X11492200Y-7246200D01*
X11472000Y-9979000D02*
X11472000Y-10029000D01*
X11447000Y-10004000D02*
X11497000Y-10004000D01*
X11473000Y-10334000D02*
X11473000Y-10384000D01*
X11448000Y-10359000D02*
X11498000Y-10359000D01*
X11474000Y-10165000D02*
X11474000Y-10215000D01*
X11449000Y-10190000D02*
X11499000Y-10190000D01*
X11670200Y-9140000D02*
X11670200Y-9190000D01*
X11645200Y-9165000D02*
X11695200Y-9165000D01*
X11670200Y-9312000D02*
X11670200Y-9362000D01*
X11645200Y-9337000D02*
X11695200Y-9337000D01*
X11675200Y-9471000D02*
X11675200Y-9521000D01*
X11650200Y-9496000D02*
X11700200Y-9496000D01*
X11676200Y-9826000D02*
X11676200Y-9876000D01*
X11651200Y-9851000D02*
X11701200Y-9851000D01*
X11677200Y-9657000D02*
X11677200Y-9707000D01*
X11652200Y-9682000D02*
X11702200Y-9682000D01*
X3620252Y-8801302D02*
X3620252Y-8744906D01*
X3563856Y-8744906D01*
X3563856Y-8801302D01*
X3620252Y-8801302D01*
X3620252Y-11240972D02*
X3620252Y-11184576D01*
X3563856Y-11184576D01*
X3563856Y-11240972D01*
X3620252Y-11240972D01*
X3820404Y-8801302D02*
X3820404Y-8744906D01*
X3764008Y-8744906D01*
X3764008Y-8801302D01*
X3820404Y-8801302D01*
X3820404Y-11240972D02*
X3820404Y-11184576D01*
X3764008Y-11184576D01*
X3764008Y-11240972D01*
X3820404Y-11240972D01*
X4020302Y-8801302D02*
X4020302Y-8744906D01*
X3963906Y-8744906D01*
X3963906Y-8801302D01*
X4020302Y-8801302D01*
X4020302Y-11240972D02*
X4020302Y-11184576D01*
X3963906Y-11184576D01*
X3963906Y-11240972D01*
X4020302Y-11240972D01*
X4220200Y-8801302D02*
X4220200Y-8744906D01*
X4163804Y-8744906D01*
X4163804Y-8801302D01*
X4220200Y-8801302D01*
X4220200Y-11240972D02*
X4220200Y-11184576D01*
X4163804Y-11184576D01*
X4163804Y-11240972D01*
X4220200Y-11240972D01*
X4420352Y-8801302D02*
X4420352Y-8744906D01*
X4363956Y-8744906D01*
X4363956Y-8801302D01*
X4420352Y-8801302D01*
X4420352Y-11240972D02*
X4420352Y-11184576D01*
X4363956Y-11184576D01*
X4363956Y-11240972D01*
X4420352Y-11240972D01*
X4620250Y-8801302D02*
X4620250Y-8744906D01*
X4563854Y-8744906D01*
X4563854Y-8801302D01*
X4620250Y-8801302D01*
X4620250Y-11240972D02*
X4620250Y-11184576D01*
X4563854Y-11184576D01*
X4563854Y-11240972D01*
X4620250Y-11240972D01*
X4820402Y-8801302D02*
X4820402Y-8744906D01*
X4764006Y-8744906D01*
X4764006Y-8801302D01*
X4820402Y-8801302D01*
X4820402Y-11240972D02*
X4820402Y-11184576D01*
X4764006Y-11184576D01*
X4764006Y-11240972D01*
X4820402Y-11240972D01*
X5020300Y-8801302D02*
X5020300Y-8744906D01*
X4963904Y-8744906D01*
X4963904Y-8801302D01*
X5020300Y-8801302D01*
X5020300Y-11240972D02*
X5020300Y-11184576D01*
X4963904Y-11184576D01*
X4963904Y-11240972D01*
X5020300Y-11240972D01*
X5220198Y-8801302D02*
X5220198Y-8744906D01*
X5163802Y-8744906D01*
X5163802Y-8801302D01*
X5220198Y-8801302D01*
X5220198Y-11240972D02*
X5220198Y-11184576D01*
X5163802Y-11184576D01*
X5163802Y-11240972D01*
X5220198Y-11240972D01*
X5420096Y-8801302D02*
X5420096Y-8744906D01*
X5363700Y-8744906D01*
X5363700Y-8801302D01*
X5420096Y-8801302D01*
X5420096Y-11240972D02*
X5420096Y-11184576D01*
X5363700Y-11184576D01*
X5363700Y-11240972D01*
X5420096Y-11240972D01*
X5619994Y-8801302D02*
X5619994Y-8744906D01*
X5563598Y-8744906D01*
X5563598Y-8801302D01*
X5619994Y-8801302D01*
X5619994Y-11240972D02*
X5619994Y-11184576D01*
X5563598Y-11184576D01*
X5563598Y-11240972D01*
X5619994Y-11240972D01*
X5820146Y-8801302D02*
X5820146Y-8744906D01*
X5763750Y-8744906D01*
X5763750Y-8801302D01*
X5820146Y-8801302D01*
X5820146Y-11240972D02*
X5820146Y-11184576D01*
X5763750Y-11184576D01*
X5763750Y-11240972D01*
X5820146Y-11240972D01*
X6020044Y-8801302D02*
X6020044Y-8744906D01*
X5963648Y-8744906D01*
X5963648Y-8801302D01*
X6020044Y-8801302D01*
X6020044Y-11240972D02*
X6020044Y-11184576D01*
X5963648Y-11184576D01*
X5963648Y-11240972D01*
X6020044Y-11240972D01*
X6220196Y-8801302D02*
X6220196Y-8744906D01*
X6163800Y-8744906D01*
X6163800Y-8801302D01*
X6220196Y-8801302D01*
X6220196Y-11240972D02*
X6220196Y-11184576D01*
X6163800Y-11184576D01*
X6163800Y-11240972D01*
X6220196Y-11240972D01*
X6420094Y-8801302D02*
X6420094Y-8744906D01*
X6363698Y-8744906D01*
X6363698Y-8801302D01*
X6420094Y-8801302D01*
X6420094Y-11240972D02*
X6420094Y-11184576D01*
X6363698Y-11184576D01*
X6363698Y-11240972D01*
X6420094Y-11240972D01*
X6619992Y-8801302D02*
X6619992Y-8744906D01*
X6563596Y-8744906D01*
X6563596Y-8801302D01*
X6619992Y-8801302D01*
X6619992Y-11240972D02*
X6619992Y-11184576D01*
X6563596Y-11184576D01*
X6563596Y-11240972D01*
X6619992Y-11240972D01*
X8765000Y-12105000D02*
X8815000Y-12055000D01*
X8765000Y-12005000D01*
X8715000Y-12055000D01*
X8765000Y-12105000D01*
X9300000Y-10067500D02*
X9350000Y-10017500D01*
X9300000Y-9967500D01*
X9250000Y-10017500D01*
X9300000Y-10067500D01*
X11308000Y-9022000D02*
X11358000Y-8972000D01*
X11308000Y-8922000D01*
X11258000Y-8972000D01*
X11308000Y-9022000D01*
X11762000Y-6672000D02*
X11812000Y-6622000D01*
X11762000Y-6572000D01*
X11712000Y-6622000D01*
X11762000Y-6672000D01*
X10610300Y-3260100D02*
X10660300Y-3210100D01*
X10610300Y-3160100D01*
X10560300Y-3210100D01*
X10610300Y-3260100D01*
X10650300Y-3310100D02*
X10650300Y-3110100D01*
X10570300Y-3310100D02*
X10570300Y-3110100D01*
X10650300Y-3110100D02*
G75*
G03X10570300Y-3110100I-40000J0D01*
G01*
X10570300Y-3310100D02*
G75*
G03X10650300Y-3310100I40000J0D01*
G01*
X10910300Y-2790100D02*
X10960300Y-2740100D01*
X10910300Y-2690100D01*
X10860300Y-2740100D01*
X10910300Y-2790100D01*
X11010300Y-2700100D02*
X10810300Y-2700100D01*
X11010300Y-2780100D02*
X10810300Y-2780100D01*
X10810300Y-2700100D02*
G75*
G03X10810300Y-2780100I0J-40000D01*
G01*
X11010300Y-2780100D02*
G75*
G03X11010300Y-2700100I0J40000D01*
G01*
X11210300Y-3260100D02*
X11260300Y-3210100D01*
X11210300Y-3160100D01*
X11160300Y-3210100D01*
X11210300Y-3260100D01*
X11250300Y-3310100D02*
X11250300Y-3110100D01*
X11170300Y-3310100D02*
X11170300Y-3110100D01*
X11250300Y-3110100D02*
G75*
G03X11170300Y-3110100I-40000J0D01*
G01*
X11170300Y-3310100D02*
G75*
G03X11250300Y-3310100I40000J0D01*
G01*
X10614800Y-11134700D02*
X10664800Y-11084700D01*
X10614800Y-11034700D01*
X10564800Y-11084700D01*
X10614800Y-11134700D01*
X10614800Y-11388700D02*
X10664800Y-11338700D01*
X10614800Y-11288700D01*
X10564800Y-11338700D01*
X10614800Y-11388700D01*
X10614800Y-11591700D02*
X10664800Y-11541700D01*
X10614800Y-11491700D01*
X10564800Y-11541700D01*
X10614800Y-11591700D01*
X10614800Y-11845700D02*
X10664800Y-11795700D01*
X10614800Y-11745700D01*
X10564800Y-11795700D01*
X10614800Y-11845700D01*
X3310000Y-3253500D02*
X3360000Y-3203500D01*
X3310000Y-3153500D01*
X3260000Y-3203500D01*
X3310000Y-3253500D01*
X3310000Y-3507500D02*
X3360000Y-3457500D01*
X3310000Y-3407500D01*
X3260000Y-3457500D01*
X3310000Y-3507500D01*
X3564000Y-3253500D02*
X3614000Y-3203500D01*
X3564000Y-3153500D01*
X3514000Y-3203500D01*
X3564000Y-3253500D01*
X3564000Y-3507500D02*
X3614000Y-3457500D01*
X3564000Y-3407500D01*
X3514000Y-3457500D01*
X3564000Y-3507500D01*
X3818000Y-3253500D02*
X3868000Y-3203500D01*
X3818000Y-3153500D01*
X3768000Y-3203500D01*
X3818000Y-3253500D01*
X3818000Y-3507500D02*
X3868000Y-3457500D01*
X3818000Y-3407500D01*
X3768000Y-3457500D01*
X3818000Y-3507500D01*
X4072000Y-3253500D02*
X4122000Y-3203500D01*
X4072000Y-3153500D01*
X4022000Y-3203500D01*
X4072000Y-3253500D01*
X4072000Y-3507500D02*
X4122000Y-3457500D01*
X4072000Y-3407500D01*
X4022000Y-3457500D01*
X4072000Y-3507500D01*
X4326000Y-3253500D02*
X4376000Y-3203500D01*
X4326000Y-3153500D01*
X4276000Y-3203500D01*
X4326000Y-3253500D01*
X4326000Y-3507500D02*
X4376000Y-3457500D01*
X4326000Y-3407500D01*
X4276000Y-3457500D01*
X4326000Y-3507500D01*
X4580000Y-3253500D02*
X4630000Y-3203500D01*
X4580000Y-3153500D01*
X4530000Y-3203500D01*
X4580000Y-3253500D01*
X4580000Y-3507500D02*
X4630000Y-3457500D01*
X4580000Y-3407500D01*
X4530000Y-3457500D01*
X4580000Y-3507500D01*
X4834000Y-3253500D02*
X4884000Y-3203500D01*
X4834000Y-3153500D01*
X4784000Y-3203500D01*
X4834000Y-3253500D01*
X4834000Y-3507500D02*
X4884000Y-3457500D01*
X4834000Y-3407500D01*
X4784000Y-3457500D01*
X4834000Y-3507500D01*
X3022500Y-11691000D02*
X3072500Y-11641000D01*
X3022500Y-11591000D01*
X2972500Y-11641000D01*
X3022500Y-11691000D01*
X3022500Y-11945000D02*
X3072500Y-11895000D01*
X3022500Y-11845000D01*
X2972500Y-11895000D01*
X3022500Y-11945000D01*
X3022500Y-12199000D02*
X3072500Y-12149000D01*
X3022500Y-12099000D01*
X2972500Y-12149000D01*
X3022500Y-12199000D01*
X10766800Y-10664700D02*
X10996800Y-10894700D01*
X10996800Y-10664700D02*
X10766800Y-10894700D01*
X10996800Y-10779700D02*
G75*
G03X10996800Y-10779700I-115000J0D01*
G01*
X10766800Y-12036700D02*
X10996800Y-12266700D01*
X10996800Y-12036700D02*
X10766800Y-12266700D01*
X10996800Y-12151700D02*
G75*
G03X10996800Y-12151700I-115000J0D01*
G01*
D12*
X2325928Y-12906214D02*
X2325928Y-12606214D01*
X2397357Y-12606214D01*
X2440214Y-12620500D01*
X2468786Y-12649071D01*
X2483071Y-12677643D01*
X2497357Y-12734786D01*
X2497357Y-12777643D01*
X2483071Y-12834786D01*
X2468786Y-12863357D01*
X2440214Y-12891929D01*
X2397357Y-12906214D01*
X2325928Y-12906214D01*
X2625928Y-12906214D02*
X2625928Y-12706214D01*
X2625928Y-12763357D02*
X2640214Y-12734786D01*
X2654500Y-12720500D01*
X2683071Y-12706214D01*
X2711643Y-12706214D01*
X2811643Y-12906214D02*
X2811643Y-12706214D01*
X2811643Y-12606214D02*
X2797357Y-12620500D01*
X2811643Y-12634786D01*
X2825928Y-12620500D01*
X2811643Y-12606214D01*
X2811643Y-12634786D01*
X2997357Y-12906214D02*
X2968786Y-12891929D01*
X2954500Y-12863357D01*
X2954500Y-12606214D01*
X3154500Y-12906214D02*
X3125928Y-12891929D01*
X3111643Y-12863357D01*
X3111643Y-12606214D01*
X3497357Y-12906214D02*
X3497357Y-12606214D01*
X3597357Y-12820500D01*
X3697357Y-12606214D01*
X3697357Y-12906214D01*
X3968786Y-12906214D02*
X3968786Y-12749071D01*
X3954500Y-12720500D01*
X3925928Y-12706214D01*
X3868786Y-12706214D01*
X3840214Y-12720500D01*
X3968786Y-12891929D02*
X3940214Y-12906214D01*
X3868786Y-12906214D01*
X3840214Y-12891929D01*
X3825928Y-12863357D01*
X3825928Y-12834786D01*
X3840214Y-12806214D01*
X3868786Y-12791929D01*
X3940214Y-12791929D01*
X3968786Y-12777643D01*
X4111643Y-12706214D02*
X4111643Y-13006214D01*
X4111643Y-12720500D02*
X4140214Y-12706214D01*
X4197357Y-12706214D01*
X4225928Y-12720500D01*
X4240214Y-12734786D01*
X4254500Y-12763357D01*
X4254500Y-12849071D01*
X4240214Y-12877643D01*
X4225928Y-12891929D01*
X4197357Y-12906214D01*
X4140214Y-12906214D01*
X4111643Y-12891929D01*
X4383071Y-12877643D02*
X4397357Y-12891929D01*
X4383071Y-12906214D01*
X4368786Y-12891929D01*
X4383071Y-12877643D01*
X4383071Y-12906214D01*
X4383071Y-12720500D02*
X4397357Y-12734786D01*
X4383071Y-12749071D01*
X4368786Y-12734786D01*
X4383071Y-12720500D01*
X4383071Y-12749071D01*
X2009500Y-13385500D02*
X2039500Y-13415500D01*
X2039500Y-13385500D02*
X2009500Y-13415500D01*
X2383071Y-13236214D02*
X2411643Y-13236214D01*
X2440214Y-13250500D01*
X2454500Y-13264786D01*
X2468786Y-13293357D01*
X2483071Y-13350500D01*
X2483071Y-13421929D01*
X2468786Y-13479071D01*
X2454500Y-13507643D01*
X2440214Y-13521929D01*
X2411643Y-13536214D01*
X2383071Y-13536214D01*
X2354500Y-13521929D01*
X2340214Y-13507643D01*
X2325928Y-13479071D01*
X2311643Y-13421929D01*
X2311643Y-13350500D01*
X2325928Y-13293357D01*
X2340214Y-13264786D01*
X2354500Y-13250500D01*
X2383071Y-13236214D01*
X2611643Y-13507643D02*
X2625928Y-13521929D01*
X2611643Y-13536214D01*
X2597357Y-13521929D01*
X2611643Y-13507643D01*
X2611643Y-13536214D01*
X2725928Y-13236214D02*
X2911643Y-13236214D01*
X2811643Y-13350500D01*
X2854500Y-13350500D01*
X2883071Y-13364786D01*
X2897357Y-13379071D01*
X2911643Y-13407643D01*
X2911643Y-13479071D01*
X2897357Y-13507643D01*
X2883071Y-13521929D01*
X2854500Y-13536214D01*
X2768786Y-13536214D01*
X2740214Y-13521929D01*
X2725928Y-13507643D01*
X3097357Y-13236214D02*
X3125928Y-13236214D01*
X3154500Y-13250500D01*
X3168786Y-13264786D01*
X3183071Y-13293357D01*
X3197357Y-13350500D01*
X3197357Y-13421929D01*
X3183071Y-13479071D01*
X3168786Y-13507643D01*
X3154500Y-13521929D01*
X3125928Y-13536214D01*
X3097357Y-13536214D01*
X3068786Y-13521929D01*
X3054500Y-13507643D01*
X3040214Y-13479071D01*
X3025928Y-13421929D01*
X3025928Y-13350500D01*
X3040214Y-13293357D01*
X3054500Y-13264786D01*
X3068786Y-13250500D01*
X3097357Y-13236214D01*
X3325928Y-13536214D02*
X3325928Y-13336214D01*
X3325928Y-13364786D02*
X3340214Y-13350500D01*
X3368786Y-13336214D01*
X3411643Y-13336214D01*
X3440214Y-13350500D01*
X3454500Y-13379071D01*
X3454500Y-13536214D01*
X3454500Y-13379071D02*
X3468786Y-13350500D01*
X3497357Y-13336214D01*
X3540214Y-13336214D01*
X3568786Y-13350500D01*
X3583071Y-13379071D01*
X3583071Y-13536214D01*
X3725928Y-13536214D02*
X3725928Y-13336214D01*
X3725928Y-13364786D02*
X3740214Y-13350500D01*
X3768786Y-13336214D01*
X3811643Y-13336214D01*
X3840214Y-13350500D01*
X3854500Y-13379071D01*
X3854500Y-13536214D01*
X3854500Y-13379071D02*
X3868786Y-13350500D01*
X3897357Y-13336214D01*
X3940214Y-13336214D01*
X3968786Y-13350500D01*
X3983071Y-13379071D01*
X3983071Y-13536214D01*
X4568786Y-13221929D02*
X4311643Y-13607643D01*
X4954500Y-13236214D02*
X4983071Y-13236214D01*
X5011643Y-13250500D01*
X5025928Y-13264786D01*
X5040214Y-13293357D01*
X5054500Y-13350500D01*
X5054500Y-13421929D01*
X5040214Y-13479071D01*
X5025928Y-13507643D01*
X5011643Y-13521929D01*
X4983071Y-13536214D01*
X4954500Y-13536214D01*
X4925928Y-13521929D01*
X4911643Y-13507643D01*
X4897357Y-13479071D01*
X4883071Y-13421929D01*
X4883071Y-13350500D01*
X4897357Y-13293357D01*
X4911643Y-13264786D01*
X4925928Y-13250500D01*
X4954500Y-13236214D01*
X5183071Y-13507643D02*
X5197357Y-13521929D01*
X5183071Y-13536214D01*
X5168786Y-13521929D01*
X5183071Y-13507643D01*
X5183071Y-13536214D01*
X5383071Y-13236214D02*
X5411643Y-13236214D01*
X5440214Y-13250500D01*
X5454500Y-13264786D01*
X5468786Y-13293357D01*
X5483071Y-13350500D01*
X5483071Y-13421929D01*
X5468786Y-13479071D01*
X5454500Y-13507643D01*
X5440214Y-13521929D01*
X5411643Y-13536214D01*
X5383071Y-13536214D01*
X5354500Y-13521929D01*
X5340214Y-13507643D01*
X5325928Y-13479071D01*
X5311643Y-13421929D01*
X5311643Y-13350500D01*
X5325928Y-13293357D01*
X5340214Y-13264786D01*
X5354500Y-13250500D01*
X5383071Y-13236214D01*
X5768786Y-13536214D02*
X5597357Y-13536214D01*
X5683071Y-13536214D02*
X5683071Y-13236214D01*
X5654500Y-13279071D01*
X5625928Y-13307643D01*
X5597357Y-13321929D01*
X5883071Y-13264786D02*
X5897357Y-13250500D01*
X5925928Y-13236214D01*
X5997357Y-13236214D01*
X6025928Y-13250500D01*
X6040214Y-13264786D01*
X6054500Y-13293357D01*
X6054500Y-13321929D01*
X6040214Y-13364786D01*
X5868786Y-13536214D01*
X6054500Y-13536214D01*
X6168786Y-13236214D02*
X6168786Y-13293357D01*
X6283071Y-13236214D02*
X6283071Y-13293357D01*
X6725928Y-13650500D02*
X6711643Y-13636214D01*
X6683071Y-13593357D01*
X6668786Y-13564786D01*
X6654500Y-13521929D01*
X6640214Y-13450500D01*
X6640214Y-13393357D01*
X6654500Y-13321929D01*
X6668786Y-13279071D01*
X6683071Y-13250500D01*
X6711643Y-13207643D01*
X6725928Y-13193357D01*
X6997357Y-13536214D02*
X6825928Y-13536214D01*
X6911643Y-13536214D02*
X6911643Y-13236214D01*
X6883071Y-13279071D01*
X6854500Y-13307643D01*
X6825928Y-13321929D01*
X7183071Y-13236214D02*
X7211643Y-13236214D01*
X7240214Y-13250500D01*
X7254500Y-13264786D01*
X7268786Y-13293357D01*
X7283071Y-13350500D01*
X7283071Y-13421929D01*
X7268786Y-13479071D01*
X7254500Y-13507643D01*
X7240214Y-13521929D01*
X7211643Y-13536214D01*
X7183071Y-13536214D01*
X7154500Y-13521929D01*
X7140214Y-13507643D01*
X7125928Y-13479071D01*
X7111643Y-13421929D01*
X7111643Y-13350500D01*
X7125928Y-13293357D01*
X7140214Y-13264786D01*
X7154500Y-13250500D01*
X7183071Y-13236214D01*
X7397357Y-13264786D02*
X7411643Y-13250500D01*
X7440214Y-13236214D01*
X7511643Y-13236214D01*
X7540214Y-13250500D01*
X7554500Y-13264786D01*
X7568786Y-13293357D01*
X7568786Y-13321929D01*
X7554500Y-13364786D01*
X7383071Y-13536214D01*
X7568786Y-13536214D01*
X7925928Y-13536214D02*
X7925928Y-13236214D01*
X8054500Y-13536214D02*
X8054500Y-13379071D01*
X8040214Y-13350500D01*
X8011643Y-13336214D01*
X7968786Y-13336214D01*
X7940214Y-13350500D01*
X7925928Y-13364786D01*
X8240214Y-13536214D02*
X8211643Y-13521929D01*
X8197357Y-13507643D01*
X8183071Y-13479071D01*
X8183071Y-13393357D01*
X8197357Y-13364786D01*
X8211643Y-13350500D01*
X8240214Y-13336214D01*
X8283071Y-13336214D01*
X8311643Y-13350500D01*
X8325928Y-13364786D01*
X8340214Y-13393357D01*
X8340214Y-13479071D01*
X8325928Y-13507643D01*
X8311643Y-13521929D01*
X8283071Y-13536214D01*
X8240214Y-13536214D01*
X8511643Y-13536214D02*
X8483071Y-13521929D01*
X8468786Y-13493357D01*
X8468786Y-13236214D01*
X8740214Y-13521929D02*
X8711643Y-13536214D01*
X8654500Y-13536214D01*
X8625928Y-13521929D01*
X8611643Y-13493357D01*
X8611643Y-13379071D01*
X8625928Y-13350500D01*
X8654500Y-13336214D01*
X8711643Y-13336214D01*
X8740214Y-13350500D01*
X8754500Y-13379071D01*
X8754500Y-13407643D01*
X8611643Y-13436214D01*
X8868786Y-13521929D02*
X8897357Y-13536214D01*
X8954500Y-13536214D01*
X8983071Y-13521929D01*
X8997357Y-13493357D01*
X8997357Y-13479071D01*
X8983071Y-13450500D01*
X8954500Y-13436214D01*
X8911643Y-13436214D01*
X8883071Y-13421929D01*
X8868786Y-13393357D01*
X8868786Y-13379071D01*
X8883071Y-13350500D01*
X8911643Y-13336214D01*
X8954500Y-13336214D01*
X8983071Y-13350500D01*
X9097357Y-13650500D02*
X9111643Y-13636214D01*
X9140214Y-13593357D01*
X9154500Y-13564786D01*
X9168786Y-13521929D01*
X9183071Y-13450500D01*
X9183071Y-13393357D01*
X9168786Y-13321929D01*
X9154500Y-13279071D01*
X9140214Y-13250500D01*
X9111643Y-13207643D01*
X9097357Y-13193357D01*
X2039500Y-13796500D02*
G75*
G03X2039500Y-13796500I-20000J0D01*
G01*
X2383071Y-13632214D02*
X2411643Y-13632214D01*
X2440214Y-13646500D01*
X2454500Y-13660786D01*
X2468786Y-13689357D01*
X2483071Y-13746500D01*
X2483071Y-13817929D01*
X2468786Y-13875071D01*
X2454500Y-13903643D01*
X2440214Y-13917929D01*
X2411643Y-13932214D01*
X2383071Y-13932214D01*
X2354500Y-13917929D01*
X2340214Y-13903643D01*
X2325928Y-13875071D01*
X2311643Y-13817929D01*
X2311643Y-13746500D01*
X2325928Y-13689357D01*
X2340214Y-13660786D01*
X2354500Y-13646500D01*
X2383071Y-13632214D01*
X2611643Y-13903643D02*
X2625928Y-13917929D01*
X2611643Y-13932214D01*
X2597357Y-13917929D01*
X2611643Y-13903643D01*
X2611643Y-13932214D01*
X2883071Y-13732214D02*
X2883071Y-13932214D01*
X2811643Y-13617929D02*
X2740214Y-13832214D01*
X2925928Y-13832214D01*
X3097357Y-13632214D02*
X3125928Y-13632214D01*
X3154500Y-13646500D01*
X3168786Y-13660786D01*
X3183071Y-13689357D01*
X3197357Y-13746500D01*
X3197357Y-13817929D01*
X3183071Y-13875071D01*
X3168786Y-13903643D01*
X3154500Y-13917929D01*
X3125928Y-13932214D01*
X3097357Y-13932214D01*
X3068786Y-13917929D01*
X3054500Y-13903643D01*
X3040214Y-13875071D01*
X3025928Y-13817929D01*
X3025928Y-13746500D01*
X3040214Y-13689357D01*
X3054500Y-13660786D01*
X3068786Y-13646500D01*
X3097357Y-13632214D01*
X3325928Y-13932214D02*
X3325928Y-13732214D01*
X3325928Y-13760786D02*
X3340214Y-13746500D01*
X3368786Y-13732214D01*
X3411643Y-13732214D01*
X3440214Y-13746500D01*
X3454500Y-13775071D01*
X3454500Y-13932214D01*
X3454500Y-13775071D02*
X3468786Y-13746500D01*
X3497357Y-13732214D01*
X3540214Y-13732214D01*
X3568786Y-13746500D01*
X3583071Y-13775071D01*
X3583071Y-13932214D01*
X3725928Y-13932214D02*
X3725928Y-13732214D01*
X3725928Y-13760786D02*
X3740214Y-13746500D01*
X3768786Y-13732214D01*
X3811643Y-13732214D01*
X3840214Y-13746500D01*
X3854500Y-13775071D01*
X3854500Y-13932214D01*
X3854500Y-13775071D02*
X3868786Y-13746500D01*
X3897357Y-13732214D01*
X3940214Y-13732214D01*
X3968786Y-13746500D01*
X3983071Y-13775071D01*
X3983071Y-13932214D01*
X4568786Y-13617929D02*
X4311643Y-14003643D01*
X4954500Y-13632214D02*
X4983071Y-13632214D01*
X5011643Y-13646500D01*
X5025928Y-13660786D01*
X5040214Y-13689357D01*
X5054500Y-13746500D01*
X5054500Y-13817929D01*
X5040214Y-13875071D01*
X5025928Y-13903643D01*
X5011643Y-13917929D01*
X4983071Y-13932214D01*
X4954500Y-13932214D01*
X4925928Y-13917929D01*
X4911643Y-13903643D01*
X4897357Y-13875071D01*
X4883071Y-13817929D01*
X4883071Y-13746500D01*
X4897357Y-13689357D01*
X4911643Y-13660786D01*
X4925928Y-13646500D01*
X4954500Y-13632214D01*
X5183071Y-13903643D02*
X5197357Y-13917929D01*
X5183071Y-13932214D01*
X5168786Y-13917929D01*
X5183071Y-13903643D01*
X5183071Y-13932214D01*
X5383071Y-13632214D02*
X5411643Y-13632214D01*
X5440214Y-13646500D01*
X5454500Y-13660786D01*
X5468786Y-13689357D01*
X5483071Y-13746500D01*
X5483071Y-13817929D01*
X5468786Y-13875071D01*
X5454500Y-13903643D01*
X5440214Y-13917929D01*
X5411643Y-13932214D01*
X5383071Y-13932214D01*
X5354500Y-13917929D01*
X5340214Y-13903643D01*
X5325928Y-13875071D01*
X5311643Y-13817929D01*
X5311643Y-13746500D01*
X5325928Y-13689357D01*
X5340214Y-13660786D01*
X5354500Y-13646500D01*
X5383071Y-13632214D01*
X5768786Y-13932214D02*
X5597357Y-13932214D01*
X5683071Y-13932214D02*
X5683071Y-13632214D01*
X5654500Y-13675071D01*
X5625928Y-13703643D01*
X5597357Y-13717929D01*
X6025928Y-13632214D02*
X5968786Y-13632214D01*
X5940214Y-13646500D01*
X5925928Y-13660786D01*
X5897357Y-13703643D01*
X5883071Y-13760786D01*
X5883071Y-13875071D01*
X5897357Y-13903643D01*
X5911643Y-13917929D01*
X5940214Y-13932214D01*
X5997357Y-13932214D01*
X6025928Y-13917929D01*
X6040214Y-13903643D01*
X6054500Y-13875071D01*
X6054500Y-13803643D01*
X6040214Y-13775071D01*
X6025928Y-13760786D01*
X5997357Y-13746500D01*
X5940214Y-13746500D01*
X5911643Y-13760786D01*
X5897357Y-13775071D01*
X5883071Y-13803643D01*
X6168786Y-13632214D02*
X6168786Y-13689357D01*
X6283071Y-13632214D02*
X6283071Y-13689357D01*
X6725928Y-14046500D02*
X6711643Y-14032214D01*
X6683071Y-13989357D01*
X6668786Y-13960786D01*
X6654500Y-13917929D01*
X6640214Y-13846500D01*
X6640214Y-13789357D01*
X6654500Y-13717929D01*
X6668786Y-13675071D01*
X6683071Y-13646500D01*
X6711643Y-13603643D01*
X6725928Y-13589357D01*
X6968786Y-13732214D02*
X6968786Y-13932214D01*
X6897357Y-13617929D02*
X6825928Y-13832214D01*
X7011643Y-13832214D01*
X7354500Y-13932214D02*
X7354500Y-13632214D01*
X7483071Y-13932214D02*
X7483071Y-13775071D01*
X7468786Y-13746500D01*
X7440214Y-13732214D01*
X7397357Y-13732214D01*
X7368786Y-13746500D01*
X7354500Y-13760786D01*
X7668786Y-13932214D02*
X7640214Y-13917929D01*
X7625928Y-13903643D01*
X7611643Y-13875071D01*
X7611643Y-13789357D01*
X7625928Y-13760786D01*
X7640214Y-13746500D01*
X7668786Y-13732214D01*
X7711643Y-13732214D01*
X7740214Y-13746500D01*
X7754500Y-13760786D01*
X7768786Y-13789357D01*
X7768786Y-13875071D01*
X7754500Y-13903643D01*
X7740214Y-13917929D01*
X7711643Y-13932214D01*
X7668786Y-13932214D01*
X7940214Y-13932214D02*
X7911643Y-13917929D01*
X7897357Y-13889357D01*
X7897357Y-13632214D01*
X8168786Y-13917929D02*
X8140214Y-13932214D01*
X8083071Y-13932214D01*
X8054500Y-13917929D01*
X8040214Y-13889357D01*
X8040214Y-13775071D01*
X8054500Y-13746500D01*
X8083071Y-13732214D01*
X8140214Y-13732214D01*
X8168786Y-13746500D01*
X8183071Y-13775071D01*
X8183071Y-13803643D01*
X8040214Y-13832214D01*
X8297357Y-13917929D02*
X8325928Y-13932214D01*
X8383071Y-13932214D01*
X8411643Y-13917929D01*
X8425928Y-13889357D01*
X8425928Y-13875071D01*
X8411643Y-13846500D01*
X8383071Y-13832214D01*
X8340214Y-13832214D01*
X8311643Y-13817929D01*
X8297357Y-13789357D01*
X8297357Y-13775071D01*
X8311643Y-13746500D01*
X8340214Y-13732214D01*
X8383071Y-13732214D01*
X8411643Y-13746500D01*
X8525928Y-14046500D02*
X8540214Y-14032214D01*
X8568786Y-13989357D01*
X8583071Y-13960786D01*
X8597357Y-13917929D01*
X8611643Y-13846500D01*
X8611643Y-13789357D01*
X8597357Y-13717929D01*
X8583071Y-13675071D01*
X8568786Y-13646500D01*
X8540214Y-13603643D01*
X8525928Y-13589357D01*
X2014500Y-14167500D02*
X2014500Y-14217500D01*
X1989500Y-14192500D02*
X2039500Y-14192500D01*
X2383071Y-14028214D02*
X2411643Y-14028214D01*
X2440214Y-14042500D01*
X2454500Y-14056786D01*
X2468786Y-14085357D01*
X2483071Y-14142500D01*
X2483071Y-14213929D01*
X2468786Y-14271071D01*
X2454500Y-14299643D01*
X2440214Y-14313929D01*
X2411643Y-14328214D01*
X2383071Y-14328214D01*
X2354500Y-14313929D01*
X2340214Y-14299643D01*
X2325928Y-14271071D01*
X2311643Y-14213929D01*
X2311643Y-14142500D01*
X2325928Y-14085357D01*
X2340214Y-14056786D01*
X2354500Y-14042500D01*
X2383071Y-14028214D01*
X2611643Y-14299643D02*
X2625928Y-14313929D01*
X2611643Y-14328214D01*
X2597357Y-14313929D01*
X2611643Y-14299643D01*
X2611643Y-14328214D01*
X2897357Y-14028214D02*
X2754500Y-14028214D01*
X2740214Y-14171071D01*
X2754500Y-14156786D01*
X2783071Y-14142500D01*
X2854500Y-14142500D01*
X2883071Y-14156786D01*
X2897357Y-14171071D01*
X2911643Y-14199643D01*
X2911643Y-14271071D01*
X2897357Y-14299643D01*
X2883071Y-14313929D01*
X2854500Y-14328214D01*
X2783071Y-14328214D01*
X2754500Y-14313929D01*
X2740214Y-14299643D01*
X3097357Y-14028214D02*
X3125928Y-14028214D01*
X3154500Y-14042500D01*
X3168786Y-14056786D01*
X3183071Y-14085357D01*
X3197357Y-14142500D01*
X3197357Y-14213929D01*
X3183071Y-14271071D01*
X3168786Y-14299643D01*
X3154500Y-14313929D01*
X3125928Y-14328214D01*
X3097357Y-14328214D01*
X3068786Y-14313929D01*
X3054500Y-14299643D01*
X3040214Y-14271071D01*
X3025928Y-14213929D01*
X3025928Y-14142500D01*
X3040214Y-14085357D01*
X3054500Y-14056786D01*
X3068786Y-14042500D01*
X3097357Y-14028214D01*
X3325928Y-14328214D02*
X3325928Y-14128214D01*
X3325928Y-14156786D02*
X3340214Y-14142500D01*
X3368786Y-14128214D01*
X3411643Y-14128214D01*
X3440214Y-14142500D01*
X3454500Y-14171071D01*
X3454500Y-14328214D01*
X3454500Y-14171071D02*
X3468786Y-14142500D01*
X3497357Y-14128214D01*
X3540214Y-14128214D01*
X3568786Y-14142500D01*
X3583071Y-14171071D01*
X3583071Y-14328214D01*
X3725928Y-14328214D02*
X3725928Y-14128214D01*
X3725928Y-14156786D02*
X3740214Y-14142500D01*
X3768786Y-14128214D01*
X3811643Y-14128214D01*
X3840214Y-14142500D01*
X3854500Y-14171071D01*
X3854500Y-14328214D01*
X3854500Y-14171071D02*
X3868786Y-14142500D01*
X3897357Y-14128214D01*
X3940214Y-14128214D01*
X3968786Y-14142500D01*
X3983071Y-14171071D01*
X3983071Y-14328214D01*
X4568786Y-14013929D02*
X4311643Y-14399643D01*
X4954500Y-14028214D02*
X4983071Y-14028214D01*
X5011643Y-14042500D01*
X5025928Y-14056786D01*
X5040214Y-14085357D01*
X5054500Y-14142500D01*
X5054500Y-14213929D01*
X5040214Y-14271071D01*
X5025928Y-14299643D01*
X5011643Y-14313929D01*
X4983071Y-14328214D01*
X4954500Y-14328214D01*
X4925928Y-14313929D01*
X4911643Y-14299643D01*
X4897357Y-14271071D01*
X4883071Y-14213929D01*
X4883071Y-14142500D01*
X4897357Y-14085357D01*
X4911643Y-14056786D01*
X4925928Y-14042500D01*
X4954500Y-14028214D01*
X5183071Y-14299643D02*
X5197357Y-14313929D01*
X5183071Y-14328214D01*
X5168786Y-14313929D01*
X5183071Y-14299643D01*
X5183071Y-14328214D01*
X5383071Y-14028214D02*
X5411643Y-14028214D01*
X5440214Y-14042500D01*
X5454500Y-14056786D01*
X5468786Y-14085357D01*
X5483071Y-14142500D01*
X5483071Y-14213929D01*
X5468786Y-14271071D01*
X5454500Y-14299643D01*
X5440214Y-14313929D01*
X5411643Y-14328214D01*
X5383071Y-14328214D01*
X5354500Y-14313929D01*
X5340214Y-14299643D01*
X5325928Y-14271071D01*
X5311643Y-14213929D01*
X5311643Y-14142500D01*
X5325928Y-14085357D01*
X5340214Y-14056786D01*
X5354500Y-14042500D01*
X5383071Y-14028214D01*
X5597357Y-14056786D02*
X5611643Y-14042500D01*
X5640214Y-14028214D01*
X5711643Y-14028214D01*
X5740214Y-14042500D01*
X5754500Y-14056786D01*
X5768786Y-14085357D01*
X5768786Y-14113929D01*
X5754500Y-14156786D01*
X5583071Y-14328214D01*
X5768786Y-14328214D01*
X5954500Y-14028214D02*
X5983071Y-14028214D01*
X6011643Y-14042500D01*
X6025928Y-14056786D01*
X6040214Y-14085357D01*
X6054500Y-14142500D01*
X6054500Y-14213929D01*
X6040214Y-14271071D01*
X6025928Y-14299643D01*
X6011643Y-14313929D01*
X5983071Y-14328214D01*
X5954500Y-14328214D01*
X5925928Y-14313929D01*
X5911643Y-14299643D01*
X5897357Y-14271071D01*
X5883071Y-14213929D01*
X5883071Y-14142500D01*
X5897357Y-14085357D01*
X5911643Y-14056786D01*
X5925928Y-14042500D01*
X5954500Y-14028214D01*
X6168786Y-14028214D02*
X6168786Y-14085357D01*
X6283071Y-14028214D02*
X6283071Y-14085357D01*
X6725928Y-14442500D02*
X6711643Y-14428214D01*
X6683071Y-14385357D01*
X6668786Y-14356786D01*
X6654500Y-14313929D01*
X6640214Y-14242500D01*
X6640214Y-14185357D01*
X6654500Y-14113929D01*
X6668786Y-14071071D01*
X6683071Y-14042500D01*
X6711643Y-13999643D01*
X6725928Y-13985357D01*
X6825928Y-14056786D02*
X6840214Y-14042500D01*
X6868786Y-14028214D01*
X6940214Y-14028214D01*
X6968786Y-14042500D01*
X6983071Y-14056786D01*
X6997357Y-14085357D01*
X6997357Y-14113929D01*
X6983071Y-14156786D01*
X6811643Y-14328214D01*
X6997357Y-14328214D01*
X7097357Y-14028214D02*
X7297357Y-14028214D01*
X7168786Y-14328214D01*
X7568786Y-14328214D02*
X7397357Y-14328214D01*
X7483071Y-14328214D02*
X7483071Y-14028214D01*
X7454500Y-14071071D01*
X7425928Y-14099643D01*
X7397357Y-14113929D01*
X7925928Y-14328214D02*
X7925928Y-14028214D01*
X8054500Y-14328214D02*
X8054500Y-14171071D01*
X8040214Y-14142500D01*
X8011643Y-14128214D01*
X7968786Y-14128214D01*
X7940214Y-14142500D01*
X7925928Y-14156786D01*
X8240214Y-14328214D02*
X8211643Y-14313929D01*
X8197357Y-14299643D01*
X8183071Y-14271071D01*
X8183071Y-14185357D01*
X8197357Y-14156786D01*
X8211643Y-14142500D01*
X8240214Y-14128214D01*
X8283071Y-14128214D01*
X8311643Y-14142500D01*
X8325928Y-14156786D01*
X8340214Y-14185357D01*
X8340214Y-14271071D01*
X8325928Y-14299643D01*
X8311643Y-14313929D01*
X8283071Y-14328214D01*
X8240214Y-14328214D01*
X8511643Y-14328214D02*
X8483071Y-14313929D01*
X8468786Y-14285357D01*
X8468786Y-14028214D01*
X8740214Y-14313929D02*
X8711643Y-14328214D01*
X8654500Y-14328214D01*
X8625928Y-14313929D01*
X8611643Y-14285357D01*
X8611643Y-14171071D01*
X8625928Y-14142500D01*
X8654500Y-14128214D01*
X8711643Y-14128214D01*
X8740214Y-14142500D01*
X8754500Y-14171071D01*
X8754500Y-14199643D01*
X8611643Y-14228214D01*
X8868786Y-14313929D02*
X8897357Y-14328214D01*
X8954500Y-14328214D01*
X8983071Y-14313929D01*
X8997357Y-14285357D01*
X8997357Y-14271071D01*
X8983071Y-14242500D01*
X8954500Y-14228214D01*
X8911643Y-14228214D01*
X8883071Y-14213929D01*
X8868786Y-14185357D01*
X8868786Y-14171071D01*
X8883071Y-14142500D01*
X8911643Y-14128214D01*
X8954500Y-14128214D01*
X8983071Y-14142500D01*
X9097357Y-14442500D02*
X9111643Y-14428214D01*
X9140214Y-14385357D01*
X9154500Y-14356786D01*
X9168786Y-14313929D01*
X9183071Y-14242500D01*
X9183071Y-14185357D01*
X9168786Y-14113929D01*
X9154500Y-14071071D01*
X9140214Y-14042500D01*
X9111643Y-13999643D01*
X9097357Y-13985357D01*
X2027820Y-14616698D02*
X2027820Y-14560302D01*
X1971424Y-14560302D01*
X1971424Y-14616698D01*
X2027820Y-14616698D01*
X2383071Y-14424214D02*
X2411643Y-14424214D01*
X2440214Y-14438500D01*
X2454500Y-14452786D01*
X2468786Y-14481357D01*
X2483071Y-14538500D01*
X2483071Y-14609929D01*
X2468786Y-14667071D01*
X2454500Y-14695643D01*
X2440214Y-14709929D01*
X2411643Y-14724214D01*
X2383071Y-14724214D01*
X2354500Y-14709929D01*
X2340214Y-14695643D01*
X2325928Y-14667071D01*
X2311643Y-14609929D01*
X2311643Y-14538500D01*
X2325928Y-14481357D01*
X2340214Y-14452786D01*
X2354500Y-14438500D01*
X2383071Y-14424214D01*
X2611643Y-14695643D02*
X2625928Y-14709929D01*
X2611643Y-14724214D01*
X2597357Y-14709929D01*
X2611643Y-14695643D01*
X2611643Y-14724214D01*
X2797357Y-14552786D02*
X2768786Y-14538500D01*
X2754500Y-14524214D01*
X2740214Y-14495643D01*
X2740214Y-14481357D01*
X2754500Y-14452786D01*
X2768786Y-14438500D01*
X2797357Y-14424214D01*
X2854500Y-14424214D01*
X2883071Y-14438500D01*
X2897357Y-14452786D01*
X2911643Y-14481357D01*
X2911643Y-14495643D01*
X2897357Y-14524214D01*
X2883071Y-14538500D01*
X2854500Y-14552786D01*
X2797357Y-14552786D01*
X2768786Y-14567071D01*
X2754500Y-14581357D01*
X2740214Y-14609929D01*
X2740214Y-14667071D01*
X2754500Y-14695643D01*
X2768786Y-14709929D01*
X2797357Y-14724214D01*
X2854500Y-14724214D01*
X2883071Y-14709929D01*
X2897357Y-14695643D01*
X2911643Y-14667071D01*
X2911643Y-14609929D01*
X2897357Y-14581357D01*
X2883071Y-14567071D01*
X2854500Y-14552786D01*
X3097357Y-14424214D02*
X3125928Y-14424214D01*
X3154500Y-14438500D01*
X3168786Y-14452786D01*
X3183071Y-14481357D01*
X3197357Y-14538500D01*
X3197357Y-14609929D01*
X3183071Y-14667071D01*
X3168786Y-14695643D01*
X3154500Y-14709929D01*
X3125928Y-14724214D01*
X3097357Y-14724214D01*
X3068786Y-14709929D01*
X3054500Y-14695643D01*
X3040214Y-14667071D01*
X3025928Y-14609929D01*
X3025928Y-14538500D01*
X3040214Y-14481357D01*
X3054500Y-14452786D01*
X3068786Y-14438500D01*
X3097357Y-14424214D01*
X3325928Y-14724214D02*
X3325928Y-14524214D01*
X3325928Y-14552786D02*
X3340214Y-14538500D01*
X3368786Y-14524214D01*
X3411643Y-14524214D01*
X3440214Y-14538500D01*
X3454500Y-14567071D01*
X3454500Y-14724214D01*
X3454500Y-14567071D02*
X3468786Y-14538500D01*
X3497357Y-14524214D01*
X3540214Y-14524214D01*
X3568786Y-14538500D01*
X3583071Y-14567071D01*
X3583071Y-14724214D01*
X3725928Y-14724214D02*
X3725928Y-14524214D01*
X3725928Y-14552786D02*
X3740214Y-14538500D01*
X3768786Y-14524214D01*
X3811643Y-14524214D01*
X3840214Y-14538500D01*
X3854500Y-14567071D01*
X3854500Y-14724214D01*
X3854500Y-14567071D02*
X3868786Y-14538500D01*
X3897357Y-14524214D01*
X3940214Y-14524214D01*
X3968786Y-14538500D01*
X3983071Y-14567071D01*
X3983071Y-14724214D01*
X4568786Y-14409929D02*
X4311643Y-14795643D01*
X4954500Y-14424214D02*
X4983071Y-14424214D01*
X5011643Y-14438500D01*
X5025928Y-14452786D01*
X5040214Y-14481357D01*
X5054500Y-14538500D01*
X5054500Y-14609929D01*
X5040214Y-14667071D01*
X5025928Y-14695643D01*
X5011643Y-14709929D01*
X4983071Y-14724214D01*
X4954500Y-14724214D01*
X4925928Y-14709929D01*
X4911643Y-14695643D01*
X4897357Y-14667071D01*
X4883071Y-14609929D01*
X4883071Y-14538500D01*
X4897357Y-14481357D01*
X4911643Y-14452786D01*
X4925928Y-14438500D01*
X4954500Y-14424214D01*
X5183071Y-14695643D02*
X5197357Y-14709929D01*
X5183071Y-14724214D01*
X5168786Y-14709929D01*
X5183071Y-14695643D01*
X5183071Y-14724214D01*
X5383071Y-14424214D02*
X5411643Y-14424214D01*
X5440214Y-14438500D01*
X5454500Y-14452786D01*
X5468786Y-14481357D01*
X5483071Y-14538500D01*
X5483071Y-14609929D01*
X5468786Y-14667071D01*
X5454500Y-14695643D01*
X5440214Y-14709929D01*
X5411643Y-14724214D01*
X5383071Y-14724214D01*
X5354500Y-14709929D01*
X5340214Y-14695643D01*
X5325928Y-14667071D01*
X5311643Y-14609929D01*
X5311643Y-14538500D01*
X5325928Y-14481357D01*
X5340214Y-14452786D01*
X5354500Y-14438500D01*
X5383071Y-14424214D01*
X5583071Y-14424214D02*
X5768786Y-14424214D01*
X5668786Y-14538500D01*
X5711643Y-14538500D01*
X5740214Y-14552786D01*
X5754500Y-14567071D01*
X5768786Y-14595643D01*
X5768786Y-14667071D01*
X5754500Y-14695643D01*
X5740214Y-14709929D01*
X5711643Y-14724214D01*
X5625928Y-14724214D01*
X5597357Y-14709929D01*
X5583071Y-14695643D01*
X6054500Y-14724214D02*
X5883071Y-14724214D01*
X5968786Y-14724214D02*
X5968786Y-14424214D01*
X5940214Y-14467071D01*
X5911643Y-14495643D01*
X5883071Y-14509929D01*
X6168786Y-14424214D02*
X6168786Y-14481357D01*
X6283071Y-14424214D02*
X6283071Y-14481357D01*
X6725928Y-14838500D02*
X6711643Y-14824214D01*
X6683071Y-14781357D01*
X6668786Y-14752786D01*
X6654500Y-14709929D01*
X6640214Y-14638500D01*
X6640214Y-14581357D01*
X6654500Y-14509929D01*
X6668786Y-14467071D01*
X6683071Y-14438500D01*
X6711643Y-14395643D01*
X6725928Y-14381357D01*
X6811643Y-14424214D02*
X6997357Y-14424214D01*
X6897357Y-14538500D01*
X6940214Y-14538500D01*
X6968786Y-14552786D01*
X6983071Y-14567071D01*
X6997357Y-14595643D01*
X6997357Y-14667071D01*
X6983071Y-14695643D01*
X6968786Y-14709929D01*
X6940214Y-14724214D01*
X6854500Y-14724214D01*
X6825928Y-14709929D01*
X6811643Y-14695643D01*
X7111643Y-14452786D02*
X7125928Y-14438500D01*
X7154500Y-14424214D01*
X7225928Y-14424214D01*
X7254500Y-14438500D01*
X7268786Y-14452786D01*
X7283071Y-14481357D01*
X7283071Y-14509929D01*
X7268786Y-14552786D01*
X7097357Y-14724214D01*
X7283071Y-14724214D01*
X7640214Y-14724214D02*
X7640214Y-14424214D01*
X7768786Y-14724214D02*
X7768786Y-14567071D01*
X7754500Y-14538500D01*
X7725928Y-14524214D01*
X7683071Y-14524214D01*
X7654500Y-14538500D01*
X7640214Y-14552786D01*
X7954500Y-14724214D02*
X7925928Y-14709929D01*
X7911643Y-14695643D01*
X7897357Y-14667071D01*
X7897357Y-14581357D01*
X7911643Y-14552786D01*
X7925928Y-14538500D01*
X7954500Y-14524214D01*
X7997357Y-14524214D01*
X8025928Y-14538500D01*
X8040214Y-14552786D01*
X8054500Y-14581357D01*
X8054500Y-14667071D01*
X8040214Y-14695643D01*
X8025928Y-14709929D01*
X7997357Y-14724214D01*
X7954500Y-14724214D01*
X8225928Y-14724214D02*
X8197357Y-14709929D01*
X8183071Y-14681357D01*
X8183071Y-14424214D01*
X8454500Y-14709929D02*
X8425928Y-14724214D01*
X8368786Y-14724214D01*
X8340214Y-14709929D01*
X8325928Y-14681357D01*
X8325928Y-14567071D01*
X8340214Y-14538500D01*
X8368786Y-14524214D01*
X8425928Y-14524214D01*
X8454500Y-14538500D01*
X8468786Y-14567071D01*
X8468786Y-14595643D01*
X8325928Y-14624214D01*
X8583071Y-14709929D02*
X8611643Y-14724214D01*
X8668786Y-14724214D01*
X8697357Y-14709929D01*
X8711643Y-14681357D01*
X8711643Y-14667071D01*
X8697357Y-14638500D01*
X8668786Y-14624214D01*
X8625928Y-14624214D01*
X8597357Y-14609929D01*
X8583071Y-14581357D01*
X8583071Y-14567071D01*
X8597357Y-14538500D01*
X8625928Y-14524214D01*
X8668786Y-14524214D01*
X8697357Y-14538500D01*
X8811643Y-14838500D02*
X8825928Y-14824214D01*
X8854500Y-14781357D01*
X8868786Y-14752786D01*
X8883071Y-14709929D01*
X8897357Y-14638500D01*
X8897357Y-14581357D01*
X8883071Y-14509929D01*
X8868786Y-14467071D01*
X8854500Y-14438500D01*
X8825928Y-14395643D01*
X8811643Y-14381357D01*
X1989500Y-15034500D02*
X2039500Y-14984500D01*
X1989500Y-14934500D01*
X1939500Y-14984500D01*
X1989500Y-15034500D01*
X2483071Y-15120214D02*
X2311643Y-15120214D01*
X2397357Y-15120214D02*
X2397357Y-14820214D01*
X2368786Y-14863071D01*
X2340214Y-14891643D01*
X2311643Y-14905929D01*
X2611643Y-15091643D02*
X2625928Y-15105929D01*
X2611643Y-15120214D01*
X2597357Y-15105929D01*
X2611643Y-15091643D01*
X2611643Y-15120214D01*
X2811643Y-14820214D02*
X2840214Y-14820214D01*
X2868786Y-14834500D01*
X2883071Y-14848786D01*
X2897357Y-14877357D01*
X2911643Y-14934500D01*
X2911643Y-15005929D01*
X2897357Y-15063071D01*
X2883071Y-15091643D01*
X2868786Y-15105929D01*
X2840214Y-15120214D01*
X2811643Y-15120214D01*
X2783071Y-15105929D01*
X2768786Y-15091643D01*
X2754500Y-15063071D01*
X2740214Y-15005929D01*
X2740214Y-14934500D01*
X2754500Y-14877357D01*
X2768786Y-14848786D01*
X2783071Y-14834500D01*
X2811643Y-14820214D01*
X3097357Y-14820214D02*
X3125928Y-14820214D01*
X3154500Y-14834500D01*
X3168786Y-14848786D01*
X3183071Y-14877357D01*
X3197357Y-14934500D01*
X3197357Y-15005929D01*
X3183071Y-15063071D01*
X3168786Y-15091643D01*
X3154500Y-15105929D01*
X3125928Y-15120214D01*
X3097357Y-15120214D01*
X3068786Y-15105929D01*
X3054500Y-15091643D01*
X3040214Y-15063071D01*
X3025928Y-15005929D01*
X3025928Y-14934500D01*
X3040214Y-14877357D01*
X3054500Y-14848786D01*
X3068786Y-14834500D01*
X3097357Y-14820214D01*
X3325928Y-15120214D02*
X3325928Y-14920214D01*
X3325928Y-14948786D02*
X3340214Y-14934500D01*
X3368786Y-14920214D01*
X3411643Y-14920214D01*
X3440214Y-14934500D01*
X3454500Y-14963071D01*
X3454500Y-15120214D01*
X3454500Y-14963071D02*
X3468786Y-14934500D01*
X3497357Y-14920214D01*
X3540214Y-14920214D01*
X3568786Y-14934500D01*
X3583071Y-14963071D01*
X3583071Y-15120214D01*
X3725928Y-15120214D02*
X3725928Y-14920214D01*
X3725928Y-14948786D02*
X3740214Y-14934500D01*
X3768786Y-14920214D01*
X3811643Y-14920214D01*
X3840214Y-14934500D01*
X3854500Y-14963071D01*
X3854500Y-15120214D01*
X3854500Y-14963071D02*
X3868786Y-14934500D01*
X3897357Y-14920214D01*
X3940214Y-14920214D01*
X3968786Y-14934500D01*
X3983071Y-14963071D01*
X3983071Y-15120214D01*
X4568786Y-14805929D02*
X4311643Y-15191643D01*
X4954500Y-14820214D02*
X4983071Y-14820214D01*
X5011643Y-14834500D01*
X5025928Y-14848786D01*
X5040214Y-14877357D01*
X5054500Y-14934500D01*
X5054500Y-15005929D01*
X5040214Y-15063071D01*
X5025928Y-15091643D01*
X5011643Y-15105929D01*
X4983071Y-15120214D01*
X4954500Y-15120214D01*
X4925928Y-15105929D01*
X4911643Y-15091643D01*
X4897357Y-15063071D01*
X4883071Y-15005929D01*
X4883071Y-14934500D01*
X4897357Y-14877357D01*
X4911643Y-14848786D01*
X4925928Y-14834500D01*
X4954500Y-14820214D01*
X5183071Y-15091643D02*
X5197357Y-15105929D01*
X5183071Y-15120214D01*
X5168786Y-15105929D01*
X5183071Y-15091643D01*
X5183071Y-15120214D01*
X5383071Y-14820214D02*
X5411643Y-14820214D01*
X5440214Y-14834500D01*
X5454500Y-14848786D01*
X5468786Y-14877357D01*
X5483071Y-14934500D01*
X5483071Y-15005929D01*
X5468786Y-15063071D01*
X5454500Y-15091643D01*
X5440214Y-15105929D01*
X5411643Y-15120214D01*
X5383071Y-15120214D01*
X5354500Y-15105929D01*
X5340214Y-15091643D01*
X5325928Y-15063071D01*
X5311643Y-15005929D01*
X5311643Y-14934500D01*
X5325928Y-14877357D01*
X5340214Y-14848786D01*
X5354500Y-14834500D01*
X5383071Y-14820214D01*
X5583071Y-14820214D02*
X5768786Y-14820214D01*
X5668786Y-14934500D01*
X5711643Y-14934500D01*
X5740214Y-14948786D01*
X5754500Y-14963071D01*
X5768786Y-14991643D01*
X5768786Y-15063071D01*
X5754500Y-15091643D01*
X5740214Y-15105929D01*
X5711643Y-15120214D01*
X5625928Y-15120214D01*
X5597357Y-15105929D01*
X5583071Y-15091643D01*
X5911643Y-15120214D02*
X5968786Y-15120214D01*
X5997357Y-15105929D01*
X6011643Y-15091643D01*
X6040214Y-15048786D01*
X6054500Y-14991643D01*
X6054500Y-14877357D01*
X6040214Y-14848786D01*
X6025928Y-14834500D01*
X5997357Y-14820214D01*
X5940214Y-14820214D01*
X5911643Y-14834500D01*
X5897357Y-14848786D01*
X5883071Y-14877357D01*
X5883071Y-14948786D01*
X5897357Y-14977357D01*
X5911643Y-14991643D01*
X5940214Y-15005929D01*
X5997357Y-15005929D01*
X6025928Y-14991643D01*
X6040214Y-14977357D01*
X6054500Y-14948786D01*
X6168786Y-14820214D02*
X6168786Y-14877357D01*
X6283071Y-14820214D02*
X6283071Y-14877357D01*
X6725928Y-15234500D02*
X6711643Y-15220214D01*
X6683071Y-15177357D01*
X6668786Y-15148786D01*
X6654500Y-15105929D01*
X6640214Y-15034500D01*
X6640214Y-14977357D01*
X6654500Y-14905929D01*
X6668786Y-14863071D01*
X6683071Y-14834500D01*
X6711643Y-14791643D01*
X6725928Y-14777357D01*
X6825928Y-14848786D02*
X6840214Y-14834500D01*
X6868786Y-14820214D01*
X6940214Y-14820214D01*
X6968786Y-14834500D01*
X6983071Y-14848786D01*
X6997357Y-14877357D01*
X6997357Y-14905929D01*
X6983071Y-14948786D01*
X6811643Y-15120214D01*
X6997357Y-15120214D01*
X7268786Y-14820214D02*
X7125928Y-14820214D01*
X7111643Y-14963071D01*
X7125928Y-14948786D01*
X7154500Y-14934500D01*
X7225928Y-14934500D01*
X7254500Y-14948786D01*
X7268786Y-14963071D01*
X7283071Y-14991643D01*
X7283071Y-15063071D01*
X7268786Y-15091643D01*
X7254500Y-15105929D01*
X7225928Y-15120214D01*
X7154500Y-15120214D01*
X7125928Y-15105929D01*
X7111643Y-15091643D01*
X7640214Y-15120214D02*
X7640214Y-14820214D01*
X7768786Y-15120214D02*
X7768786Y-14963071D01*
X7754500Y-14934500D01*
X7725928Y-14920214D01*
X7683071Y-14920214D01*
X7654500Y-14934500D01*
X7640214Y-14948786D01*
X7954500Y-15120214D02*
X7925928Y-15105929D01*
X7911643Y-15091643D01*
X7897357Y-15063071D01*
X7897357Y-14977357D01*
X7911643Y-14948786D01*
X7925928Y-14934500D01*
X7954500Y-14920214D01*
X7997357Y-14920214D01*
X8025928Y-14934500D01*
X8040214Y-14948786D01*
X8054500Y-14977357D01*
X8054500Y-15063071D01*
X8040214Y-15091643D01*
X8025928Y-15105929D01*
X7997357Y-15120214D01*
X7954500Y-15120214D01*
X8225928Y-15120214D02*
X8197357Y-15105929D01*
X8183071Y-15077357D01*
X8183071Y-14820214D01*
X8454500Y-15105929D02*
X8425928Y-15120214D01*
X8368786Y-15120214D01*
X8340214Y-15105929D01*
X8325928Y-15077357D01*
X8325928Y-14963071D01*
X8340214Y-14934500D01*
X8368786Y-14920214D01*
X8425928Y-14920214D01*
X8454500Y-14934500D01*
X8468786Y-14963071D01*
X8468786Y-14991643D01*
X8325928Y-15020214D01*
X8583071Y-15105929D02*
X8611643Y-15120214D01*
X8668786Y-15120214D01*
X8697357Y-15105929D01*
X8711643Y-15077357D01*
X8711643Y-15063071D01*
X8697357Y-15034500D01*
X8668786Y-15020214D01*
X8625928Y-15020214D01*
X8597357Y-15005929D01*
X8583071Y-14977357D01*
X8583071Y-14963071D01*
X8597357Y-14934500D01*
X8625928Y-14920214D01*
X8668786Y-14920214D01*
X8697357Y-14934500D01*
X9068786Y-15005929D02*
X9297357Y-15005929D01*
X9183071Y-15120214D02*
X9183071Y-14891643D01*
X9640214Y-14820214D02*
X9825928Y-14820214D01*
X9725928Y-14934500D01*
X9768786Y-14934500D01*
X9797357Y-14948786D01*
X9811643Y-14963071D01*
X9825928Y-14991643D01*
X9825928Y-15063071D01*
X9811643Y-15091643D01*
X9797357Y-15105929D01*
X9768786Y-15120214D01*
X9683071Y-15120214D01*
X9654500Y-15105929D01*
X9640214Y-15091643D01*
X10168786Y-15105929D02*
X10197357Y-15120214D01*
X10254500Y-15120214D01*
X10283071Y-15105929D01*
X10297357Y-15077357D01*
X10297357Y-15063071D01*
X10283071Y-15034500D01*
X10254500Y-15020214D01*
X10211643Y-15020214D01*
X10183071Y-15005929D01*
X10168786Y-14977357D01*
X10168786Y-14963071D01*
X10183071Y-14934500D01*
X10211643Y-14920214D01*
X10254500Y-14920214D01*
X10283071Y-14934500D01*
X10468786Y-15120214D02*
X10440214Y-15105929D01*
X10425928Y-15077357D01*
X10425928Y-14820214D01*
X10625928Y-15120214D02*
X10597357Y-15105929D01*
X10583071Y-15091643D01*
X10568786Y-15063071D01*
X10568786Y-14977357D01*
X10583071Y-14948786D01*
X10597357Y-14934500D01*
X10625928Y-14920214D01*
X10668786Y-14920214D01*
X10697357Y-14934500D01*
X10711643Y-14948786D01*
X10725928Y-14977357D01*
X10725928Y-15063071D01*
X10711643Y-15091643D01*
X10697357Y-15105929D01*
X10668786Y-15120214D01*
X10625928Y-15120214D01*
X10811643Y-14920214D02*
X10925928Y-14920214D01*
X10854500Y-14820214D02*
X10854500Y-15077357D01*
X10868786Y-15105929D01*
X10897357Y-15120214D01*
X10925928Y-15120214D01*
X11011643Y-15105929D02*
X11040214Y-15120214D01*
X11097357Y-15120214D01*
X11125928Y-15105929D01*
X11140214Y-15077357D01*
X11140214Y-15063071D01*
X11125928Y-15034500D01*
X11097357Y-15020214D01*
X11054500Y-15020214D01*
X11025928Y-15005929D01*
X11011643Y-14977357D01*
X11011643Y-14963071D01*
X11025928Y-14934500D01*
X11054500Y-14920214D01*
X11097357Y-14920214D01*
X11125928Y-14934500D01*
X11240214Y-15234500D02*
X11254500Y-15220214D01*
X11283071Y-15177357D01*
X11297357Y-15148786D01*
X11311643Y-15105929D01*
X11325928Y-15034500D01*
X11325928Y-14977357D01*
X11311643Y-14905929D01*
X11297357Y-14863071D01*
X11283071Y-14834500D01*
X11254500Y-14791643D01*
X11240214Y-14777357D01*
X1809500Y-15265500D02*
X2039500Y-15495500D01*
X2039500Y-15265500D02*
X1809500Y-15495500D01*
X2039500Y-15380500D02*
G75*
G03X2039500Y-15380500I-115000J0D01*
G01*
X2311643Y-15244786D02*
X2325928Y-15230500D01*
X2354500Y-15216214D01*
X2425928Y-15216214D01*
X2454500Y-15230500D01*
X2468786Y-15244786D01*
X2483071Y-15273357D01*
X2483071Y-15301929D01*
X2468786Y-15344786D01*
X2297357Y-15516214D01*
X2483071Y-15516214D01*
X2611643Y-15487643D02*
X2625928Y-15501929D01*
X2611643Y-15516214D01*
X2597357Y-15501929D01*
X2611643Y-15487643D01*
X2611643Y-15516214D01*
X2725928Y-15216214D02*
X2911643Y-15216214D01*
X2811643Y-15330500D01*
X2854500Y-15330500D01*
X2883071Y-15344786D01*
X2897357Y-15359071D01*
X2911643Y-15387643D01*
X2911643Y-15459071D01*
X2897357Y-15487643D01*
X2883071Y-15501929D01*
X2854500Y-15516214D01*
X2768786Y-15516214D01*
X2740214Y-15501929D01*
X2725928Y-15487643D01*
X3097357Y-15216214D02*
X3125928Y-15216214D01*
X3154500Y-15230500D01*
X3168786Y-15244786D01*
X3183071Y-15273357D01*
X3197357Y-15330500D01*
X3197357Y-15401929D01*
X3183071Y-15459071D01*
X3168786Y-15487643D01*
X3154500Y-15501929D01*
X3125928Y-15516214D01*
X3097357Y-15516214D01*
X3068786Y-15501929D01*
X3054500Y-15487643D01*
X3040214Y-15459071D01*
X3025928Y-15401929D01*
X3025928Y-15330500D01*
X3040214Y-15273357D01*
X3054500Y-15244786D01*
X3068786Y-15230500D01*
X3097357Y-15216214D01*
X3325928Y-15516214D02*
X3325928Y-15316214D01*
X3325928Y-15344786D02*
X3340214Y-15330500D01*
X3368786Y-15316214D01*
X3411643Y-15316214D01*
X3440214Y-15330500D01*
X3454500Y-15359071D01*
X3454500Y-15516214D01*
X3454500Y-15359071D02*
X3468786Y-15330500D01*
X3497357Y-15316214D01*
X3540214Y-15316214D01*
X3568786Y-15330500D01*
X3583071Y-15359071D01*
X3583071Y-15516214D01*
X3725928Y-15516214D02*
X3725928Y-15316214D01*
X3725928Y-15344786D02*
X3740214Y-15330500D01*
X3768786Y-15316214D01*
X3811643Y-15316214D01*
X3840214Y-15330500D01*
X3854500Y-15359071D01*
X3854500Y-15516214D01*
X3854500Y-15359071D02*
X3868786Y-15330500D01*
X3897357Y-15316214D01*
X3940214Y-15316214D01*
X3968786Y-15330500D01*
X3983071Y-15359071D01*
X3983071Y-15516214D01*
X4568786Y-15201929D02*
X4311643Y-15587643D01*
X4954500Y-15216214D02*
X4983071Y-15216214D01*
X5011643Y-15230500D01*
X5025928Y-15244786D01*
X5040214Y-15273357D01*
X5054500Y-15330500D01*
X5054500Y-15401929D01*
X5040214Y-15459071D01*
X5025928Y-15487643D01*
X5011643Y-15501929D01*
X4983071Y-15516214D01*
X4954500Y-15516214D01*
X4925928Y-15501929D01*
X4911643Y-15487643D01*
X4897357Y-15459071D01*
X4883071Y-15401929D01*
X4883071Y-15330500D01*
X4897357Y-15273357D01*
X4911643Y-15244786D01*
X4925928Y-15230500D01*
X4954500Y-15216214D01*
X5183071Y-15487643D02*
X5197357Y-15501929D01*
X5183071Y-15516214D01*
X5168786Y-15501929D01*
X5183071Y-15487643D01*
X5183071Y-15516214D01*
X5383071Y-15216214D02*
X5411643Y-15216214D01*
X5440214Y-15230500D01*
X5454500Y-15244786D01*
X5468786Y-15273357D01*
X5483071Y-15330500D01*
X5483071Y-15401929D01*
X5468786Y-15459071D01*
X5454500Y-15487643D01*
X5440214Y-15501929D01*
X5411643Y-15516214D01*
X5383071Y-15516214D01*
X5354500Y-15501929D01*
X5340214Y-15487643D01*
X5325928Y-15459071D01*
X5311643Y-15401929D01*
X5311643Y-15330500D01*
X5325928Y-15273357D01*
X5340214Y-15244786D01*
X5354500Y-15230500D01*
X5383071Y-15216214D01*
X5625928Y-15516214D02*
X5683071Y-15516214D01*
X5711643Y-15501929D01*
X5725928Y-15487643D01*
X5754500Y-15444786D01*
X5768786Y-15387643D01*
X5768786Y-15273357D01*
X5754500Y-15244786D01*
X5740214Y-15230500D01*
X5711643Y-15216214D01*
X5654500Y-15216214D01*
X5625928Y-15230500D01*
X5611643Y-15244786D01*
X5597357Y-15273357D01*
X5597357Y-15344786D01*
X5611643Y-15373357D01*
X5625928Y-15387643D01*
X5654500Y-15401929D01*
X5711643Y-15401929D01*
X5740214Y-15387643D01*
X5754500Y-15373357D01*
X5768786Y-15344786D01*
X6054500Y-15516214D02*
X5883071Y-15516214D01*
X5968786Y-15516214D02*
X5968786Y-15216214D01*
X5940214Y-15259071D01*
X5911643Y-15287643D01*
X5883071Y-15301929D01*
X6168786Y-15216214D02*
X6168786Y-15273357D01*
X6283071Y-15216214D02*
X6283071Y-15273357D01*
X6725928Y-15630500D02*
X6711643Y-15616214D01*
X6683071Y-15573357D01*
X6668786Y-15544786D01*
X6654500Y-15501929D01*
X6640214Y-15430500D01*
X6640214Y-15373357D01*
X6654500Y-15301929D01*
X6668786Y-15259071D01*
X6683071Y-15230500D01*
X6711643Y-15187643D01*
X6725928Y-15173357D01*
X6825928Y-15244786D02*
X6840214Y-15230500D01*
X6868786Y-15216214D01*
X6940214Y-15216214D01*
X6968786Y-15230500D01*
X6983071Y-15244786D01*
X6997357Y-15273357D01*
X6997357Y-15301929D01*
X6983071Y-15344786D01*
X6811643Y-15516214D01*
X6997357Y-15516214D01*
X7354500Y-15516214D02*
X7354500Y-15216214D01*
X7483071Y-15516214D02*
X7483071Y-15359071D01*
X7468786Y-15330500D01*
X7440214Y-15316214D01*
X7397357Y-15316214D01*
X7368786Y-15330500D01*
X7354500Y-15344786D01*
X7668786Y-15516214D02*
X7640214Y-15501929D01*
X7625928Y-15487643D01*
X7611643Y-15459071D01*
X7611643Y-15373357D01*
X7625928Y-15344786D01*
X7640214Y-15330500D01*
X7668786Y-15316214D01*
X7711643Y-15316214D01*
X7740214Y-15330500D01*
X7754500Y-15344786D01*
X7768786Y-15373357D01*
X7768786Y-15459071D01*
X7754500Y-15487643D01*
X7740214Y-15501929D01*
X7711643Y-15516214D01*
X7668786Y-15516214D01*
X7940214Y-15516214D02*
X7911643Y-15501929D01*
X7897357Y-15473357D01*
X7897357Y-15216214D01*
X8168786Y-15501929D02*
X8140214Y-15516214D01*
X8083071Y-15516214D01*
X8054500Y-15501929D01*
X8040214Y-15473357D01*
X8040214Y-15359071D01*
X8054500Y-15330500D01*
X8083071Y-15316214D01*
X8140214Y-15316214D01*
X8168786Y-15330500D01*
X8183071Y-15359071D01*
X8183071Y-15387643D01*
X8040214Y-15416214D01*
X8297357Y-15501929D02*
X8325928Y-15516214D01*
X8383071Y-15516214D01*
X8411643Y-15501929D01*
X8425928Y-15473357D01*
X8425928Y-15459071D01*
X8411643Y-15430500D01*
X8383071Y-15416214D01*
X8340214Y-15416214D01*
X8311643Y-15401929D01*
X8297357Y-15373357D01*
X8297357Y-15359071D01*
X8311643Y-15330500D01*
X8340214Y-15316214D01*
X8383071Y-15316214D01*
X8411643Y-15330500D01*
X8525928Y-15630500D02*
X8540214Y-15616214D01*
X8568786Y-15573357D01*
X8583071Y-15544786D01*
X8597357Y-15501929D01*
X8611643Y-15430500D01*
X8611643Y-15373357D01*
X8597357Y-15301929D01*
X8583071Y-15259071D01*
X8568786Y-15230500D01*
X8540214Y-15187643D01*
X8525928Y-15173357D01*
M02*
