%FSLAX45Y45*%
G04 Gerber Fmt 4.5, Leading zero omitted, Abs format (unit mm)*
G04 Created by KiCad (PCBNEW 5.1.0-unknown-03bce55~94~ubuntu16.04.1) date 2019-06-06 22:51:31*
%MOMM*%
%LPD*%
G04 APERTURE LIST*
%ADD10C,0.050000*%
%ADD11C,0.200000*%
%ADD12C,0.300000*%
G04 APERTURE END LIST*
D10*
X11966000Y-12438000D02*
X2042000Y-12437000D01*
X11994000Y-2528000D02*
X11966000Y-12438000D01*
X2043000Y-2527000D02*
X11994000Y-2528000D01*
X2042000Y-12437000D02*
X2043000Y-2527000D01*
D11*
X10660000Y-8095000D02*
X10830000Y-8265000D01*
X10830000Y-8095000D02*
X10660000Y-8265000D01*
X11360000Y-8095000D02*
X11530000Y-8265000D01*
X11530000Y-8095000D02*
X11360000Y-8265000D01*
D12*
X2325928Y-12906214D02*
X2325928Y-12606214D01*
X2397357Y-12606214D01*
X2440214Y-12620500D01*
X2468786Y-12649071D01*
X2483071Y-12677643D01*
X2497357Y-12734786D01*
X2497357Y-12777643D01*
X2483071Y-12834786D01*
X2468786Y-12863357D01*
X2440214Y-12891929D01*
X2397357Y-12906214D01*
X2325928Y-12906214D01*
X2625928Y-12906214D02*
X2625928Y-12706214D01*
X2625928Y-12763357D02*
X2640214Y-12734786D01*
X2654500Y-12720500D01*
X2683071Y-12706214D01*
X2711643Y-12706214D01*
X2811643Y-12906214D02*
X2811643Y-12706214D01*
X2811643Y-12606214D02*
X2797357Y-12620500D01*
X2811643Y-12634786D01*
X2825928Y-12620500D01*
X2811643Y-12606214D01*
X2811643Y-12634786D01*
X2997357Y-12906214D02*
X2968786Y-12891929D01*
X2954500Y-12863357D01*
X2954500Y-12606214D01*
X3154500Y-12906214D02*
X3125928Y-12891929D01*
X3111643Y-12863357D01*
X3111643Y-12606214D01*
X3497357Y-12906214D02*
X3497357Y-12606214D01*
X3597357Y-12820500D01*
X3697357Y-12606214D01*
X3697357Y-12906214D01*
X3968786Y-12906214D02*
X3968786Y-12749071D01*
X3954500Y-12720500D01*
X3925928Y-12706214D01*
X3868786Y-12706214D01*
X3840214Y-12720500D01*
X3968786Y-12891929D02*
X3940214Y-12906214D01*
X3868786Y-12906214D01*
X3840214Y-12891929D01*
X3825928Y-12863357D01*
X3825928Y-12834786D01*
X3840214Y-12806214D01*
X3868786Y-12791929D01*
X3940214Y-12791929D01*
X3968786Y-12777643D01*
X4111643Y-12706214D02*
X4111643Y-13006214D01*
X4111643Y-12720500D02*
X4140214Y-12706214D01*
X4197357Y-12706214D01*
X4225928Y-12720500D01*
X4240214Y-12734786D01*
X4254500Y-12763357D01*
X4254500Y-12849071D01*
X4240214Y-12877643D01*
X4225928Y-12891929D01*
X4197357Y-12906214D01*
X4140214Y-12906214D01*
X4111643Y-12891929D01*
X4383071Y-12877643D02*
X4397357Y-12891929D01*
X4383071Y-12906214D01*
X4368786Y-12891929D01*
X4383071Y-12877643D01*
X4383071Y-12906214D01*
X4383071Y-12720500D02*
X4397357Y-12734786D01*
X4383071Y-12749071D01*
X4368786Y-12734786D01*
X4383071Y-12720500D01*
X4383071Y-12749071D01*
X1869500Y-13315500D02*
X2039500Y-13485500D01*
X2039500Y-13315500D02*
X1869500Y-13485500D01*
X2483071Y-13536214D02*
X2311643Y-13536214D01*
X2397357Y-13536214D02*
X2397357Y-13236214D01*
X2368786Y-13279071D01*
X2340214Y-13307643D01*
X2311643Y-13321929D01*
X2611643Y-13507643D02*
X2625928Y-13521929D01*
X2611643Y-13536214D01*
X2597357Y-13521929D01*
X2611643Y-13507643D01*
X2611643Y-13536214D01*
X2725928Y-13236214D02*
X2925928Y-13236214D01*
X2797357Y-13536214D01*
X3097357Y-13236214D02*
X3125928Y-13236214D01*
X3154500Y-13250500D01*
X3168786Y-13264786D01*
X3183071Y-13293357D01*
X3197357Y-13350500D01*
X3197357Y-13421929D01*
X3183071Y-13479071D01*
X3168786Y-13507643D01*
X3154500Y-13521929D01*
X3125928Y-13536214D01*
X3097357Y-13536214D01*
X3068786Y-13521929D01*
X3054500Y-13507643D01*
X3040214Y-13479071D01*
X3025928Y-13421929D01*
X3025928Y-13350500D01*
X3040214Y-13293357D01*
X3054500Y-13264786D01*
X3068786Y-13250500D01*
X3097357Y-13236214D01*
X3325928Y-13536214D02*
X3325928Y-13336214D01*
X3325928Y-13364786D02*
X3340214Y-13350500D01*
X3368786Y-13336214D01*
X3411643Y-13336214D01*
X3440214Y-13350500D01*
X3454500Y-13379071D01*
X3454500Y-13536214D01*
X3454500Y-13379071D02*
X3468786Y-13350500D01*
X3497357Y-13336214D01*
X3540214Y-13336214D01*
X3568786Y-13350500D01*
X3583071Y-13379071D01*
X3583071Y-13536214D01*
X3725928Y-13536214D02*
X3725928Y-13336214D01*
X3725928Y-13364786D02*
X3740214Y-13350500D01*
X3768786Y-13336214D01*
X3811643Y-13336214D01*
X3840214Y-13350500D01*
X3854500Y-13379071D01*
X3854500Y-13536214D01*
X3854500Y-13379071D02*
X3868786Y-13350500D01*
X3897357Y-13336214D01*
X3940214Y-13336214D01*
X3968786Y-13350500D01*
X3983071Y-13379071D01*
X3983071Y-13536214D01*
X4568786Y-13221929D02*
X4311643Y-13607643D01*
X4954500Y-13236214D02*
X4983071Y-13236214D01*
X5011643Y-13250500D01*
X5025928Y-13264786D01*
X5040214Y-13293357D01*
X5054500Y-13350500D01*
X5054500Y-13421929D01*
X5040214Y-13479071D01*
X5025928Y-13507643D01*
X5011643Y-13521929D01*
X4983071Y-13536214D01*
X4954500Y-13536214D01*
X4925928Y-13521929D01*
X4911643Y-13507643D01*
X4897357Y-13479071D01*
X4883071Y-13421929D01*
X4883071Y-13350500D01*
X4897357Y-13293357D01*
X4911643Y-13264786D01*
X4925928Y-13250500D01*
X4954500Y-13236214D01*
X5183071Y-13507643D02*
X5197357Y-13521929D01*
X5183071Y-13536214D01*
X5168786Y-13521929D01*
X5183071Y-13507643D01*
X5183071Y-13536214D01*
X5383071Y-13236214D02*
X5411643Y-13236214D01*
X5440214Y-13250500D01*
X5454500Y-13264786D01*
X5468786Y-13293357D01*
X5483071Y-13350500D01*
X5483071Y-13421929D01*
X5468786Y-13479071D01*
X5454500Y-13507643D01*
X5440214Y-13521929D01*
X5411643Y-13536214D01*
X5383071Y-13536214D01*
X5354500Y-13521929D01*
X5340214Y-13507643D01*
X5325928Y-13479071D01*
X5311643Y-13421929D01*
X5311643Y-13350500D01*
X5325928Y-13293357D01*
X5340214Y-13264786D01*
X5354500Y-13250500D01*
X5383071Y-13236214D01*
X5740214Y-13236214D02*
X5683071Y-13236214D01*
X5654500Y-13250500D01*
X5640214Y-13264786D01*
X5611643Y-13307643D01*
X5597357Y-13364786D01*
X5597357Y-13479071D01*
X5611643Y-13507643D01*
X5625928Y-13521929D01*
X5654500Y-13536214D01*
X5711643Y-13536214D01*
X5740214Y-13521929D01*
X5754500Y-13507643D01*
X5768786Y-13479071D01*
X5768786Y-13407643D01*
X5754500Y-13379071D01*
X5740214Y-13364786D01*
X5711643Y-13350500D01*
X5654500Y-13350500D01*
X5625928Y-13364786D01*
X5611643Y-13379071D01*
X5597357Y-13407643D01*
X5868786Y-13236214D02*
X6068786Y-13236214D01*
X5940214Y-13536214D01*
X6168786Y-13236214D02*
X6168786Y-13293357D01*
X6283071Y-13236214D02*
X6283071Y-13293357D01*
X6725928Y-13650500D02*
X6711643Y-13636214D01*
X6683071Y-13593357D01*
X6668786Y-13564786D01*
X6654500Y-13521929D01*
X6640214Y-13450500D01*
X6640214Y-13393357D01*
X6654500Y-13321929D01*
X6668786Y-13279071D01*
X6683071Y-13250500D01*
X6711643Y-13207643D01*
X6725928Y-13193357D01*
X6825928Y-13264786D02*
X6840214Y-13250500D01*
X6868786Y-13236214D01*
X6940214Y-13236214D01*
X6968786Y-13250500D01*
X6983071Y-13264786D01*
X6997357Y-13293357D01*
X6997357Y-13321929D01*
X6983071Y-13364786D01*
X6811643Y-13536214D01*
X6997357Y-13536214D01*
X7354500Y-13536214D02*
X7354500Y-13236214D01*
X7483071Y-13536214D02*
X7483071Y-13379071D01*
X7468786Y-13350500D01*
X7440214Y-13336214D01*
X7397357Y-13336214D01*
X7368786Y-13350500D01*
X7354500Y-13364786D01*
X7668786Y-13536214D02*
X7640214Y-13521929D01*
X7625928Y-13507643D01*
X7611643Y-13479071D01*
X7611643Y-13393357D01*
X7625928Y-13364786D01*
X7640214Y-13350500D01*
X7668786Y-13336214D01*
X7711643Y-13336214D01*
X7740214Y-13350500D01*
X7754500Y-13364786D01*
X7768786Y-13393357D01*
X7768786Y-13479071D01*
X7754500Y-13507643D01*
X7740214Y-13521929D01*
X7711643Y-13536214D01*
X7668786Y-13536214D01*
X7940214Y-13536214D02*
X7911643Y-13521929D01*
X7897357Y-13493357D01*
X7897357Y-13236214D01*
X8168786Y-13521929D02*
X8140214Y-13536214D01*
X8083071Y-13536214D01*
X8054500Y-13521929D01*
X8040214Y-13493357D01*
X8040214Y-13379071D01*
X8054500Y-13350500D01*
X8083071Y-13336214D01*
X8140214Y-13336214D01*
X8168786Y-13350500D01*
X8183071Y-13379071D01*
X8183071Y-13407643D01*
X8040214Y-13436214D01*
X8297357Y-13521929D02*
X8325928Y-13536214D01*
X8383071Y-13536214D01*
X8411643Y-13521929D01*
X8425928Y-13493357D01*
X8425928Y-13479071D01*
X8411643Y-13450500D01*
X8383071Y-13436214D01*
X8340214Y-13436214D01*
X8311643Y-13421929D01*
X8297357Y-13393357D01*
X8297357Y-13379071D01*
X8311643Y-13350500D01*
X8340214Y-13336214D01*
X8383071Y-13336214D01*
X8411643Y-13350500D01*
X8525928Y-13650500D02*
X8540214Y-13636214D01*
X8568786Y-13593357D01*
X8583071Y-13564786D01*
X8597357Y-13521929D01*
X8611643Y-13450500D01*
X8611643Y-13393357D01*
X8597357Y-13321929D01*
X8583071Y-13279071D01*
X8568786Y-13250500D01*
X8540214Y-13207643D01*
X8525928Y-13193357D01*
X9068786Y-13650500D02*
X9054500Y-13636214D01*
X9025928Y-13593357D01*
X9011643Y-13564786D01*
X8997357Y-13521929D01*
X8983071Y-13450500D01*
X8983071Y-13393357D01*
X8997357Y-13321929D01*
X9011643Y-13279071D01*
X9025928Y-13250500D01*
X9054500Y-13207643D01*
X9068786Y-13193357D01*
X9183071Y-13336214D02*
X9183071Y-13536214D01*
X9183071Y-13364786D02*
X9197357Y-13350500D01*
X9225928Y-13336214D01*
X9268786Y-13336214D01*
X9297357Y-13350500D01*
X9311643Y-13379071D01*
X9311643Y-13536214D01*
X9497357Y-13536214D02*
X9468786Y-13521929D01*
X9454500Y-13507643D01*
X9440214Y-13479071D01*
X9440214Y-13393357D01*
X9454500Y-13364786D01*
X9468786Y-13350500D01*
X9497357Y-13336214D01*
X9540214Y-13336214D01*
X9568786Y-13350500D01*
X9583071Y-13364786D01*
X9597357Y-13393357D01*
X9597357Y-13479071D01*
X9583071Y-13507643D01*
X9568786Y-13521929D01*
X9540214Y-13536214D01*
X9497357Y-13536214D01*
X9683071Y-13336214D02*
X9797357Y-13336214D01*
X9725928Y-13236214D02*
X9725928Y-13493357D01*
X9740214Y-13521929D01*
X9768786Y-13536214D01*
X9797357Y-13536214D01*
X10125928Y-13336214D02*
X10125928Y-13636214D01*
X10125928Y-13350500D02*
X10154500Y-13336214D01*
X10211643Y-13336214D01*
X10240214Y-13350500D01*
X10254500Y-13364786D01*
X10268786Y-13393357D01*
X10268786Y-13479071D01*
X10254500Y-13507643D01*
X10240214Y-13521929D01*
X10211643Y-13536214D01*
X10154500Y-13536214D01*
X10125928Y-13521929D01*
X10440214Y-13536214D02*
X10411643Y-13521929D01*
X10397357Y-13493357D01*
X10397357Y-13236214D01*
X10683071Y-13536214D02*
X10683071Y-13379071D01*
X10668786Y-13350500D01*
X10640214Y-13336214D01*
X10583071Y-13336214D01*
X10554500Y-13350500D01*
X10683071Y-13521929D02*
X10654500Y-13536214D01*
X10583071Y-13536214D01*
X10554500Y-13521929D01*
X10540214Y-13493357D01*
X10540214Y-13464786D01*
X10554500Y-13436214D01*
X10583071Y-13421929D01*
X10654500Y-13421929D01*
X10683071Y-13407643D01*
X10783071Y-13336214D02*
X10897357Y-13336214D01*
X10825928Y-13236214D02*
X10825928Y-13493357D01*
X10840214Y-13521929D01*
X10868786Y-13536214D01*
X10897357Y-13536214D01*
X11111643Y-13521929D02*
X11083071Y-13536214D01*
X11025928Y-13536214D01*
X10997357Y-13521929D01*
X10983071Y-13493357D01*
X10983071Y-13379071D01*
X10997357Y-13350500D01*
X11025928Y-13336214D01*
X11083071Y-13336214D01*
X11111643Y-13350500D01*
X11125928Y-13379071D01*
X11125928Y-13407643D01*
X10983071Y-13436214D01*
X11383071Y-13536214D02*
X11383071Y-13236214D01*
X11383071Y-13521929D02*
X11354500Y-13536214D01*
X11297357Y-13536214D01*
X11268786Y-13521929D01*
X11254500Y-13507643D01*
X11240214Y-13479071D01*
X11240214Y-13393357D01*
X11254500Y-13364786D01*
X11268786Y-13350500D01*
X11297357Y-13336214D01*
X11354500Y-13336214D01*
X11383071Y-13350500D01*
X11497357Y-13650500D02*
X11511643Y-13636214D01*
X11540214Y-13593357D01*
X11554500Y-13564786D01*
X11568786Y-13521929D01*
X11583071Y-13450500D01*
X11583071Y-13393357D01*
X11568786Y-13321929D01*
X11554500Y-13279071D01*
X11540214Y-13250500D01*
X11511643Y-13207643D01*
X11497357Y-13193357D01*
M02*
