M48
; DRILL file {KiCad 5.1.0-unknown-03bce55~94~ubuntu16.04.1} date jue 06 jun 2019 22:49:34 COT
; FORMAT={-:-/ absolute / inch / decimal}
; #@! TF.CreationDate,2019-06-06T22:49:34-05:00
; #@! TF.GenerationSoftware,Kicad,Pcbnew,5.1.0-unknown-03bce55~94~ubuntu16.04.1
; #@! TF.FileFunction,Plated,1,2,PTH
FMAT,2
INCH
T1C0.0118
T2C0.0157
T3C0.0197
T4C0.0314
T5C0.0394
T6C0.0906
%
G90
G05
T1
X0.9537Y-1.7441
X1.0011Y-1.7437
X1.0404Y-1.7411
X1.0807Y-1.7382
X1.2421Y-1.94
X1.2549Y-1.7293
X1.3809Y-4.5817
X1.4Y-1.68
X1.4606Y-4.6457
X1.6204Y-2.0968
X1.6208Y-2.3314
X1.6424Y-2.6569
X1.6621Y-2.0373
X1.6877Y-2.0972
X1.7413Y-1.9905
X1.8196Y-2.3271
X1.8302Y-2.3606
X1.8621Y-2.3637
X1.8878Y-1.689
X1.892Y-2.3771
X1.9Y-1.9
X1.9216Y-2.2257
X1.922Y-2.3972
X1.9321Y-1.6683
X1.9424Y-2.2058
X1.9488Y-3.0866
X1.9688Y-2.1846
X1.9749Y-3.1665
X1.9764Y-1.6467
X2.0385Y-2.9385
X2.0404Y-1.5325
X2.0511Y-2.7822
X2.0549Y-2.5106
X2.0787Y-2.0384
X2.0849Y-2.5965
X2.0935Y-3.2402
X2.1073Y-1.6358
X2.1093Y-3.0571
X2.1339Y-4.5591
X2.1656Y-2.9913
X2.19Y-1.2608
X2.2165Y-1.2992
X2.2313Y-1.3474
X2.2372Y-3.2116
X2.2549Y-2.6959
X2.2598Y-4.5285
X2.2805Y-3.2146
X2.3002Y-2.6939
X2.3061Y-2.6516
X2.3226Y-1.9439
X2.3366Y-1.8494
X2.3406Y-3.2175
X2.3445Y-1.3661
X2.3474Y-1.9035
X2.3563Y-1.6319
X2.3661Y-1.9793
X2.3749Y-4.5765
X2.3907Y-1.6713
X2.4Y-2.86
X2.4Y-3.04
X2.4083Y-2.788
X2.4114Y-1.9055
X2.4449Y-4.5365
X2.4596Y-3.0295
X2.4892Y-1.999
X2.5443Y-3.1545
X2.7049Y-4.5565
X2.7049Y-4.6765
X2.75Y-2.1476
X2.8012Y-2.1093
X2.8149Y-2.4565
X2.8402Y-2.1038
X2.8649Y-2.4965
X2.8849Y-2.4165
X2.9149Y-2.4965
X2.9449Y-2.3576
X3.1449Y-2.4965
X3.1526Y-1.5118
X3.1657Y-1.1909
X3.1791Y-1.2274
X3.2106Y-3.1732
X3.2215Y-1.2598
X3.38Y-2.12
X3.4049Y-2.0465
X3.4149Y-1.8965
X3.591Y-3.1128
X3.6531Y-2.4675
X3.654Y-2.44
X3.7501Y-2.5002
X3.8005Y-2.1652
X3.9076Y-2.5396
X3.9099Y-2.4806
X3.9213Y-2.4455
X3.9491Y-4.464
X3.9843Y-2.7538
X4.0191Y-4.544
X4.0691Y-4.174
X4.1221Y-2.3538
X4.1604Y-2.7244
X4.1639Y-2.5904
X4.2992Y-2.7411
X4.3642Y-2.9852
T2
X2.5387Y-2.9187
X2.6Y-2.98
X2.8Y-3.12
X2.9Y-3.16
T3
X0.9005Y-4.3383
X0.9005Y-4.406
X0.9024Y-4.4686
X0.9028Y-4.6083
X0.9032Y-4.5418
X0.9705Y-3.0983
X0.9705Y-3.166
X0.9724Y-3.2286
X0.9728Y-3.3683
X0.9732Y-3.3018
X0.9744Y-3.4339
X0.9744Y-3.5016
X0.9764Y-3.5642
X0.9764Y-3.7764
X0.9764Y-3.8441
X0.9768Y-3.704
X0.9772Y-3.6374
X0.978Y-4.3383
X0.978Y-4.406
X0.9783Y-3.9067
X0.9787Y-4.0465
X0.9791Y-3.98
X0.98Y-4.4686
X0.9804Y-4.6083
X0.9808Y-4.5418
X1.048Y-3.0983
X1.048Y-3.166
X1.05Y-3.2286
X1.0504Y-3.3683
X1.0508Y-3.3018
X1.052Y-3.4339
X1.052Y-3.5016
X1.0539Y-3.5642
X1.0539Y-3.7764
X1.0539Y-3.8441
X1.0543Y-3.704
X1.0547Y-3.6374
X1.0559Y-3.9067
X1.0563Y-4.0465
X1.0567Y-3.98
X1.1244Y-2.8945
X1.1244Y-2.9331
X1.1248Y-2.7752
X1.1248Y-2.8138
X1.1256Y-2.9744
X1.126Y-2.8551
X1.2012Y-2.8937
X1.2016Y-2.7744
X1.2016Y-2.9748
X1.2016Y-3.0571
X1.202Y-2.8555
X1.2028Y-2.935
X1.2028Y-3.0173
X1.2031Y-2.8157
X1.2519Y-1.5079
X1.2519Y-1.5693
X1.2772Y-2.8969
X1.2772Y-2.9354
X1.2772Y-2.9744
X1.2772Y-3.0177
X1.2772Y-3.0567
X1.2772Y-3.0941
X1.2772Y-3.1331
X1.2776Y-2.7776
X1.2776Y-2.8161
X1.2776Y-2.8551
X1.2811Y-3.1713
X1.3319Y-1.5079
X1.3319Y-1.5693
X1.3602Y-2.8961
X1.3602Y-2.9362
X1.3602Y-2.9724
X1.3602Y-3.0185
X1.3602Y-3.0547
X1.3602Y-3.0949
X1.3602Y-3.1311
X1.3606Y-2.7768
X1.3606Y-2.8169
X1.3606Y-2.8531
X1.3642Y-3.172
X1.3642Y-3.2083
X1.4119Y-1.5079
X1.4119Y-1.5693
X1.435Y-2.976
X1.435Y-3.0583
X1.435Y-3.1346
X1.4358Y-2.7744
X1.4358Y-2.8157
X1.4358Y-2.8539
X1.4362Y-2.8929
X1.4362Y-2.9343
X1.4362Y-3.0165
X1.4362Y-3.0929
X1.439Y-3.2118
X1.4402Y-3.1701
X1.4919Y-1.5079
X1.4919Y-1.5693
X1.4919Y-1.6279
X1.4919Y-1.6893
X1.5173Y-2.774
X1.5177Y-2.815
X1.5177Y-2.8925
X1.5181Y-2.9335
X1.5181Y-3.0157
X1.5181Y-3.0921
X1.5197Y-2.9748
X1.5197Y-3.0571
X1.5197Y-3.1335
X1.5205Y-2.8528
X1.5819Y-1.5079
X1.5819Y-1.5693
X1.5819Y-1.6279
X1.5819Y-1.6893
X1.6719Y-1.6279
X1.6719Y-1.6893
X1.8894Y-3.0594
X2.73Y-2.1
X2.8Y-1.86
X2.83Y-2.73
X3.0614Y-3.6106
X3.0614Y-3.672
X3.0614Y-3.7398
X3.0634Y-3.8024
X3.0638Y-3.9421
X3.0642Y-3.8756
X3.1173Y-3.6087
X3.1173Y-3.6701
X3.1173Y-3.7378
X3.1191Y-4.082
X3.1193Y-3.8004
X3.1197Y-3.9402
X3.1201Y-3.8736
X3.17Y-4.54
X3.1819Y-3.6079
X3.1819Y-3.6693
X3.1819Y-3.737
X3.1839Y-3.7996
X3.1843Y-3.9394
X3.1846Y-3.8728
X3.3965Y-3.6986
X3.41Y-1.82
X3.45Y-2.06
X3.4819Y-3.2144
X3.7105Y-3.6083
X3.7105Y-3.676
X3.7124Y-3.7386
X3.7128Y-3.8783
X3.7132Y-3.8118
X3.7205Y-3.2083
X3.7205Y-3.276
X3.7224Y-3.3386
X3.7228Y-3.4783
X3.7232Y-3.4118
X3.788Y-3.6083
X3.788Y-3.676
X3.79Y-3.7386
X3.7904Y-3.8783
X3.7908Y-3.8118
X3.7924Y-3.9386
X3.7928Y-4.0783
X3.7932Y-4.0118
X3.798Y-3.2083
X3.798Y-3.276
X3.8Y-3.3386
X3.8004Y-3.4783
X3.8008Y-3.4118
X3.87Y-3.9386
X3.8704Y-4.0783
X3.8708Y-4.0118
X3.8715Y-3.6083
X3.8715Y-3.676
X3.8735Y-3.7386
X3.8739Y-3.8783
X3.8743Y-3.8118
X3.8815Y-3.2083
X3.8815Y-3.276
X3.8835Y-3.3386
X3.8839Y-3.4783
X3.8843Y-3.4118
X3.9535Y-3.9386
X3.9539Y-4.0783
X3.9543Y-4.0118
X3.9546Y-3.6083
X3.9546Y-3.676
X3.9565Y-3.7386
X3.9569Y-3.8783
X3.9573Y-3.8118
X3.9646Y-3.2083
X3.9646Y-3.276
X3.9665Y-3.3386
X3.9669Y-3.4783
X3.9673Y-3.4118
X4.0305Y-3.6083
X4.0305Y-3.676
X4.0324Y-3.7386
X4.0328Y-3.8783
X4.0332Y-3.8118
X4.0365Y-3.9386
X4.0369Y-4.0783
X4.0373Y-4.0118
X4.108Y-3.6083
X4.108Y-3.676
X4.11Y-3.7386
X4.1104Y-3.8783
X4.1108Y-3.8118
X4.1135Y-3.9386
X4.1139Y-4.0783
X4.1143Y-4.0118
X4.1915Y-3.6083
X4.1915Y-3.676
X4.1935Y-3.7386
X4.1939Y-3.8783
X4.1943Y-3.8118
X4.1965Y-3.9386
X4.1969Y-4.0783
X4.1973Y-4.0118
X4.2735Y-3.9386
X4.2739Y-4.0783
X4.2743Y-4.0118
X4.2746Y-3.6083
X4.2746Y-3.676
X4.2765Y-3.7386
X4.2769Y-3.8783
X4.2773Y-3.8118
X4.3505Y-3.6083
X4.3505Y-3.676
X4.3524Y-3.7386
X4.3528Y-3.8783
X4.3532Y-3.8118
X4.3565Y-3.9386
X4.3569Y-4.0783
X4.3573Y-4.0118
X4.3719Y-2.5879
X4.3719Y-2.6493
X4.3719Y-2.717
X4.3739Y-2.7796
X4.3743Y-2.9194
X4.3746Y-2.8528
X4.428Y-3.6083
X4.428Y-3.676
X4.43Y-3.7386
X4.4304Y-3.8783
X4.4308Y-3.8118
X4.4335Y-3.9386
X4.4339Y-4.0783
X4.4343Y-4.0118
X4.4419Y-2.5879
X4.4419Y-2.6493
X4.4419Y-2.717
X4.4439Y-2.7796
X4.4443Y-2.9194
X4.4446Y-2.8528
X4.5115Y-3.6083
X4.5115Y-3.676
X4.5119Y-2.5879
X4.5119Y-2.6493
X4.5119Y-2.717
X4.5135Y-3.7386
X4.5139Y-2.7796
X4.5139Y-3.8783
X4.5143Y-2.9194
X4.5143Y-3.8118
X4.5146Y-2.8528
X4.5165Y-3.9386
X4.5169Y-4.0783
X4.5173Y-4.0118
X4.5946Y-3.6083
X4.5946Y-3.676
X4.5965Y-3.7386
X4.5969Y-3.8783
X4.5973Y-3.8118
T4
X1.4142Y-3.454
X1.4142Y-4.4145
X1.493Y-3.454
X1.493Y-4.4145
X1.5717Y-3.454
X1.5717Y-4.4145
X1.6504Y-3.454
X1.6504Y-4.4145
X1.7292Y-3.454
X1.7292Y-4.4145
X1.8079Y-3.454
X1.8079Y-4.4145
X1.8867Y-3.454
X1.8867Y-4.4145
X1.9654Y-3.454
X1.9654Y-4.4145
X2.0441Y-3.454
X2.0441Y-4.4145
X2.1228Y-3.454
X2.1228Y-4.4145
X2.2015Y-3.454
X2.2015Y-4.4145
X2.2803Y-3.454
X2.2803Y-4.4145
X2.359Y-3.454
X2.359Y-4.4145
X2.4378Y-3.454
X2.4378Y-4.4145
X2.5165Y-3.454
X2.5165Y-4.4145
X2.5952Y-3.454
X2.5952Y-4.4145
T5
X3.4508Y-4.7461
X3.6614Y-3.9439
X4.452Y-3.5323
X4.6307Y-2.6071
X4.1791Y-4.3641
X4.1791Y-4.4641
X4.1791Y-4.544
X4.1791Y-4.644
X1.3031Y-1.2612
X1.3031Y-1.3612
X1.4031Y-1.2612
X1.4031Y-1.3612
X1.5031Y-1.2612
X1.5031Y-1.3612
X1.6031Y-1.2612
X1.6031Y-1.3612
X1.7031Y-1.2612
X1.7031Y-1.3612
X1.8031Y-1.2612
X1.8031Y-1.3612
X1.9031Y-1.2612
X1.9031Y-1.3612
X1.19Y-4.5831
X1.19Y-4.6831
X1.19Y-4.7831
T6
X4.2842Y-4.244
X4.2842Y-4.7841
T5
G00X4.1773Y-1.3032
M15
G01X4.1773Y-1.2244
M16
G05
G00X4.3348Y-1.0788
M15
G01X4.256Y-1.0788
M16
G05
G00X4.4135Y-1.3032
M15
G01X4.4135Y-1.2244
M16
G05
T0
M30
